ISO-10303-21;
HEADER;
/* Generated by software containing ST-Developer
 * from STEP Tools, Inc. (www.steptools.com) 
 */

FILE_DESCRIPTION(
/* description */ (''),
/* implementation_level */ '2;1');

FILE_NAME(
/* name */ 'impeller bracket.step',
/* time_stamp */ '2026-09-05T18:25:59+03:00',
/* author */ (''),
/* organization */ (''),
/* preprocessor_version */ 'ST-DEVELOPER v20.2',
/* originating_system */ 'Autodesk Translation Framework v15.15.0.0',
/* authorisation */ '');

FILE_SCHEMA (('AUTOMOTIVE_DESIGN { 1 0 10303 214 3 1 1 }'));
ENDSEC;

DATA;
#10=MECHANICAL_DESIGN_GEOMETRIC_PRESENTATION_REPRESENTATION('',(#13),#1119);
#11=SHAPE_REPRESENTATION_RELATIONSHIP('SRR','None',#1126,#12);
#12=ADVANCED_BREP_SHAPE_REPRESENTATION('',(#14),#1118);
#13=STYLED_ITEM('',(#1135),#14);
#14=MANIFOLD_SOLID_BREP('G\X\F6vde1',#666);
#15=FACE_BOUND('',#89,.T.);
#16=FACE_BOUND('',#97,.T.);
#17=FACE_BOUND('',#99,.T.);
#18=FACE_BOUND('',#103,.T.);
#19=FACE_BOUND('',#111,.T.);
#20=FACE_BOUND('',#114,.T.);
#21=FACE_BOUND('',#117,.T.);
#22=FACE_BOUND('',#125,.T.);
#23=FACE_BOUND('',#130,.T.);
#24=FACE_BOUND('',#133,.T.);
#25=PLANE('',#683);
#26=PLANE('',#684);
#27=PLANE('',#685);
#28=PLANE('',#689);
#29=PLANE('',#690);
#30=PLANE('',#691);
#31=PLANE('',#692);
#32=PLANE('',#693);
#33=PLANE('',#703);
#34=PLANE('',#704);
#35=PLANE('',#705);
#36=PLANE('',#709);
#37=PLANE('',#710);
#38=PLANE('',#711);
#39=PLANE('',#712);
#40=PLANE('',#715);
#41=PLANE('',#722);
#42=PLANE('',#723);
#43=PLANE('',#724);
#44=PLANE('',#727);
#45=PLANE('',#728);
#46=PLANE('',#729);
#47=PLANE('',#730);
#48=PLANE('',#737);
#49=PLANE('',#740);
#50=FACE_OUTER_BOUND('',#87,.T.);
#51=FACE_OUTER_BOUND('',#88,.T.);
#52=FACE_OUTER_BOUND('',#90,.T.);
#53=FACE_OUTER_BOUND('',#91,.T.);
#54=FACE_OUTER_BOUND('',#92,.T.);
#55=FACE_OUTER_BOUND('',#93,.T.);
#56=FACE_OUTER_BOUND('',#94,.T.);
#57=FACE_OUTER_BOUND('',#95,.T.);
#58=FACE_OUTER_BOUND('',#96,.T.);
#59=FACE_OUTER_BOUND('',#98,.T.);
#60=FACE_OUTER_BOUND('',#100,.T.);
#61=FACE_OUTER_BOUND('',#101,.T.);
#62=FACE_OUTER_BOUND('',#102,.T.);
#63=FACE_OUTER_BOUND('',#104,.T.);
#64=FACE_OUTER_BOUND('',#105,.T.);
#65=FACE_OUTER_BOUND('',#106,.T.);
#66=FACE_OUTER_BOUND('',#107,.T.);
#67=FACE_OUTER_BOUND('',#108,.T.);
#68=FACE_OUTER_BOUND('',#109,.T.);
#69=FACE_OUTER_BOUND('',#110,.T.);
#70=FACE_OUTER_BOUND('',#112,.T.);
#71=FACE_OUTER_BOUND('',#113,.T.);
#72=FACE_OUTER_BOUND('',#115,.T.);
#73=FACE_OUTER_BOUND('',#116,.T.);
#74=FACE_OUTER_BOUND('',#118,.T.);
#75=FACE_OUTER_BOUND('',#119,.T.);
#76=FACE_OUTER_BOUND('',#120,.T.);
#77=FACE_OUTER_BOUND('',#121,.T.);
#78=FACE_OUTER_BOUND('',#122,.T.);
#79=FACE_OUTER_BOUND('',#123,.T.);
#80=FACE_OUTER_BOUND('',#124,.T.);
#81=FACE_OUTER_BOUND('',#126,.T.);
#82=FACE_OUTER_BOUND('',#127,.T.);
#83=FACE_OUTER_BOUND('',#128,.T.);
#84=FACE_OUTER_BOUND('',#129,.T.);
#85=FACE_OUTER_BOUND('',#131,.T.);
#86=FACE_OUTER_BOUND('',#132,.T.);
#87=EDGE_LOOP('',(#437,#438,#439,#440));
#88=EDGE_LOOP('',(#441,#442,#443,#444));
#89=EDGE_LOOP('',(#445));
#90=EDGE_LOOP('',(#446,#447,#448,#449));
#91=EDGE_LOOP('',(#450,#451,#452,#453));
#92=EDGE_LOOP('',(#454,#455,#456,#457));
#93=EDGE_LOOP('',(#458,#459,#460,#461));
#94=EDGE_LOOP('',(#462,#463,#464,#465,#466,#467));
#95=EDGE_LOOP('',(#468,#469,#470,#471,#472,#473,#474));
#96=EDGE_LOOP('',(#475,#476,#477,#478,#479));
#97=EDGE_LOOP('',(#480));
#98=EDGE_LOOP('',(#481,#482,#483,#484,#485,#486,#487,#488,#489,#490,#491,
#492));
#99=EDGE_LOOP('',(#493));
#100=EDGE_LOOP('',(#494,#495,#496,#497));
#101=EDGE_LOOP('',(#498,#499,#500,#501));
#102=EDGE_LOOP('',(#502,#503,#504,#505));
#103=EDGE_LOOP('',(#506));
#104=EDGE_LOOP('',(#507,#508,#509,#510));
#105=EDGE_LOOP('',(#511,#512,#513,#514));
#106=EDGE_LOOP('',(#515,#516,#517,#518));
#107=EDGE_LOOP('',(#519,#520,#521,#522));
#108=EDGE_LOOP('',(#523,#524,#525,#526,#527,#528));
#109=EDGE_LOOP('',(#529,#530,#531,#532,#533,#534,#535));
#110=EDGE_LOOP('',(#536,#537,#538,#539,#540));
#111=EDGE_LOOP('',(#541));
#112=EDGE_LOOP('',(#542,#543,#544,#545));
#113=EDGE_LOOP('',(#546,#547,#548,#549,#550,#551));
#114=EDGE_LOOP('',(#552));
#115=EDGE_LOOP('',(#553,#554,#555,#556));
#116=EDGE_LOOP('',(#557,#558,#559,#560));
#117=EDGE_LOOP('',(#561));
#118=EDGE_LOOP('',(#562,#563,#564,#565));
#119=EDGE_LOOP('',(#566,#567,#568,#569));
#120=EDGE_LOOP('',(#570,#571,#572,#573));
#121=EDGE_LOOP('',(#574,#575,#576,#577));
#122=EDGE_LOOP('',(#578,#579,#580,#581,#582,#583));
#123=EDGE_LOOP('',(#584,#585,#586,#587,#588,#589,#590));
#124=EDGE_LOOP('',(#591,#592,#593,#594,#595));
#125=EDGE_LOOP('',(#596));
#126=EDGE_LOOP('',(#597,#598,#599,#600));
#127=EDGE_LOOP('',(#601,#602,#603,#604));
#128=EDGE_LOOP('',(#605,#606,#607,#608));
#129=EDGE_LOOP('',(#609));
#130=EDGE_LOOP('',(#610));
#131=EDGE_LOOP('',(#611,#612,#613,#614));
#132=EDGE_LOOP('',(#615));
#133=EDGE_LOOP('',(#616));
#134=LINE('',#936,#200);
#135=LINE('',#941,#201);
#136=LINE('',#943,#202);
#137=LINE('',#945,#203);
#138=LINE('',#946,#204);
#139=LINE('',#949,#205);
#140=LINE('',#951,#206);
#141=LINE('',#952,#207);
#142=LINE('',#955,#208);
#143=LINE('',#956,#209);
#144=LINE('',#962,#210);
#145=LINE('',#965,#211);
#146=LINE('',#968,#212);
#147=LINE('',#970,#213);
#148=LINE('',#971,#214);
#149=LINE('',#974,#215);
#150=LINE('',#975,#216);
#151=LINE('',#976,#217);
#152=LINE('',#979,#218);
#153=LINE('',#980,#219);
#154=LINE('',#981,#220);
#155=LINE('',#987,#221);
#156=LINE('',#989,#222);
#157=LINE('',#991,#223);
#158=LINE('',#995,#224);
#159=LINE('',#997,#225);
#160=LINE('',#999,#226);
#161=LINE('',#1006,#227);
#162=LINE('',#1011,#228);
#163=LINE('',#1016,#229);
#164=LINE('',#1018,#230);
#165=LINE('',#1020,#231);
#166=LINE('',#1021,#232);
#167=LINE('',#1024,#233);
#168=LINE('',#1026,#234);
#169=LINE('',#1027,#235);
#170=LINE('',#1030,#236);
#171=LINE('',#1031,#237);
#172=LINE('',#1037,#238);
#173=LINE('',#1040,#239);
#174=LINE('',#1042,#240);
#175=LINE('',#1043,#241);
#176=LINE('',#1045,#242);
#177=LINE('',#1046,#243);
#178=LINE('',#1048,#244);
#179=LINE('',#1049,#245);
#180=LINE('',#1063,#246);
#181=LINE('',#1068,#247);
#182=LINE('',#1070,#248);
#183=LINE('',#1072,#249);
#184=LINE('',#1073,#250);
#185=LINE('',#1076,#251);
#186=LINE('',#1078,#252);
#187=LINE('',#1079,#253);
#188=LINE('',#1082,#254);
#189=LINE('',#1083,#255);
#190=LINE('',#1086,#256);
#191=LINE('',#1089,#257);
#192=LINE('',#1091,#258);
#193=LINE('',#1092,#259);
#194=LINE('',#1094,#260);
#195=LINE('',#1095,#261);
#196=LINE('',#1097,#262);
#197=LINE('',#1104,#263);
#198=LINE('',#1109,#264);
#199=LINE('',#1114,#265);
#200=VECTOR('',#747,1.65);
#201=VECTOR('',#752,10.);
#202=VECTOR('',#753,10.);
#203=VECTOR('',#754,10.);
#204=VECTOR('',#755,10.);
#205=VECTOR('',#758,10.);
#206=VECTOR('',#759,10.);
#207=VECTOR('',#760,10.);
#208=VECTOR('',#763,10.);
#209=VECTOR('',#764,10.);
#210=VECTOR('',#769,10.);
#211=VECTOR('',#772,10.);
#212=VECTOR('',#775,10.);
#213=VECTOR('',#776,10.);
#214=VECTOR('',#777,10.);
#215=VECTOR('',#780,10.);
#216=VECTOR('',#781,10.);
#217=VECTOR('',#782,10.);
#218=VECTOR('',#785,10.);
#219=VECTOR('',#786,10.);
#220=VECTOR('',#787,10.);
#221=VECTOR('',#794,10.);
#222=VECTOR('',#795,10.);
#223=VECTOR('',#796,10.);
#224=VECTOR('',#799,10.);
#225=VECTOR('',#800,10.);
#226=VECTOR('',#801,10.);
#227=VECTOR('',#810,10.);
#228=VECTOR('',#815,1.65);
#229=VECTOR('',#820,10.);
#230=VECTOR('',#821,10.);
#231=VECTOR('',#822,10.);
#232=VECTOR('',#823,10.);
#233=VECTOR('',#826,10.);
#234=VECTOR('',#827,10.);
#235=VECTOR('',#828,10.);
#236=VECTOR('',#831,10.);
#237=VECTOR('',#832,10.);
#238=VECTOR('',#837,10.);
#239=VECTOR('',#840,10.);
#240=VECTOR('',#843,10.);
#241=VECTOR('',#844,10.);
#242=VECTOR('',#847,10.);
#243=VECTOR('',#848,10.);
#244=VECTOR('',#851,10.);
#245=VECTOR('',#852,10.);
#246=VECTOR('',#871,1.65);
#247=VECTOR('',#876,10.);
#248=VECTOR('',#877,10.);
#249=VECTOR('',#878,10.);
#250=VECTOR('',#879,10.);
#251=VECTOR('',#882,10.);
#252=VECTOR('',#883,10.);
#253=VECTOR('',#884,10.);
#254=VECTOR('',#887,10.);
#255=VECTOR('',#888,10.);
#256=VECTOR('',#891,10.);
#257=VECTOR('',#894,10.);
#258=VECTOR('',#897,10.);
#259=VECTOR('',#898,10.);
#260=VECTOR('',#901,10.);
#261=VECTOR('',#902,10.);
#262=VECTOR('',#905,10.);
#263=VECTOR('',#914,3.575);
#264=VECTOR('',#921,4.575);
#265=VECTOR('',#928,1.);
#266=CIRCLE('',#681,1.65);
#267=CIRCLE('',#682,1.65);
#268=CIRCLE('',#687,17.5);
#269=CIRCLE('',#688,17.5);
#270=CIRCLE('',#694,17.5);
#271=CIRCLE('',#695,17.5);
#272=CIRCLE('',#696,17.5);
#273=CIRCLE('',#697,4.575);
#274=CIRCLE('',#699,17.5);
#275=CIRCLE('',#701,1.65);
#276=CIRCLE('',#702,1.65);
#277=CIRCLE('',#707,17.5);
#278=CIRCLE('',#708,17.5);
#279=CIRCLE('',#714,17.5);
#280=CIRCLE('',#716,17.5);
#281=CIRCLE('',#717,17.5);
#282=CIRCLE('',#718,1.);
#283=CIRCLE('',#720,1.65);
#284=CIRCLE('',#721,1.65);
#285=CIRCLE('',#726,17.5);
#286=CIRCLE('',#733,3.575);
#287=CIRCLE('',#734,3.575);
#288=CIRCLE('',#736,4.575);
#289=CIRCLE('',#739,1.);
#290=VERTEX_POINT('',#933);
#291=VERTEX_POINT('',#935);
#292=VERTEX_POINT('',#939);
#293=VERTEX_POINT('',#940);
#294=VERTEX_POINT('',#942);
#295=VERTEX_POINT('',#944);
#296=VERTEX_POINT('',#948);
#297=VERTEX_POINT('',#950);
#298=VERTEX_POINT('',#954);
#299=VERTEX_POINT('',#958);
#300=VERTEX_POINT('',#959);
#301=VERTEX_POINT('',#961);
#302=VERTEX_POINT('',#963);
#303=VERTEX_POINT('',#967);
#304=VERTEX_POINT('',#969);
#305=VERTEX_POINT('',#973);
#306=VERTEX_POINT('',#978);
#307=VERTEX_POINT('',#984);
#308=VERTEX_POINT('',#986);
#309=VERTEX_POINT('',#988);
#310=VERTEX_POINT('',#990);
#311=VERTEX_POINT('',#992);
#312=VERTEX_POINT('',#994);
#313=VERTEX_POINT('',#996);
#314=VERTEX_POINT('',#998);
#315=VERTEX_POINT('',#1001);
#316=VERTEX_POINT('',#1004);
#317=VERTEX_POINT('',#1008);
#318=VERTEX_POINT('',#1010);
#319=VERTEX_POINT('',#1014);
#320=VERTEX_POINT('',#1015);
#321=VERTEX_POINT('',#1017);
#322=VERTEX_POINT('',#1019);
#323=VERTEX_POINT('',#1023);
#324=VERTEX_POINT('',#1025);
#325=VERTEX_POINT('',#1029);
#326=VERTEX_POINT('',#1033);
#327=VERTEX_POINT('',#1034);
#328=VERTEX_POINT('',#1036);
#329=VERTEX_POINT('',#1038);
#330=VERTEX_POINT('',#1054);
#331=VERTEX_POINT('',#1057);
#332=VERTEX_POINT('',#1060);
#333=VERTEX_POINT('',#1062);
#334=VERTEX_POINT('',#1066);
#335=VERTEX_POINT('',#1067);
#336=VERTEX_POINT('',#1069);
#337=VERTEX_POINT('',#1071);
#338=VERTEX_POINT('',#1075);
#339=VERTEX_POINT('',#1077);
#340=VERTEX_POINT('',#1081);
#341=VERTEX_POINT('',#1085);
#342=VERTEX_POINT('',#1087);
#343=VERTEX_POINT('',#1101);
#344=VERTEX_POINT('',#1103);
#345=VERTEX_POINT('',#1107);
#346=VERTEX_POINT('',#1112);
#347=EDGE_CURVE('',#290,#290,#266,.T.);
#348=EDGE_CURVE('',#290,#291,#134,.T.);
#349=EDGE_CURVE('',#291,#291,#267,.T.);
#350=EDGE_CURVE('',#292,#293,#135,.T.);
#351=EDGE_CURVE('',#292,#294,#136,.T.);
#352=EDGE_CURVE('',#295,#294,#137,.T.);
#353=EDGE_CURVE('',#293,#295,#138,.T.);
#354=EDGE_CURVE('',#293,#296,#139,.T.);
#355=EDGE_CURVE('',#297,#295,#140,.T.);
#356=EDGE_CURVE('',#296,#297,#141,.T.);
#357=EDGE_CURVE('',#298,#297,#142,.T.);
#358=EDGE_CURVE('',#294,#298,#143,.T.);
#359=EDGE_CURVE('',#299,#300,#268,.T.);
#360=EDGE_CURVE('',#299,#301,#144,.T.);
#361=EDGE_CURVE('',#302,#301,#269,.T.);
#362=EDGE_CURVE('',#300,#302,#145,.T.);
#363=EDGE_CURVE('',#303,#293,#146,.T.);
#364=EDGE_CURVE('',#303,#304,#147,.T.);
#365=EDGE_CURVE('',#304,#292,#148,.T.);
#366=EDGE_CURVE('',#303,#305,#149,.T.);
#367=EDGE_CURVE('',#301,#296,#150,.T.);
#368=EDGE_CURVE('',#305,#299,#151,.T.);
#369=EDGE_CURVE('',#306,#304,#152,.T.);
#370=EDGE_CURVE('',#300,#306,#153,.T.);
#371=EDGE_CURVE('',#302,#298,#154,.T.);
#372=EDGE_CURVE('',#305,#307,#270,.T.);
#373=EDGE_CURVE('',#307,#308,#155,.T.);
#374=EDGE_CURVE('',#309,#308,#156,.T.);
#375=EDGE_CURVE('',#309,#310,#157,.T.);
#376=EDGE_CURVE('',#310,#311,#271,.T.);
#377=EDGE_CURVE('',#311,#312,#158,.T.);
#378=EDGE_CURVE('',#313,#312,#159,.T.);
#379=EDGE_CURVE('',#313,#314,#160,.T.);
#380=EDGE_CURVE('',#314,#306,#272,.T.);
#381=EDGE_CURVE('',#315,#315,#273,.T.);
#382=EDGE_CURVE('',#316,#299,#274,.T.);
#383=EDGE_CURVE('',#316,#307,#161,.T.);
#384=EDGE_CURVE('',#317,#317,#275,.T.);
#385=EDGE_CURVE('',#317,#318,#162,.T.);
#386=EDGE_CURVE('',#318,#318,#276,.T.);
#387=EDGE_CURVE('',#319,#320,#163,.T.);
#388=EDGE_CURVE('',#319,#321,#164,.T.);
#389=EDGE_CURVE('',#322,#321,#165,.T.);
#390=EDGE_CURVE('',#320,#322,#166,.T.);
#391=EDGE_CURVE('',#320,#323,#167,.T.);
#392=EDGE_CURVE('',#324,#322,#168,.T.);
#393=EDGE_CURVE('',#323,#324,#169,.T.);
#394=EDGE_CURVE('',#325,#324,#170,.T.);
#395=EDGE_CURVE('',#321,#325,#171,.T.);
#396=EDGE_CURVE('',#326,#327,#277,.T.);
#397=EDGE_CURVE('',#326,#328,#172,.T.);
#398=EDGE_CURVE('',#329,#328,#278,.T.);
#399=EDGE_CURVE('',#327,#329,#173,.T.);
#400=EDGE_CURVE('',#313,#320,#174,.T.);
#401=EDGE_CURVE('',#312,#319,#175,.T.);
#402=EDGE_CURVE('',#328,#323,#176,.T.);
#403=EDGE_CURVE('',#314,#326,#177,.T.);
#404=EDGE_CURVE('',#327,#311,#178,.T.);
#405=EDGE_CURVE('',#329,#325,#179,.T.);
#406=EDGE_CURVE('',#300,#326,#279,.T.);
#407=EDGE_CURVE('',#327,#330,#280,.T.);
#408=EDGE_CURVE('',#330,#316,#281,.T.);
#409=EDGE_CURVE('',#331,#331,#282,.T.);
#410=EDGE_CURVE('',#332,#332,#283,.T.);
#411=EDGE_CURVE('',#332,#333,#180,.T.);
#412=EDGE_CURVE('',#333,#333,#284,.T.);
#413=EDGE_CURVE('',#334,#335,#181,.T.);
#414=EDGE_CURVE('',#334,#336,#182,.T.);
#415=EDGE_CURVE('',#337,#336,#183,.T.);
#416=EDGE_CURVE('',#335,#337,#184,.T.);
#417=EDGE_CURVE('',#335,#338,#185,.T.);
#418=EDGE_CURVE('',#339,#337,#186,.T.);
#419=EDGE_CURVE('',#338,#339,#187,.T.);
#420=EDGE_CURVE('',#340,#339,#188,.T.);
#421=EDGE_CURVE('',#336,#340,#189,.T.);
#422=EDGE_CURVE('',#330,#341,#190,.T.);
#423=EDGE_CURVE('',#342,#341,#285,.T.);
#424=EDGE_CURVE('',#316,#342,#191,.T.);
#425=EDGE_CURVE('',#309,#335,#192,.T.);
#426=EDGE_CURVE('',#308,#334,#193,.T.);
#427=EDGE_CURVE('',#341,#338,#194,.T.);
#428=EDGE_CURVE('',#310,#330,#195,.T.);
#429=EDGE_CURVE('',#342,#340,#196,.T.);
#430=EDGE_CURVE('',#343,#343,#286,.T.);
#431=EDGE_CURVE('',#343,#344,#197,.T.);
#432=EDGE_CURVE('',#344,#344,#287,.T.);
#433=EDGE_CURVE('',#345,#345,#288,.T.);
#434=EDGE_CURVE('',#345,#315,#198,.T.);
#435=EDGE_CURVE('',#346,#346,#289,.T.);
#436=EDGE_CURVE('',#346,#331,#199,.T.);
#437=ORIENTED_EDGE('',*,*,#347,.F.);
#438=ORIENTED_EDGE('',*,*,#348,.T.);
#439=ORIENTED_EDGE('',*,*,#349,.F.);
#440=ORIENTED_EDGE('',*,*,#348,.F.);
#441=ORIENTED_EDGE('',*,*,#350,.F.);
#442=ORIENTED_EDGE('',*,*,#351,.T.);
#443=ORIENTED_EDGE('',*,*,#352,.F.);
#444=ORIENTED_EDGE('',*,*,#353,.F.);
#445=ORIENTED_EDGE('',*,*,#347,.T.);
#446=ORIENTED_EDGE('',*,*,#354,.F.);
#447=ORIENTED_EDGE('',*,*,#353,.T.);
#448=ORIENTED_EDGE('',*,*,#355,.F.);
#449=ORIENTED_EDGE('',*,*,#356,.F.);
#450=ORIENTED_EDGE('',*,*,#357,.T.);
#451=ORIENTED_EDGE('',*,*,#355,.T.);
#452=ORIENTED_EDGE('',*,*,#352,.T.);
#453=ORIENTED_EDGE('',*,*,#358,.T.);
#454=ORIENTED_EDGE('',*,*,#359,.F.);
#455=ORIENTED_EDGE('',*,*,#360,.T.);
#456=ORIENTED_EDGE('',*,*,#361,.F.);
#457=ORIENTED_EDGE('',*,*,#362,.F.);
#458=ORIENTED_EDGE('',*,*,#350,.T.);
#459=ORIENTED_EDGE('',*,*,#363,.F.);
#460=ORIENTED_EDGE('',*,*,#364,.T.);
#461=ORIENTED_EDGE('',*,*,#365,.T.);
#462=ORIENTED_EDGE('',*,*,#366,.F.);
#463=ORIENTED_EDGE('',*,*,#363,.T.);
#464=ORIENTED_EDGE('',*,*,#354,.T.);
#465=ORIENTED_EDGE('',*,*,#367,.F.);
#466=ORIENTED_EDGE('',*,*,#360,.F.);
#467=ORIENTED_EDGE('',*,*,#368,.F.);
#468=ORIENTED_EDGE('',*,*,#369,.F.);
#469=ORIENTED_EDGE('',*,*,#370,.F.);
#470=ORIENTED_EDGE('',*,*,#362,.T.);
#471=ORIENTED_EDGE('',*,*,#371,.T.);
#472=ORIENTED_EDGE('',*,*,#358,.F.);
#473=ORIENTED_EDGE('',*,*,#351,.F.);
#474=ORIENTED_EDGE('',*,*,#365,.F.);
#475=ORIENTED_EDGE('',*,*,#371,.F.);
#476=ORIENTED_EDGE('',*,*,#361,.T.);
#477=ORIENTED_EDGE('',*,*,#367,.T.);
#478=ORIENTED_EDGE('',*,*,#356,.T.);
#479=ORIENTED_EDGE('',*,*,#357,.F.);
#480=ORIENTED_EDGE('',*,*,#349,.T.);
#481=ORIENTED_EDGE('',*,*,#369,.T.);
#482=ORIENTED_EDGE('',*,*,#364,.F.);
#483=ORIENTED_EDGE('',*,*,#366,.T.);
#484=ORIENTED_EDGE('',*,*,#372,.T.);
#485=ORIENTED_EDGE('',*,*,#373,.T.);
#486=ORIENTED_EDGE('',*,*,#374,.F.);
#487=ORIENTED_EDGE('',*,*,#375,.T.);
#488=ORIENTED_EDGE('',*,*,#376,.T.);
#489=ORIENTED_EDGE('',*,*,#377,.T.);
#490=ORIENTED_EDGE('',*,*,#378,.F.);
#491=ORIENTED_EDGE('',*,*,#379,.T.);
#492=ORIENTED_EDGE('',*,*,#380,.T.);
#493=ORIENTED_EDGE('',*,*,#381,.T.);
#494=ORIENTED_EDGE('',*,*,#368,.T.);
#495=ORIENTED_EDGE('',*,*,#382,.F.);
#496=ORIENTED_EDGE('',*,*,#383,.T.);
#497=ORIENTED_EDGE('',*,*,#372,.F.);
#498=ORIENTED_EDGE('',*,*,#384,.F.);
#499=ORIENTED_EDGE('',*,*,#385,.T.);
#500=ORIENTED_EDGE('',*,*,#386,.F.);
#501=ORIENTED_EDGE('',*,*,#385,.F.);
#502=ORIENTED_EDGE('',*,*,#387,.F.);
#503=ORIENTED_EDGE('',*,*,#388,.T.);
#504=ORIENTED_EDGE('',*,*,#389,.F.);
#505=ORIENTED_EDGE('',*,*,#390,.F.);
#506=ORIENTED_EDGE('',*,*,#384,.T.);
#507=ORIENTED_EDGE('',*,*,#391,.F.);
#508=ORIENTED_EDGE('',*,*,#390,.T.);
#509=ORIENTED_EDGE('',*,*,#392,.F.);
#510=ORIENTED_EDGE('',*,*,#393,.F.);
#511=ORIENTED_EDGE('',*,*,#394,.T.);
#512=ORIENTED_EDGE('',*,*,#392,.T.);
#513=ORIENTED_EDGE('',*,*,#389,.T.);
#514=ORIENTED_EDGE('',*,*,#395,.T.);
#515=ORIENTED_EDGE('',*,*,#396,.F.);
#516=ORIENTED_EDGE('',*,*,#397,.T.);
#517=ORIENTED_EDGE('',*,*,#398,.F.);
#518=ORIENTED_EDGE('',*,*,#399,.F.);
#519=ORIENTED_EDGE('',*,*,#387,.T.);
#520=ORIENTED_EDGE('',*,*,#400,.F.);
#521=ORIENTED_EDGE('',*,*,#378,.T.);
#522=ORIENTED_EDGE('',*,*,#401,.T.);
#523=ORIENTED_EDGE('',*,*,#379,.F.);
#524=ORIENTED_EDGE('',*,*,#400,.T.);
#525=ORIENTED_EDGE('',*,*,#391,.T.);
#526=ORIENTED_EDGE('',*,*,#402,.F.);
#527=ORIENTED_EDGE('',*,*,#397,.F.);
#528=ORIENTED_EDGE('',*,*,#403,.F.);
#529=ORIENTED_EDGE('',*,*,#377,.F.);
#530=ORIENTED_EDGE('',*,*,#404,.F.);
#531=ORIENTED_EDGE('',*,*,#399,.T.);
#532=ORIENTED_EDGE('',*,*,#405,.T.);
#533=ORIENTED_EDGE('',*,*,#395,.F.);
#534=ORIENTED_EDGE('',*,*,#388,.F.);
#535=ORIENTED_EDGE('',*,*,#401,.F.);
#536=ORIENTED_EDGE('',*,*,#405,.F.);
#537=ORIENTED_EDGE('',*,*,#398,.T.);
#538=ORIENTED_EDGE('',*,*,#402,.T.);
#539=ORIENTED_EDGE('',*,*,#393,.T.);
#540=ORIENTED_EDGE('',*,*,#394,.F.);
#541=ORIENTED_EDGE('',*,*,#386,.T.);
#542=ORIENTED_EDGE('',*,*,#370,.T.);
#543=ORIENTED_EDGE('',*,*,#380,.F.);
#544=ORIENTED_EDGE('',*,*,#403,.T.);
#545=ORIENTED_EDGE('',*,*,#406,.F.);
#546=ORIENTED_EDGE('',*,*,#382,.T.);
#547=ORIENTED_EDGE('',*,*,#359,.T.);
#548=ORIENTED_EDGE('',*,*,#406,.T.);
#549=ORIENTED_EDGE('',*,*,#396,.T.);
#550=ORIENTED_EDGE('',*,*,#407,.T.);
#551=ORIENTED_EDGE('',*,*,#408,.T.);
#552=ORIENTED_EDGE('',*,*,#409,.T.);
#553=ORIENTED_EDGE('',*,*,#410,.F.);
#554=ORIENTED_EDGE('',*,*,#411,.T.);
#555=ORIENTED_EDGE('',*,*,#412,.F.);
#556=ORIENTED_EDGE('',*,*,#411,.F.);
#557=ORIENTED_EDGE('',*,*,#413,.F.);
#558=ORIENTED_EDGE('',*,*,#414,.T.);
#559=ORIENTED_EDGE('',*,*,#415,.F.);
#560=ORIENTED_EDGE('',*,*,#416,.F.);
#561=ORIENTED_EDGE('',*,*,#410,.T.);
#562=ORIENTED_EDGE('',*,*,#417,.F.);
#563=ORIENTED_EDGE('',*,*,#416,.T.);
#564=ORIENTED_EDGE('',*,*,#418,.F.);
#565=ORIENTED_EDGE('',*,*,#419,.F.);
#566=ORIENTED_EDGE('',*,*,#420,.T.);
#567=ORIENTED_EDGE('',*,*,#418,.T.);
#568=ORIENTED_EDGE('',*,*,#415,.T.);
#569=ORIENTED_EDGE('',*,*,#421,.T.);
#570=ORIENTED_EDGE('',*,*,#408,.F.);
#571=ORIENTED_EDGE('',*,*,#422,.T.);
#572=ORIENTED_EDGE('',*,*,#423,.F.);
#573=ORIENTED_EDGE('',*,*,#424,.F.);
#574=ORIENTED_EDGE('',*,*,#413,.T.);
#575=ORIENTED_EDGE('',*,*,#425,.F.);
#576=ORIENTED_EDGE('',*,*,#374,.T.);
#577=ORIENTED_EDGE('',*,*,#426,.T.);
#578=ORIENTED_EDGE('',*,*,#375,.F.);
#579=ORIENTED_EDGE('',*,*,#425,.T.);
#580=ORIENTED_EDGE('',*,*,#417,.T.);
#581=ORIENTED_EDGE('',*,*,#427,.F.);
#582=ORIENTED_EDGE('',*,*,#422,.F.);
#583=ORIENTED_EDGE('',*,*,#428,.F.);
#584=ORIENTED_EDGE('',*,*,#373,.F.);
#585=ORIENTED_EDGE('',*,*,#383,.F.);
#586=ORIENTED_EDGE('',*,*,#424,.T.);
#587=ORIENTED_EDGE('',*,*,#429,.T.);
#588=ORIENTED_EDGE('',*,*,#421,.F.);
#589=ORIENTED_EDGE('',*,*,#414,.F.);
#590=ORIENTED_EDGE('',*,*,#426,.F.);
#591=ORIENTED_EDGE('',*,*,#429,.F.);
#592=ORIENTED_EDGE('',*,*,#423,.T.);
#593=ORIENTED_EDGE('',*,*,#427,.T.);
#594=ORIENTED_EDGE('',*,*,#419,.T.);
#595=ORIENTED_EDGE('',*,*,#420,.F.);
#596=ORIENTED_EDGE('',*,*,#412,.T.);
#597=ORIENTED_EDGE('',*,*,#404,.T.);
#598=ORIENTED_EDGE('',*,*,#376,.F.);
#599=ORIENTED_EDGE('',*,*,#428,.T.);
#600=ORIENTED_EDGE('',*,*,#407,.F.);
#601=ORIENTED_EDGE('',*,*,#430,.F.);
#602=ORIENTED_EDGE('',*,*,#431,.T.);
#603=ORIENTED_EDGE('',*,*,#432,.F.);
#604=ORIENTED_EDGE('',*,*,#431,.F.);
#605=ORIENTED_EDGE('',*,*,#433,.F.);
#606=ORIENTED_EDGE('',*,*,#434,.T.);
#607=ORIENTED_EDGE('',*,*,#381,.F.);
#608=ORIENTED_EDGE('',*,*,#434,.F.);
#609=ORIENTED_EDGE('',*,*,#433,.T.);
#610=ORIENTED_EDGE('',*,*,#430,.T.);
#611=ORIENTED_EDGE('',*,*,#435,.F.);
#612=ORIENTED_EDGE('',*,*,#436,.T.);
#613=ORIENTED_EDGE('',*,*,#409,.F.);
#614=ORIENTED_EDGE('',*,*,#436,.F.);
#615=ORIENTED_EDGE('',*,*,#432,.T.);
#616=ORIENTED_EDGE('',*,*,#435,.T.);
#617=CYLINDRICAL_SURFACE('',#680,1.65);
#618=CYLINDRICAL_SURFACE('',#686,17.5);
#619=CYLINDRICAL_SURFACE('',#698,17.5);
#620=CYLINDRICAL_SURFACE('',#700,1.65);
#621=CYLINDRICAL_SURFACE('',#706,17.5);
#622=CYLINDRICAL_SURFACE('',#713,17.5);
#623=CYLINDRICAL_SURFACE('',#719,1.65);
#624=CYLINDRICAL_SURFACE('',#725,17.5);
#625=CYLINDRICAL_SURFACE('',#731,17.5);
#626=CYLINDRICAL_SURFACE('',#732,3.575);
#627=CYLINDRICAL_SURFACE('',#735,4.575);
#628=CYLINDRICAL_SURFACE('',#738,1.);
#629=ADVANCED_FACE('',(#50),#617,.F.);
#630=ADVANCED_FACE('',(#51,#15),#25,.T.);
#631=ADVANCED_FACE('',(#52),#26,.T.);
#632=ADVANCED_FACE('',(#53),#27,.T.);
#633=ADVANCED_FACE('',(#54),#618,.F.);
#634=ADVANCED_FACE('',(#55),#28,.T.);
#635=ADVANCED_FACE('',(#56),#29,.T.);
#636=ADVANCED_FACE('',(#57),#30,.T.);
#637=ADVANCED_FACE('',(#58,#16),#31,.F.);
#638=ADVANCED_FACE('',(#59,#17),#32,.T.);
#639=ADVANCED_FACE('',(#60),#619,.T.);
#640=ADVANCED_FACE('',(#61),#620,.F.);
#641=ADVANCED_FACE('',(#62,#18),#33,.T.);
#642=ADVANCED_FACE('',(#63),#34,.T.);
#643=ADVANCED_FACE('',(#64),#35,.T.);
#644=ADVANCED_FACE('',(#65),#621,.F.);
#645=ADVANCED_FACE('',(#66),#36,.T.);
#646=ADVANCED_FACE('',(#67),#37,.T.);
#647=ADVANCED_FACE('',(#68),#38,.T.);
#648=ADVANCED_FACE('',(#69,#19),#39,.F.);
#649=ADVANCED_FACE('',(#70),#622,.T.);
#650=ADVANCED_FACE('',(#71,#20),#40,.T.);
#651=ADVANCED_FACE('',(#72),#623,.F.);
#652=ADVANCED_FACE('',(#73,#21),#41,.T.);
#653=ADVANCED_FACE('',(#74),#42,.T.);
#654=ADVANCED_FACE('',(#75),#43,.T.);
#655=ADVANCED_FACE('',(#76),#624,.F.);
#656=ADVANCED_FACE('',(#77),#44,.T.);
#657=ADVANCED_FACE('',(#78),#45,.T.);
#658=ADVANCED_FACE('',(#79),#46,.T.);
#659=ADVANCED_FACE('',(#80,#22),#47,.F.);
#660=ADVANCED_FACE('',(#81),#625,.T.);
#661=ADVANCED_FACE('',(#82),#626,.F.);
#662=ADVANCED_FACE('',(#83),#627,.T.);
#663=ADVANCED_FACE('',(#84,#23),#48,.T.);
#664=ADVANCED_FACE('',(#85),#628,.F.);
#665=ADVANCED_FACE('',(#86,#24),#49,.T.);
#666=CLOSED_SHELL('',(#629,#630,#631,#632,#633,#634,#635,#636,#637,#638,
#639,#640,#641,#642,#643,#644,#645,#646,#647,#648,#649,#650,#651,#652,#653,
#654,#655,#656,#657,#658,#659,#660,#661,#662,#663,#664,#665));
#667=DERIVED_UNIT_ELEMENT(#669,1.);
#668=DERIVED_UNIT_ELEMENT(#1121,-3.);
#669=(
MASS_UNIT()
NAMED_UNIT(*)
SI_UNIT(.KILO.,.GRAM.)
);
#670=DERIVED_UNIT((#667,#668));
#671=MEASURE_REPRESENTATION_ITEM('density measure',
POSITIVE_RATIO_MEASURE(7850.),#670);
#672=PROPERTY_DEFINITION_REPRESENTATION(#677,#674);
#673=PROPERTY_DEFINITION_REPRESENTATION(#678,#675);
#674=REPRESENTATION('material name',(#676),#1118);
#675=REPRESENTATION('density',(#671),#1118);
#676=DESCRIPTIVE_REPRESENTATION_ITEM('\X\C7elik','\X\C7elik');
#677=PROPERTY_DEFINITION('material property','material name',#1128);
#678=PROPERTY_DEFINITION('material property','density of part',#1128);
#679=AXIS2_PLACEMENT_3D('',#931,#741,#742);
#680=AXIS2_PLACEMENT_3D('',#932,#743,#744);
#681=AXIS2_PLACEMENT_3D('',#934,#745,#746);
#682=AXIS2_PLACEMENT_3D('',#937,#748,#749);
#683=AXIS2_PLACEMENT_3D('',#938,#750,#751);
#684=AXIS2_PLACEMENT_3D('',#947,#756,#757);
#685=AXIS2_PLACEMENT_3D('',#953,#761,#762);
#686=AXIS2_PLACEMENT_3D('',#957,#765,#766);
#687=AXIS2_PLACEMENT_3D('',#960,#767,#768);
#688=AXIS2_PLACEMENT_3D('',#964,#770,#771);
#689=AXIS2_PLACEMENT_3D('',#966,#773,#774);
#690=AXIS2_PLACEMENT_3D('',#972,#778,#779);
#691=AXIS2_PLACEMENT_3D('',#977,#783,#784);
#692=AXIS2_PLACEMENT_3D('',#982,#788,#789);
#693=AXIS2_PLACEMENT_3D('',#983,#790,#791);
#694=AXIS2_PLACEMENT_3D('',#985,#792,#793);
#695=AXIS2_PLACEMENT_3D('',#993,#797,#798);
#696=AXIS2_PLACEMENT_3D('',#1000,#802,#803);
#697=AXIS2_PLACEMENT_3D('',#1002,#804,#805);
#698=AXIS2_PLACEMENT_3D('',#1003,#806,#807);
#699=AXIS2_PLACEMENT_3D('',#1005,#808,#809);
#700=AXIS2_PLACEMENT_3D('',#1007,#811,#812);
#701=AXIS2_PLACEMENT_3D('',#1009,#813,#814);
#702=AXIS2_PLACEMENT_3D('',#1012,#816,#817);
#703=AXIS2_PLACEMENT_3D('',#1013,#818,#819);
#704=AXIS2_PLACEMENT_3D('',#1022,#824,#825);
#705=AXIS2_PLACEMENT_3D('',#1028,#829,#830);
#706=AXIS2_PLACEMENT_3D('',#1032,#833,#834);
#707=AXIS2_PLACEMENT_3D('',#1035,#835,#836);
#708=AXIS2_PLACEMENT_3D('',#1039,#838,#839);
#709=AXIS2_PLACEMENT_3D('',#1041,#841,#842);
#710=AXIS2_PLACEMENT_3D('',#1044,#845,#846);
#711=AXIS2_PLACEMENT_3D('',#1047,#849,#850);
#712=AXIS2_PLACEMENT_3D('',#1050,#853,#854);
#713=AXIS2_PLACEMENT_3D('',#1051,#855,#856);
#714=AXIS2_PLACEMENT_3D('',#1052,#857,#858);
#715=AXIS2_PLACEMENT_3D('',#1053,#859,#860);
#716=AXIS2_PLACEMENT_3D('',#1055,#861,#862);
#717=AXIS2_PLACEMENT_3D('',#1056,#863,#864);
#718=AXIS2_PLACEMENT_3D('',#1058,#865,#866);
#719=AXIS2_PLACEMENT_3D('',#1059,#867,#868);
#720=AXIS2_PLACEMENT_3D('',#1061,#869,#870);
#721=AXIS2_PLACEMENT_3D('',#1064,#872,#873);
#722=AXIS2_PLACEMENT_3D('',#1065,#874,#875);
#723=AXIS2_PLACEMENT_3D('',#1074,#880,#881);
#724=AXIS2_PLACEMENT_3D('',#1080,#885,#886);
#725=AXIS2_PLACEMENT_3D('',#1084,#889,#890);
#726=AXIS2_PLACEMENT_3D('',#1088,#892,#893);
#727=AXIS2_PLACEMENT_3D('',#1090,#895,#896);
#728=AXIS2_PLACEMENT_3D('',#1093,#899,#900);
#729=AXIS2_PLACEMENT_3D('',#1096,#903,#904);
#730=AXIS2_PLACEMENT_3D('',#1098,#906,#907);
#731=AXIS2_PLACEMENT_3D('',#1099,#908,#909);
#732=AXIS2_PLACEMENT_3D('',#1100,#910,#911);
#733=AXIS2_PLACEMENT_3D('',#1102,#912,#913);
#734=AXIS2_PLACEMENT_3D('',#1105,#915,#916);
#735=AXIS2_PLACEMENT_3D('',#1106,#917,#918);
#736=AXIS2_PLACEMENT_3D('',#1108,#919,#920);
#737=AXIS2_PLACEMENT_3D('',#1110,#922,#923);
#738=AXIS2_PLACEMENT_3D('',#1111,#924,#925);
#739=AXIS2_PLACEMENT_3D('',#1113,#926,#927);
#740=AXIS2_PLACEMENT_3D('',#1115,#929,#930);
#741=DIRECTION('axis',(0.,0.,1.));
#742=DIRECTION('refdir',(1.,0.,0.));
#743=DIRECTION('center_axis',(-9.75068177960018E-9,-1.,1.68886762507036E-8));
#744=DIRECTION('ref_axis',(-0.866025403784438,0.,-0.5));
#745=DIRECTION('center_axis',(-9.75068177960018E-9,-1.,1.68886762507036E-8));
#746=DIRECTION('ref_axis',(-0.866025403784438,0.,-0.5));
#747=DIRECTION('',(-9.75068177960018E-9,-1.,1.68886762507036E-8));
#748=DIRECTION('center_axis',(-2.13491744991808E-32,1.,-1.23259516440783E-32));
#749=DIRECTION('ref_axis',(0.5,0.,-0.866025403784438));
#750=DIRECTION('center_axis',(9.75068177960018E-9,1.,-1.68886762507036E-8));
#751=DIRECTION('ref_axis',(-0.5,1.95013635592004E-8,0.866025403784438));
#752=DIRECTION('',(0.5,-1.95013635592004E-8,-0.866025403784438));
#753=DIRECTION('',(0.866025403784438,0.,0.5));
#754=DIRECTION('',(-0.5,1.95013635592003E-8,0.866025403784438));
#755=DIRECTION('',(0.866025403784438,0.,0.5));
#756=DIRECTION('center_axis',(0.5,0.,-0.866025403784438));
#757=DIRECTION('ref_axis',(0.,1.,0.));
#758=DIRECTION('',(0.,-1.,0.));
#759=DIRECTION('',(0.,1.,0.));
#760=DIRECTION('',(0.866025403784438,0.,0.5));
#761=DIRECTION('center_axis',(0.866025403784438,0.,0.5));
#762=DIRECTION('ref_axis',(0.5,0.,-0.866025403784438));
#763=DIRECTION('',(0.5,0.,-0.866025403784438));
#764=DIRECTION('',(0.,-1.,0.));
#765=DIRECTION('center_axis',(0.,-1.,0.));
#766=DIRECTION('ref_axis',(0.5,0.,-0.866025403784438));
#767=DIRECTION('center_axis',(0.,-1.,2.22044604925031E-16));
#768=DIRECTION('ref_axis',(1.,0.,0.));
#769=DIRECTION('',(0.,-1.,0.));
#770=DIRECTION('center_axis',(-2.13491744991808E-32,1.,-1.23259516440783E-32));
#771=DIRECTION('ref_axis',(0.5,0.,-0.866025403784438));
#772=DIRECTION('',(0.,-1.,0.));
#773=DIRECTION('center_axis',(0.866025403784438,0.,0.5));
#774=DIRECTION('ref_axis',(-0.5,0.,0.866025403784438));
#775=DIRECTION('',(0.,-1.,0.));
#776=DIRECTION('',(-0.5,0.,0.866025403784438));
#777=DIRECTION('',(0.,-1.,0.));
#778=DIRECTION('center_axis',(0.499973946764515,0.,-0.86604044510445));
#779=DIRECTION('ref_axis',(0.86604044510445,1.52497401873762E-15,0.499973946764514));
#780=DIRECTION('',(-0.86604044510445,-1.52497401873762E-15,-0.499973946764514));
#781=DIRECTION('',(0.86604044510445,1.52497401873762E-15,0.499973946764514));
#782=DIRECTION('',(0.,-1.,2.22044604925031E-16));
#783=DIRECTION('center_axis',(-0.5,0.,0.866025403784438));
#784=DIRECTION('ref_axis',(-0.866025403784438,1.6930529037425E-31,-0.5));
#785=DIRECTION('',(0.866025403784438,-1.6930529037425E-31,0.5));
#786=DIRECTION('',(0.,1.,-2.22044604925031E-16));
#787=DIRECTION('',(0.866025403784438,0.,0.5));
#788=DIRECTION('center_axis',(-2.13491744991808E-32,1.,-1.23259516440783E-32));
#789=DIRECTION('ref_axis',(0.5,0.,-0.866025403784438));
#790=DIRECTION('center_axis',(1.92296268638356E-16,1.,1.11022302462516E-16));
#791=DIRECTION('ref_axis',(-0.5,0.,0.866025403784438));
#792=DIRECTION('center_axis',(0.,1.,-2.22044604925031E-16));
#793=DIRECTION('ref_axis',(1.,0.,0.));
#794=DIRECTION('',(0.,-1.6930529037425E-31,-1.));
#795=DIRECTION('',(1.,0.,0.));
#796=DIRECTION('',(3.00834237876412E-5,-1.52497401873762E-15,0.999999999547494));
#797=DIRECTION('center_axis',(0.,1.,-2.22044604925031E-16));
#798=DIRECTION('ref_axis',(1.,0.,0.));
#799=DIRECTION('',(-0.866025403784439,-1.6930529037425E-31,0.5));
#800=DIRECTION('',(-0.5,0.,-0.866025403784439));
#801=DIRECTION('',(0.866010361680663,-1.52497401873762E-15,-0.50002605278298));
#802=DIRECTION('center_axis',(0.,1.,-2.22044604925031E-16));
#803=DIRECTION('ref_axis',(1.,0.,0.));
#804=DIRECTION('center_axis',(0.,-1.,2.22044604925031E-16));
#805=DIRECTION('ref_axis',(-1.,0.,0.));
#806=DIRECTION('center_axis',(0.,1.,-2.22044604925031E-16));
#807=DIRECTION('ref_axis',(1.,0.,0.));
#808=DIRECTION('center_axis',(0.,-1.,2.22044604925031E-16));
#809=DIRECTION('ref_axis',(1.,0.,0.));
#810=DIRECTION('',(0.,1.,-2.22044604925031E-16));
#811=DIRECTION('center_axis',(-9.75068177960017E-9,-1.,-1.68886762507036E-8));
#812=DIRECTION('ref_axis',(0.866025403784439,0.,-0.5));
#813=DIRECTION('center_axis',(-9.75068177960017E-9,-1.,-1.68886762507036E-8));
#814=DIRECTION('ref_axis',(0.866025403784439,0.,-0.5));
#815=DIRECTION('',(-9.75068177960017E-9,-1.,-1.68886762507036E-8));
#816=DIRECTION('center_axis',(2.13491744991808E-32,1.,-1.23259516440783E-32));
#817=DIRECTION('ref_axis',(0.5,0.,0.866025403784439));
#818=DIRECTION('center_axis',(9.75068177960017E-9,1.,1.68886762507036E-8));
#819=DIRECTION('ref_axis',(-0.5,1.95013635592003E-8,-0.866025403784439));
#820=DIRECTION('',(0.5,-1.95013635592003E-8,0.866025403784439));
#821=DIRECTION('',(-0.866025403784439,0.,0.5));
#822=DIRECTION('',(-0.5,1.95013635592003E-8,-0.866025403784439));
#823=DIRECTION('',(-0.866025403784439,0.,0.5));
#824=DIRECTION('center_axis',(0.5,0.,0.866025403784439));
#825=DIRECTION('ref_axis',(0.,1.,0.));
#826=DIRECTION('',(0.,-1.,0.));
#827=DIRECTION('',(0.,1.,0.));
#828=DIRECTION('',(-0.866025403784439,0.,0.5));
#829=DIRECTION('center_axis',(-0.866025403784439,0.,0.5));
#830=DIRECTION('ref_axis',(0.5,0.,0.866025403784439));
#831=DIRECTION('',(0.5,0.,0.866025403784439));
#832=DIRECTION('',(0.,-1.,0.));
#833=DIRECTION('center_axis',(0.,-1.,0.));
#834=DIRECTION('ref_axis',(0.5,0.,0.866025403784439));
#835=DIRECTION('center_axis',(0.,-1.,2.22044604925031E-16));
#836=DIRECTION('ref_axis',(1.,0.,0.));
#837=DIRECTION('',(0.,-1.,0.));
#838=DIRECTION('center_axis',(2.13491744991808E-32,1.,-1.23259516440783E-32));
#839=DIRECTION('ref_axis',(0.5,0.,0.866025403784439));
#840=DIRECTION('',(0.,-1.,0.));
#841=DIRECTION('center_axis',(-0.866025403784439,0.,0.5));
#842=DIRECTION('ref_axis',(-0.5,0.,-0.866025403784439));
#843=DIRECTION('',(0.,-1.,0.));
#844=DIRECTION('',(0.,-1.,0.));
#845=DIRECTION('center_axis',(0.50002605278298,0.,0.866010361680663));
#846=DIRECTION('ref_axis',(-0.866010361680663,1.52497401873762E-15,0.50002605278298));
#847=DIRECTION('',(-0.866010361680663,1.52497401873762E-15,0.50002605278298));
#848=DIRECTION('',(0.,-1.,2.22044604925031E-16));
#849=DIRECTION('center_axis',(-0.5,0.,-0.866025403784439));
#850=DIRECTION('ref_axis',(0.866025403784439,1.6930529037425E-31,-0.5));
#851=DIRECTION('',(0.,1.,-2.22044604925031E-16));
#852=DIRECTION('',(-0.866025403784439,0.,0.5));
#853=DIRECTION('center_axis',(2.13491744991808E-32,1.,-1.23259516440783E-32));
#854=DIRECTION('ref_axis',(0.5,0.,0.866025403784439));
#855=DIRECTION('center_axis',(0.,1.,-2.22044604925031E-16));
#856=DIRECTION('ref_axis',(1.,0.,0.));
#857=DIRECTION('center_axis',(0.,-1.,2.22044604925031E-16));
#858=DIRECTION('ref_axis',(1.,0.,0.));
#859=DIRECTION('center_axis',(0.,-1.,2.22044604925031E-16));
#860=DIRECTION('ref_axis',(-1.,0.,0.));
#861=DIRECTION('center_axis',(0.,-1.,2.22044604925031E-16));
#862=DIRECTION('ref_axis',(1.,0.,0.));
#863=DIRECTION('center_axis',(0.,-1.,2.22044604925031E-16));
#864=DIRECTION('ref_axis',(1.,0.,0.));
#865=DIRECTION('center_axis',(0.,1.,-2.22044604925031E-16));
#866=DIRECTION('ref_axis',(0.,2.22044604925031E-16,1.));
#867=DIRECTION('center_axis',(1.95013635592004E-8,-1.,0.));
#868=DIRECTION('ref_axis',(0.,0.,1.));
#869=DIRECTION('center_axis',(1.95013635592004E-8,-1.,0.));
#870=DIRECTION('ref_axis',(0.,0.,1.));
#871=DIRECTION('',(1.95013635592004E-8,-1.,0.));
#872=DIRECTION('center_axis',(0.,1.,2.46519032881566E-32));
#873=DIRECTION('ref_axis',(-1.,0.,0.));
#874=DIRECTION('center_axis',(-1.95013635592004E-8,1.,0.));
#875=DIRECTION('ref_axis',(1.,1.95013635592004E-8,0.));
#876=DIRECTION('',(-1.,-1.95013635592004E-8,0.));
#877=DIRECTION('',(0.,0.,-1.));
#878=DIRECTION('',(1.,1.95013635592003E-8,0.));
#879=DIRECTION('',(0.,0.,-1.));
#880=DIRECTION('center_axis',(-1.,0.,0.));
#881=DIRECTION('ref_axis',(0.,1.,0.));
#882=DIRECTION('',(0.,-1.,0.));
#883=DIRECTION('',(0.,1.,0.));
#884=DIRECTION('',(0.,0.,-1.));
#885=DIRECTION('center_axis',(0.,0.,-1.));
#886=DIRECTION('ref_axis',(-1.,0.,0.));
#887=DIRECTION('',(-1.,0.,0.));
#888=DIRECTION('',(0.,-1.,0.));
#889=DIRECTION('center_axis',(0.,-1.,0.));
#890=DIRECTION('ref_axis',(-1.,0.,0.));
#891=DIRECTION('',(0.,-1.,0.));
#892=DIRECTION('center_axis',(0.,1.,2.46519032881566E-32));
#893=DIRECTION('ref_axis',(-1.,0.,0.));
#894=DIRECTION('',(0.,-1.,0.));
#895=DIRECTION('center_axis',(0.,0.,-1.));
#896=DIRECTION('ref_axis',(1.,0.,0.));
#897=DIRECTION('',(0.,-1.,0.));
#898=DIRECTION('',(0.,-1.,0.));
#899=DIRECTION('center_axis',(-0.999999999547494,0.,3.00834237876412E-5));
#900=DIRECTION('ref_axis',(-3.00834237876412E-5,1.52497401873762E-15,-0.999999999547494));
#901=DIRECTION('',(-3.00834237876412E-5,1.52497401873762E-15,-0.999999999547494));
#902=DIRECTION('',(0.,-1.,2.22044604925031E-16));
#903=DIRECTION('center_axis',(1.,0.,0.));
#904=DIRECTION('ref_axis',(0.,1.6930529037425E-31,1.));
#905=DIRECTION('',(0.,0.,-1.));
#906=DIRECTION('center_axis',(0.,1.,2.46519032881566E-32));
#907=DIRECTION('ref_axis',(-1.,0.,0.));
#908=DIRECTION('center_axis',(0.,1.,-2.22044604925031E-16));
#909=DIRECTION('ref_axis',(-0.866024308704025,-1.11022723621205E-16,-0.500001896730118));
#910=DIRECTION('center_axis',(0.,1.,0.));
#911=DIRECTION('ref_axis',(-1.,0.,0.));
#912=DIRECTION('center_axis',(0.,-1.,0.));
#913=DIRECTION('ref_axis',(-1.,0.,0.));
#914=DIRECTION('',(0.,-1.,0.));
#915=DIRECTION('center_axis',(0.,1.,-2.22044604925031E-16));
#916=DIRECTION('ref_axis',(-1.,0.,0.));
#917=DIRECTION('center_axis',(0.,1.,0.));
#918=DIRECTION('ref_axis',(-1.,0.,0.));
#919=DIRECTION('center_axis',(0.,1.,0.));
#920=DIRECTION('ref_axis',(-1.,0.,0.));
#921=DIRECTION('',(0.,-1.,0.));
#922=DIRECTION('center_axis',(0.,1.,0.));
#923=DIRECTION('ref_axis',(-1.,0.,0.));
#924=DIRECTION('center_axis',(0.,-1.,2.22044604925031E-16));
#925=DIRECTION('ref_axis',(0.,2.22044604925031E-16,1.));
#926=DIRECTION('center_axis',(0.,-1.,2.22044604925031E-16));
#927=DIRECTION('ref_axis',(0.,2.22044604925031E-16,1.));
#928=DIRECTION('',(0.,-1.,2.22044604925031E-16));
#929=DIRECTION('center_axis',(0.,1.,-2.22044604925031E-16));
#930=DIRECTION('ref_axis',(1.,0.,0.));
#931=CARTESIAN_POINT('',(0.,0.,0.));
#932=CARTESIAN_POINT('Origin',(19.3372431110563,-7.50000004842877,11.1643625380718));
#933=CARTESIAN_POINT('',(20.7661850370513,-6.50000004842877,11.9893625211832));
#934=CARTESIAN_POINT('Origin',(19.337243120807,-6.50000004842877,11.1643625211832));
#935=CARTESIAN_POINT('',(20.7661850175499,-8.50000003217725,11.9893625549605));
#936=CARTESIAN_POINT('',(20.7661850273006,-7.50000004842877,11.9893625380718));
#937=CARTESIAN_POINT('Origin',(19.3372431013056,-8.5,11.1643625549605));
#938=CARTESIAN_POINT('Origin',(18.4281456206313,-6.50000009685755,7.77196558052136));
#939=CARTESIAN_POINT('',(15.9447924403854,-6.5,12.073259461845));
#940=CARTESIAN_POINT('',(18.4281456206313,-6.50000009685755,7.77196558052136));
#941=CARTESIAN_POINT('',(18.4281455791909,-6.50000009685755,7.77196565229824));
#942=CARTESIAN_POINT('',(20.2463406209827,-6.5,14.556759461845));
#943=CARTESIAN_POINT('',(15.9447924403854,-6.5,12.073259461845));
#944=CARTESIAN_POINT('',(22.7296938012286,-6.50000009685755,10.2554655805214));
#945=CARTESIAN_POINT('',(20.2463406209827,-6.5,14.556759461845));
#946=CARTESIAN_POINT('',(18.4281456206313,-6.50000009685755,7.77196558052136));
#947=CARTESIAN_POINT('Origin',(18.4281456206313,-8.5,7.77196558052136));
#948=CARTESIAN_POINT('',(18.4281456206313,-8.5,7.77196558052136));
#949=CARTESIAN_POINT('',(18.4281456206313,2.,7.77196558052136));
#950=CARTESIAN_POINT('',(22.7296938012286,-8.5,10.2554655805214));
#951=CARTESIAN_POINT('',(22.7296938012286,-8.5,10.2554655805214));
#952=CARTESIAN_POINT('',(18.4281456206313,-8.5,7.77196558052136));
#953=CARTESIAN_POINT('Origin',(21.4880172111056,-7.5,12.4061125211832));
#954=CARTESIAN_POINT('',(20.2463406209827,-8.5,14.556759461845));
#955=CARTESIAN_POINT('',(20.2463406209827,-8.5,14.556759461845));
#956=CARTESIAN_POINT('',(20.2463406209827,-8.5,14.556759461845));
#957=CARTESIAN_POINT('Origin',(0.,2.,0.));
#958=CARTESIAN_POINT('',(16.2437218518055,-3.86612004073615E-15,6.51087554797177));
#959=CARTESIAN_POINT('',(13.7603971910788,-3.88578058618805E-15,10.8120982766413));
#960=CARTESIAN_POINT('Origin',(0.,0.,0.));
#961=CARTESIAN_POINT('',(16.2437218518055,-8.50000000000001,6.51087554797177));
#962=CARTESIAN_POINT('',(16.2437218518055,2.,6.51087554797177));
#963=CARTESIAN_POINT('',(13.7603971910788,-8.5,10.8120982766413));
#964=CARTESIAN_POINT('Origin',(0.,-8.5,0.));
#965=CARTESIAN_POINT('',(13.7603971910788,2.,10.8120982766413));
#966=CARTESIAN_POINT('Origin',(18.4281456206313,2.,7.77196558052136));
#967=CARTESIAN_POINT('',(18.4281456206313,2.,7.77196558052136));
#968=CARTESIAN_POINT('',(18.4281456206313,2.,7.77196558052136));
#969=CARTESIAN_POINT('',(15.9447924403854,2.,12.073259461845));
#970=CARTESIAN_POINT('',(18.4281456206313,2.,7.77196558052136));
#971=CARTESIAN_POINT('',(15.9447924403854,2.,12.073259461845));
#972=CARTESIAN_POINT('Origin',(16.2437218518055,2.,6.51087554797177));
#973=CARTESIAN_POINT('',(16.2437218518055,2.,6.51087554797177));
#974=CARTESIAN_POINT('',(18.4281456206313,2.,7.77196558052136));
#975=CARTESIAN_POINT('',(18.4281456206313,-8.5,7.77196558052136));
#976=CARTESIAN_POINT('',(16.2437218518055,1.,6.51087554797177));
#977=CARTESIAN_POINT('Origin',(15.9447924403854,2.,12.073259461845));
#978=CARTESIAN_POINT('',(13.7603971910788,2.,10.8120982766413));
#979=CARTESIAN_POINT('',(13.7603971910788,2.,10.8120982766413));
#980=CARTESIAN_POINT('',(13.7603971910788,1.,10.8120982766413));
#981=CARTESIAN_POINT('',(15.9447924403854,-8.5,12.073259461845));
#982=CARTESIAN_POINT('Origin',(16.0942714058551,-8.5,9.29203192858132));
#983=CARTESIAN_POINT('Origin',(3.84592537276713E-16,2.,2.22044604925031E-16));
#984=CARTESIAN_POINT('',(2.48335318024586,2.,-17.322902671959));
#985=CARTESIAN_POINT('Origin',(0.,2.,-4.44089209850063E-16));
#986=CARTESIAN_POINT('',(2.48335318024586,2.,-19.8452250423663));
#987=CARTESIAN_POINT('',(2.48335318024586,2.,-17.322902671959));
#988=CARTESIAN_POINT('',(-2.48335318024587,2.,-19.8452250423663));
#989=CARTESIAN_POINT('',(-2.48335318024587,2.,-19.8452250423663));
#990=CARTESIAN_POINT('',(-2.48327730048028,2.,-17.3229135496578));
#991=CARTESIAN_POINT('',(-2.48335318024587,2.,-19.8452250423663));
#992=CARTESIAN_POINT('',(-16.2437503713247,2.,6.51080439531768));
#993=CARTESIAN_POINT('Origin',(0.,2.,-4.44089209850063E-16));
#994=CARTESIAN_POINT('',(-18.4281456206313,2.,7.77196558052136));
#995=CARTESIAN_POINT('',(-16.2437503713247,2.,6.51080439531768));
#996=CARTESIAN_POINT('',(-15.9447924403854,2.,12.073259461845));
#997=CARTESIAN_POINT('',(-15.9447924403854,2.,12.073259461845));
#998=CARTESIAN_POINT('',(-13.7604445513252,2.,10.8120380016861));
#999=CARTESIAN_POINT('',(-15.9447924403854,2.,12.073259461845));
#1000=CARTESIAN_POINT('Origin',(0.,2.,-4.44089209850063E-16));
#1001=CARTESIAN_POINT('',(4.575,2.,-5.60275910609914E-16));
#1002=CARTESIAN_POINT('Origin',(-6.82180070690891E-16,2.,0.));
#1003=CARTESIAN_POINT('Origin',(0.,1.,-2.22044604925031E-16));
#1004=CARTESIAN_POINT('',(2.48335318024586,-3.88578058618805E-15,-17.322902671959));
#1005=CARTESIAN_POINT('Origin',(0.,0.,0.));
#1006=CARTESIAN_POINT('',(2.48335318024586,0.999999999999996,-17.322902671959));
#1007=CARTESIAN_POINT('Origin',(-19.3372431305577,-7.50000004842877,11.1643625042945));
#1008=CARTESIAN_POINT('',(-20.7661850370513,-6.50000004842877,11.9893625211832));
#1009=CARTESIAN_POINT('Origin',(-19.337243120807,-6.50000004842877,11.1643625211832));
#1010=CARTESIAN_POINT('',(-20.7661850565527,-8.50000003217725,11.9893624874058));
#1011=CARTESIAN_POINT('',(-20.766185046802,-7.50000004842877,11.9893625042945));
#1012=CARTESIAN_POINT('Origin',(-19.3372431403084,-8.5,11.1643624874058));
#1013=CARTESIAN_POINT('Origin',(-15.9447924403854,-6.50000009685755,12.073259461845));
#1014=CARTESIAN_POINT('',(-18.4281456206313,-6.5,7.77196558052136));
#1015=CARTESIAN_POINT('',(-15.9447924403854,-6.50000009685755,12.073259461845));
#1016=CARTESIAN_POINT('',(-15.9447924818258,-6.50000009685755,12.0732593900681));
#1017=CARTESIAN_POINT('',(-22.7296938012286,-6.5,10.2554655805214));
#1018=CARTESIAN_POINT('',(-18.4281456206313,-6.5,7.77196558052136));
#1019=CARTESIAN_POINT('',(-20.2463406209827,-6.50000009685755,14.5567594618449));
#1020=CARTESIAN_POINT('',(-22.7296938012286,-6.5,10.2554655805214));
#1021=CARTESIAN_POINT('',(-15.9447924403854,-6.50000009685755,12.073259461845));
#1022=CARTESIAN_POINT('Origin',(-15.9447924403854,-8.5,12.073259461845));
#1023=CARTESIAN_POINT('',(-15.9447924403854,-8.5,12.073259461845));
#1024=CARTESIAN_POINT('',(-15.9447924403854,2.,12.073259461845));
#1025=CARTESIAN_POINT('',(-20.2463406209827,-8.5,14.5567594618449));
#1026=CARTESIAN_POINT('',(-20.2463406209827,-8.5,14.5567594618449));
#1027=CARTESIAN_POINT('',(-15.9447924403854,-8.5,12.073259461845));
#1028=CARTESIAN_POINT('Origin',(-21.4880172111056,-7.5,12.4061125211832));
#1029=CARTESIAN_POINT('',(-22.7296938012286,-8.5,10.2554655805214));
#1030=CARTESIAN_POINT('',(-22.7296938012286,-8.5,10.2554655805214));
#1031=CARTESIAN_POINT('',(-22.7296938012286,-8.5,10.2554655805214));
#1032=CARTESIAN_POINT('Origin',(0.,2.,0.));
#1033=CARTESIAN_POINT('',(-13.7604445513252,-3.86612004073615E-15,10.8120380016861));
#1034=CARTESIAN_POINT('',(-16.2437503713247,-3.88578058618805E-15,6.51080439531768));
#1035=CARTESIAN_POINT('Origin',(0.,0.,0.));
#1036=CARTESIAN_POINT('',(-13.7604445513252,-8.50000000000001,10.8120380016861));
#1037=CARTESIAN_POINT('',(-13.7604445513252,2.,10.8120380016861));
#1038=CARTESIAN_POINT('',(-16.2437503713247,-8.5,6.51080439531768));
#1039=CARTESIAN_POINT('Origin',(0.,-8.5,0.));
#1040=CARTESIAN_POINT('',(-16.2437503713247,2.,6.51080439531768));
#1041=CARTESIAN_POINT('Origin',(-15.9447924403854,2.,12.073259461845));
#1042=CARTESIAN_POINT('',(-15.9447924403854,2.,12.073259461845));
#1043=CARTESIAN_POINT('',(-18.4281456206313,2.,7.77196558052136));
#1044=CARTESIAN_POINT('Origin',(-13.7604445513252,2.,10.8120380016861));
#1045=CARTESIAN_POINT('',(-15.9447924403854,-8.5,12.073259461845));
#1046=CARTESIAN_POINT('',(-13.7604445513252,1.,10.8120380016861));
#1047=CARTESIAN_POINT('Origin',(-18.4281456206313,2.,7.77196558052136));
#1048=CARTESIAN_POINT('',(-16.2437503713247,1.,6.51080439531768));
#1049=CARTESIAN_POINT('',(-18.4281456206313,-8.5,7.77196558052136));
#1050=CARTESIAN_POINT('Origin',(-16.0942714058551,-8.5,9.29203192858131));
#1051=CARTESIAN_POINT('Origin',(0.,1.,-2.22044604925031E-16));
#1052=CARTESIAN_POINT('Origin',(0.,0.,0.));
#1053=CARTESIAN_POINT('Origin',(0.,0.,0.));
#1054=CARTESIAN_POINT('',(-2.48327730048028,-3.86612004073615E-15,-17.3229135496578));
#1055=CARTESIAN_POINT('Origin',(0.,0.,0.));
#1056=CARTESIAN_POINT('Origin',(0.,0.,0.));
#1057=CARTESIAN_POINT('',(-5.59715390776155E-16,-2.77555756156289E-16,-1.));
#1058=CARTESIAN_POINT('Origin',(-6.82180070690891E-16,0.,0.));
#1059=CARTESIAN_POINT('Origin',(1.95013599509755E-8,-7.50000004842877,-22.3287250423663));
#1060=CARTESIAN_POINT('',(-3.40615811424446E-15,-6.50000004842877,-23.9787250423663));
#1061=CARTESIAN_POINT('Origin',(-3.60822483003176E-15,-6.50000004842877,
-22.3287250423663));
#1062=CARTESIAN_POINT('',(3.90027233953157E-8,-8.50000003217725,-23.9787250423663));
#1063=CARTESIAN_POINT('',(1.95013601530422E-8,-7.50000004842877,-23.9787250423663));
#1064=CARTESIAN_POINT('Origin',(3.90027225657488E-8,-8.5,-22.3287250423663));
#1065=CARTESIAN_POINT('Origin',(-2.48335318024587,-6.50000009685755,-19.8452250423663));
#1066=CARTESIAN_POINT('',(2.48335318024586,-6.5,-19.8452250423663));
#1067=CARTESIAN_POINT('',(-2.48335318024587,-6.50000009685755,-19.8452250423663));
#1068=CARTESIAN_POINT('',(-2.48335309736507,-6.50000009685755,-19.8452250423663));
#1069=CARTESIAN_POINT('',(2.48335318024586,-6.5,-24.8122250423663));
#1070=CARTESIAN_POINT('',(2.48335318024586,-6.5,-19.8452250423663));
#1071=CARTESIAN_POINT('',(-2.48335318024587,-6.50000009685755,-24.8122250423663));
#1072=CARTESIAN_POINT('',(2.48335318024586,-6.5,-24.8122250423663));
#1073=CARTESIAN_POINT('',(-2.48335318024587,-6.50000009685755,-19.8452250423663));
#1074=CARTESIAN_POINT('Origin',(-2.48335318024587,-8.5,-19.8452250423663));
#1075=CARTESIAN_POINT('',(-2.48335318024587,-8.5,-19.8452250423663));
#1076=CARTESIAN_POINT('',(-2.48335318024587,2.,-19.8452250423663));
#1077=CARTESIAN_POINT('',(-2.48335318024587,-8.5,-24.8122250423663));
#1078=CARTESIAN_POINT('',(-2.48335318024587,-8.5,-24.8122250423663));
#1079=CARTESIAN_POINT('',(-2.48335318024587,-8.5,-19.8452250423663));
#1080=CARTESIAN_POINT('Origin',(-3.60822483003176E-15,-7.5,-24.8122250423663));
#1081=CARTESIAN_POINT('',(2.48335318024586,-8.5,-24.8122250423663));
#1082=CARTESIAN_POINT('',(2.48335318024586,-8.5,-24.8122250423663));
#1083=CARTESIAN_POINT('',(2.48335318024586,-8.5,-24.8122250423663));
#1084=CARTESIAN_POINT('Origin',(0.,2.,0.));
#1085=CARTESIAN_POINT('',(-2.48327730048028,-8.50000000000001,-17.3229135496578));
#1086=CARTESIAN_POINT('',(-2.48327730048028,2.,-17.3229135496578));
#1087=CARTESIAN_POINT('',(2.48335318024586,-8.5,-17.322902671959));
#1088=CARTESIAN_POINT('Origin',(0.,-8.5,0.));
#1089=CARTESIAN_POINT('',(2.48335318024586,2.,-17.322902671959));
#1090=CARTESIAN_POINT('Origin',(-2.48335318024587,2.,-19.8452250423663));
#1091=CARTESIAN_POINT('',(-2.48335318024587,2.,-19.8452250423663));
#1092=CARTESIAN_POINT('',(2.48335318024586,2.,-19.8452250423663));
#1093=CARTESIAN_POINT('Origin',(-2.48327730048028,2.,-17.3229135496578));
#1094=CARTESIAN_POINT('',(-2.48335318024587,-8.5,-19.8452250423663));
#1095=CARTESIAN_POINT('',(-2.48327730048028,0.999999999999996,-17.3229135496578));
#1096=CARTESIAN_POINT('Origin',(2.48335318024586,2.,-19.8452250423663));
#1097=CARTESIAN_POINT('',(2.48335318024586,-8.5,-19.8452250423663));
#1098=CARTESIAN_POINT('Origin',(-3.33066907387547E-15,-8.5,-18.5840638571626));
#1099=CARTESIAN_POINT('Origin',(0.,1.,-2.22044604925031E-16));
#1100=CARTESIAN_POINT('Origin',(-6.82180070690891E-16,2.,0.));
#1101=CARTESIAN_POINT('',(3.575,17.,-4.37811230695179E-16));
#1102=CARTESIAN_POINT('Origin',(-6.82180070690891E-16,17.,0.));
#1103=CARTESIAN_POINT('',(3.575,2.,-4.37811230695179E-16));
#1104=CARTESIAN_POINT('',(3.575,2.,-4.37811230695179E-16));
#1105=CARTESIAN_POINT('Origin',(-6.82180070690891E-16,2.,0.));
#1106=CARTESIAN_POINT('Origin',(-6.82180070690891E-16,2.,0.));
#1107=CARTESIAN_POINT('',(4.575,17.,-5.60275910609914E-16));
#1108=CARTESIAN_POINT('Origin',(-6.82180070690891E-16,17.,0.));
#1109=CARTESIAN_POINT('',(4.575,2.,-5.60275910609914E-16));
#1110=CARTESIAN_POINT('Origin',(-5.55111512312578E-16,17.,0.));
#1111=CARTESIAN_POINT('Origin',(-6.82180070690891E-16,1.,-2.22044604925031E-16));
#1112=CARTESIAN_POINT('',(-5.59715390776155E-16,2.,-1.));
#1113=CARTESIAN_POINT('Origin',(-6.82180070690891E-16,2.,-4.44089209850063E-16));
#1114=CARTESIAN_POINT('',(-5.59715390776155E-16,1.,-1.));
#1115=CARTESIAN_POINT('Origin',(0.,2.,-4.44089209850063E-16));
#1116=UNCERTAINTY_MEASURE_WITH_UNIT(LENGTH_MEASURE(0.01),#1120,
'DISTANCE_ACCURACY_VALUE',
'Maximum model space distance between geometric entities at asserted c
onnectivities');
#1117=UNCERTAINTY_MEASURE_WITH_UNIT(LENGTH_MEASURE(0.01),#1120,
'DISTANCE_ACCURACY_VALUE',
'Maximum model space distance between geometric entities at asserted c
onnectivities');
#1118=(
GEOMETRIC_REPRESENTATION_CONTEXT(3)
GLOBAL_UNCERTAINTY_ASSIGNED_CONTEXT((#1116))
GLOBAL_UNIT_ASSIGNED_CONTEXT((#1120,#1122,#1123))
REPRESENTATION_CONTEXT('','3D')
);
#1119=(
GEOMETRIC_REPRESENTATION_CONTEXT(3)
GLOBAL_UNCERTAINTY_ASSIGNED_CONTEXT((#1117))
GLOBAL_UNIT_ASSIGNED_CONTEXT((#1120,#1122,#1123))
REPRESENTATION_CONTEXT('','3D')
);
#1120=(
LENGTH_UNIT()
NAMED_UNIT(*)
SI_UNIT(.MILLI.,.METRE.)
);
#1121=(
LENGTH_UNIT()
NAMED_UNIT(*)
SI_UNIT($,.METRE.)
);
#1122=(
NAMED_UNIT(*)
PLANE_ANGLE_UNIT()
SI_UNIT($,.RADIAN.)
);
#1123=(
NAMED_UNIT(*)
SI_UNIT($,.STERADIAN.)
SOLID_ANGLE_UNIT()
);
#1124=SHAPE_DEFINITION_REPRESENTATION(#1125,#1126);
#1125=PRODUCT_DEFINITION_SHAPE('',$,#1128);
#1126=SHAPE_REPRESENTATION('',(#679),#1118);
#1127=PRODUCT_DEFINITION_CONTEXT('part definition',#1132,'design');
#1128=PRODUCT_DEFINITION('2026-09-05-18-12-27-884','(Kaydedilmedi)',#1129,
#1127);
#1129=PRODUCT_DEFINITION_FORMATION('',$,#1134);
#1130=PRODUCT_RELATED_PRODUCT_CATEGORY('(Kaydedilmedi)',
'(Kaydedilmedi)',(#1134));
#1131=APPLICATION_PROTOCOL_DEFINITION('international standard',
'automotive_design',2009,#1132);
#1132=APPLICATION_CONTEXT(
'Core Data for Automotive Mechanical Design Process');
#1133=PRODUCT_CONTEXT('part definition',#1132,'mechanical');
#1134=PRODUCT('2026-09-05-18-12-27-884','(Kaydedilmedi)',$,(#1133));
#1135=PRESENTATION_STYLE_ASSIGNMENT((#1136));
#1136=SURFACE_STYLE_USAGE(.BOTH.,#1137);
#1137=SURFACE_SIDE_STYLE('',(#1138));
#1138=SURFACE_STYLE_FILL_AREA(#1139);
#1139=FILL_AREA_STYLE('\X\C7elik - Saten',(#1140));
#1140=FILL_AREA_STYLE_COLOUR('\X\C7elik - Saten',#1141);
#1141=COLOUR_RGB('\X\C7elik - Saten',0.627450980392157,0.627450980392157,
0.627450980392157);
ENDSEC;
END-ISO-10303-21;
