ISO-10303-21;
HEADER;
/* Generated by software containing ST-Developer
 * from STEP Tools, Inc. (www.steptools.com) 
 */

FILE_DESCRIPTION(
/* description */ (''),
/* implementation_level */ '2;1');

FILE_NAME(
/* name */ 'impeller_bracket.step',
/* time_stamp */ '2026-09-08T15:48:56+03:00',
/* author */ (''),
/* organization */ (''),
/* preprocessor_version */ 'ST-DEVELOPER v20.2',
/* originating_system */ 'Autodesk Translation Framework v15.15.0.0',
/* authorisation */ '');

FILE_SCHEMA (('AUTOMOTIVE_DESIGN { 1 0 10303 214 3 1 1 }'));
ENDSEC;

DATA;
#10=MECHANICAL_DESIGN_GEOMETRIC_PRESENTATION_REPRESENTATION('',(#13),#1266);
#11=SHAPE_REPRESENTATION_RELATIONSHIP('SRR','None',#1273,#12);
#12=ADVANCED_BREP_SHAPE_REPRESENTATION('',(#14),#1265);
#13=STYLED_ITEM('',(#1283),#14);
#14=MANIFOLD_SOLID_BREP('G\X\F6vde2',#753);
#15=CONICAL_SURFACE('',#780,1.8,0.785398163397448);
#16=CONICAL_SURFACE('',#798,1.8,0.785398163397448);
#17=CONICAL_SURFACE('',#829,1.8,0.785398163397448);
#18=CYLINDRICAL_SURFACE('',#776,17.5);
#19=CYLINDRICAL_SURFACE('',#783,1.6);
#20=CYLINDRICAL_SURFACE('',#788,17.5);
#21=CYLINDRICAL_SURFACE('',#794,17.5);
#22=CYLINDRICAL_SURFACE('',#801,1.6);
#23=CYLINDRICAL_SURFACE('',#806,17.5);
#24=CYLINDRICAL_SURFACE('',#818,1.);
#25=CYLINDRICAL_SURFACE('',#822,4.575);
#26=CYLINDRICAL_SURFACE('',#823,3.575);
#27=CYLINDRICAL_SURFACE('',#825,17.5);
#28=CYLINDRICAL_SURFACE('',#826,17.5);
#29=CYLINDRICAL_SURFACE('',#832,1.6);
#30=FACE_BOUND('',#87,.T.);
#31=FACE_BOUND('',#90,.T.);
#32=FACE_BOUND('',#94,.T.);
#33=FACE_BOUND('',#104,.T.);
#34=FACE_BOUND('',#108,.T.);
#35=FACE_BOUND('',#114,.T.);
#36=FACE_BOUND('',#118,.T.);
#37=FACE_BOUND('',#121,.T.);
#38=FACE_BOUND('',#128,.T.);
#39=FACE_BOUND('',#132,.T.);
#40=FACE_OUTER_BOUND('',#83,.T.);
#41=FACE_OUTER_BOUND('',#84,.T.);
#42=FACE_OUTER_BOUND('',#85,.T.);
#43=FACE_OUTER_BOUND('',#86,.T.);
#44=FACE_OUTER_BOUND('',#88,.T.);
#45=FACE_OUTER_BOUND('',#89,.T.);
#46=FACE_OUTER_BOUND('',#91,.T.);
#47=FACE_OUTER_BOUND('',#92,.T.);
#48=FACE_OUTER_BOUND('',#93,.T.);
#49=FACE_OUTER_BOUND('',#95,.T.);
#50=FACE_OUTER_BOUND('',#96,.T.);
#51=FACE_OUTER_BOUND('',#97,.T.);
#52=FACE_OUTER_BOUND('',#98,.T.);
#53=FACE_OUTER_BOUND('',#99,.T.);
#54=FACE_OUTER_BOUND('',#100,.T.);
#55=FACE_OUTER_BOUND('',#101,.T.);
#56=FACE_OUTER_BOUND('',#102,.T.);
#57=FACE_OUTER_BOUND('',#103,.T.);
#58=FACE_OUTER_BOUND('',#105,.T.);
#59=FACE_OUTER_BOUND('',#106,.T.);
#60=FACE_OUTER_BOUND('',#107,.T.);
#61=FACE_OUTER_BOUND('',#109,.T.);
#62=FACE_OUTER_BOUND('',#110,.T.);
#63=FACE_OUTER_BOUND('',#111,.T.);
#64=FACE_OUTER_BOUND('',#112,.T.);
#65=FACE_OUTER_BOUND('',#113,.T.);
#66=FACE_OUTER_BOUND('',#115,.T.);
#67=FACE_OUTER_BOUND('',#116,.T.);
#68=FACE_OUTER_BOUND('',#117,.T.);
#69=FACE_OUTER_BOUND('',#119,.T.);
#70=FACE_OUTER_BOUND('',#120,.T.);
#71=FACE_OUTER_BOUND('',#122,.T.);
#72=FACE_OUTER_BOUND('',#123,.T.);
#73=FACE_OUTER_BOUND('',#124,.T.);
#74=FACE_OUTER_BOUND('',#125,.T.);
#75=FACE_OUTER_BOUND('',#126,.T.);
#76=FACE_OUTER_BOUND('',#127,.T.);
#77=FACE_OUTER_BOUND('',#129,.T.);
#78=FACE_OUTER_BOUND('',#130,.T.);
#79=FACE_OUTER_BOUND('',#131,.T.);
#80=FACE_OUTER_BOUND('',#133,.T.);
#81=FACE_OUTER_BOUND('',#134,.T.);
#82=FACE_OUTER_BOUND('',#135,.T.);
#83=EDGE_LOOP('',(#478,#479,#480,#481));
#84=EDGE_LOOP('',(#482,#483,#484,#485));
#85=EDGE_LOOP('',(#486,#487,#488,#489,#490,#491));
#86=EDGE_LOOP('',(#492,#493,#494,#495,#496,#497,#498,#499,#500,#501,#502,
#503));
#87=EDGE_LOOP('',(#504));
#88=EDGE_LOOP('',(#505,#506,#507,#508));
#89=EDGE_LOOP('',(#509,#510,#511,#512));
#90=EDGE_LOOP('',(#513));
#91=EDGE_LOOP('',(#514,#515,#516,#517));
#92=EDGE_LOOP('',(#518,#519,#520,#521));
#93=EDGE_LOOP('',(#522,#523,#524,#525));
#94=EDGE_LOOP('',(#526));
#95=EDGE_LOOP('',(#527,#528,#529,#530));
#96=EDGE_LOOP('',(#531,#532,#533,#534));
#97=EDGE_LOOP('',(#535,#536,#537,#538,#539,#540,#541,#542));
#98=EDGE_LOOP('',(#543,#544,#545,#546));
#99=EDGE_LOOP('',(#547,#548,#549,#550));
#100=EDGE_LOOP('',(#551,#552,#553,#554));
#101=EDGE_LOOP('',(#555,#556,#557,#558,#559,#560));
#102=EDGE_LOOP('',(#561,#562,#563,#564));
#103=EDGE_LOOP('',(#565,#566,#567,#568));
#104=EDGE_LOOP('',(#569));
#105=EDGE_LOOP('',(#570,#571,#572,#573));
#106=EDGE_LOOP('',(#574,#575,#576,#577));
#107=EDGE_LOOP('',(#578,#579,#580,#581));
#108=EDGE_LOOP('',(#582));
#109=EDGE_LOOP('',(#583,#584,#585,#586));
#110=EDGE_LOOP('',(#587,#588,#589,#590));
#111=EDGE_LOOP('',(#591,#592,#593,#594,#595,#596,#597,#598));
#112=EDGE_LOOP('',(#599,#600,#601,#602));
#113=EDGE_LOOP('',(#603,#604,#605,#606,#607,#608));
#114=EDGE_LOOP('',(#609));
#115=EDGE_LOOP('',(#610,#611,#612,#613));
#116=EDGE_LOOP('',(#614,#615,#616,#617));
#117=EDGE_LOOP('',(#618));
#118=EDGE_LOOP('',(#619));
#119=EDGE_LOOP('',(#620,#621,#622,#623));
#120=EDGE_LOOP('',(#624));
#121=EDGE_LOOP('',(#625));
#122=EDGE_LOOP('',(#626,#627,#628,#629));
#123=EDGE_LOOP('',(#630,#631,#632,#633));
#124=EDGE_LOOP('',(#634,#635,#636,#637,#638,#639));
#125=EDGE_LOOP('',(#640,#641,#642,#643));
#126=EDGE_LOOP('',(#644,#645,#646,#647));
#127=EDGE_LOOP('',(#648,#649,#650,#651));
#128=EDGE_LOOP('',(#652));
#129=EDGE_LOOP('',(#653,#654,#655,#656));
#130=EDGE_LOOP('',(#657,#658,#659,#660));
#131=EDGE_LOOP('',(#661,#662,#663,#664));
#132=EDGE_LOOP('',(#665));
#133=EDGE_LOOP('',(#666,#667,#668,#669));
#134=EDGE_LOOP('',(#670,#671,#672,#673));
#135=EDGE_LOOP('',(#674,#675,#676,#677,#678,#679,#680,#681));
#136=CIRCLE('',#768,17.5);
#137=CIRCLE('',#772,17.5);
#138=CIRCLE('',#773,17.5);
#139=CIRCLE('',#774,17.5);
#140=CIRCLE('',#775,4.575);
#141=CIRCLE('',#777,17.5);
#142=CIRCLE('',#779,1.6);
#143=CIRCLE('',#781,2.);
#144=CIRCLE('',#782,1.6);
#145=CIRCLE('',#789,17.5);
#146=CIRCLE('',#791,17.5);
#147=CIRCLE('',#795,17.5);
#148=CIRCLE('',#797,1.6);
#149=CIRCLE('',#799,2.);
#150=CIRCLE('',#800,1.6);
#151=CIRCLE('',#807,17.5);
#152=CIRCLE('',#809,17.5);
#153=CIRCLE('',#810,17.5);
#154=CIRCLE('',#811,1.);
#155=CIRCLE('',#813,17.5);
#156=CIRCLE('',#816,3.575);
#157=CIRCLE('',#817,1.);
#158=CIRCLE('',#820,4.575);
#159=CIRCLE('',#821,3.575);
#160=CIRCLE('',#828,1.6);
#161=CIRCLE('',#830,2.);
#162=CIRCLE('',#831,1.6);
#163=LINE('',#1058,#238);
#164=LINE('',#1060,#239);
#165=LINE('',#1063,#240);
#166=LINE('',#1067,#241);
#167=LINE('',#1069,#242);
#168=LINE('',#1071,#243);
#169=LINE('',#1072,#244);
#170=LINE('',#1075,#245);
#171=LINE('',#1077,#246);
#172=LINE('',#1078,#247);
#173=LINE('',#1079,#248);
#174=LINE('',#1082,#249);
#175=LINE('',#1086,#250);
#176=LINE('',#1088,#251);
#177=LINE('',#1090,#252);
#178=LINE('',#1094,#253);
#179=LINE('',#1096,#254);
#180=LINE('',#1098,#255);
#181=LINE('',#1104,#256);
#182=LINE('',#1108,#257);
#183=LINE('',#1110,#258);
#184=LINE('',#1111,#259);
#185=LINE('',#1118,#260);
#186=LINE('',#1121,#261);
#187=LINE('',#1124,#262);
#188=LINE('',#1126,#263);
#189=LINE('',#1127,#264);
#190=LINE('',#1129,#265);
#191=LINE('',#1131,#266);
#192=LINE('',#1133,#267);
#193=LINE('',#1137,#268);
#194=LINE('',#1141,#269);
#195=LINE('',#1143,#270);
#196=LINE('',#1146,#271);
#197=LINE('',#1150,#272);
#198=LINE('',#1151,#273);
#199=LINE('',#1152,#274);
#200=LINE('',#1155,#275);
#201=LINE('',#1156,#276);
#202=LINE('',#1157,#277);
#203=LINE('',#1160,#278);
#204=LINE('',#1164,#279);
#205=LINE('',#1166,#280);
#206=LINE('',#1167,#281);
#207=LINE('',#1174,#282);
#208=LINE('',#1177,#283);
#209=LINE('',#1180,#284);
#210=LINE('',#1182,#285);
#211=LINE('',#1183,#286);
#212=LINE('',#1185,#287);
#213=LINE('',#1187,#288);
#214=LINE('',#1189,#289);
#215=LINE('',#1201,#290);
#216=LINE('',#1203,#291);
#217=LINE('',#1206,#292);
#218=LINE('',#1210,#293);
#219=LINE('',#1211,#294);
#220=LINE('',#1212,#295);
#221=LINE('',#1219,#296);
#222=LINE('',#1226,#297);
#223=LINE('',#1228,#298);
#224=LINE('',#1230,#299);
#225=LINE('',#1231,#300);
#226=LINE('',#1232,#301);
#227=LINE('',#1235,#302);
#228=LINE('',#1238,#303);
#229=LINE('',#1240,#304);
#230=LINE('',#1241,#305);
#231=LINE('',#1248,#306);
#232=LINE('',#1251,#307);
#233=LINE('',#1254,#308);
#234=LINE('',#1256,#309);
#235=LINE('',#1257,#310);
#236=LINE('',#1259,#311);
#237=LINE('',#1261,#312);
#238=VECTOR('',#841,10.);
#239=VECTOR('',#842,10.);
#240=VECTOR('',#845,10.);
#241=VECTOR('',#848,10.);
#242=VECTOR('',#849,10.);
#243=VECTOR('',#850,10.);
#244=VECTOR('',#851,10.);
#245=VECTOR('',#854,10.);
#246=VECTOR('',#855,10.);
#247=VECTOR('',#856,10.);
#248=VECTOR('',#857,10.);
#249=VECTOR('',#860,10.);
#250=VECTOR('',#863,10.);
#251=VECTOR('',#864,10.);
#252=VECTOR('',#865,10.);
#253=VECTOR('',#868,10.);
#254=VECTOR('',#869,10.);
#255=VECTOR('',#870,10.);
#256=VECTOR('',#877,10.);
#257=VECTOR('',#882,10.);
#258=VECTOR('',#883,10.);
#259=VECTOR('',#884,10.);
#260=VECTOR('',#891,1.8);
#261=VECTOR('',#896,1.6);
#262=VECTOR('',#899,10.);
#263=VECTOR('',#900,10.);
#264=VECTOR('',#901,10.);
#265=VECTOR('',#904,10.);
#266=VECTOR('',#907,10.);
#267=VECTOR('',#910,10.);
#268=VECTOR('',#915,10.);
#269=VECTOR('',#918,10.);
#270=VECTOR('',#919,10.);
#271=VECTOR('',#922,10.);
#272=VECTOR('',#925,10.);
#273=VECTOR('',#926,10.);
#274=VECTOR('',#927,10.);
#275=VECTOR('',#930,10.);
#276=VECTOR('',#931,10.);
#277=VECTOR('',#932,10.);
#278=VECTOR('',#935,10.);
#279=VECTOR('',#940,10.);
#280=VECTOR('',#941,10.);
#281=VECTOR('',#942,10.);
#282=VECTOR('',#949,1.8);
#283=VECTOR('',#954,1.6);
#284=VECTOR('',#957,10.);
#285=VECTOR('',#958,10.);
#286=VECTOR('',#959,10.);
#287=VECTOR('',#962,10.);
#288=VECTOR('',#965,10.);
#289=VECTOR('',#968,10.);
#290=VECTOR('',#983,10.);
#291=VECTOR('',#984,10.);
#292=VECTOR('',#987,10.);
#293=VECTOR('',#990,10.);
#294=VECTOR('',#991,10.);
#295=VECTOR('',#992,10.);
#296=VECTOR('',#1001,1.);
#297=VECTOR('',#1010,4.575);
#298=VECTOR('',#1013,3.575);
#299=VECTOR('',#1016,10.);
#300=VECTOR('',#1017,10.);
#301=VECTOR('',#1018,10.);
#302=VECTOR('',#1023,10.);
#303=VECTOR('',#1026,10.);
#304=VECTOR('',#1027,10.);
#305=VECTOR('',#1028,10.);
#306=VECTOR('',#1035,1.8);
#307=VECTOR('',#1040,1.6);
#308=VECTOR('',#1043,10.);
#309=VECTOR('',#1044,10.);
#310=VECTOR('',#1045,10.);
#311=VECTOR('',#1048,10.);
#312=VECTOR('',#1051,10.);
#313=VERTEX_POINT('',#1056);
#314=VERTEX_POINT('',#1057);
#315=VERTEX_POINT('',#1059);
#316=VERTEX_POINT('',#1061);
#317=VERTEX_POINT('',#1065);
#318=VERTEX_POINT('',#1066);
#319=VERTEX_POINT('',#1068);
#320=VERTEX_POINT('',#1070);
#321=VERTEX_POINT('',#1074);
#322=VERTEX_POINT('',#1076);
#323=VERTEX_POINT('',#1081);
#324=VERTEX_POINT('',#1083);
#325=VERTEX_POINT('',#1085);
#326=VERTEX_POINT('',#1087);
#327=VERTEX_POINT('',#1089);
#328=VERTEX_POINT('',#1091);
#329=VERTEX_POINT('',#1093);
#330=VERTEX_POINT('',#1095);
#331=VERTEX_POINT('',#1097);
#332=VERTEX_POINT('',#1100);
#333=VERTEX_POINT('',#1103);
#334=VERTEX_POINT('',#1107);
#335=VERTEX_POINT('',#1109);
#336=VERTEX_POINT('',#1112);
#337=VERTEX_POINT('',#1115);
#338=VERTEX_POINT('',#1117);
#339=VERTEX_POINT('',#1123);
#340=VERTEX_POINT('',#1125);
#341=VERTEX_POINT('',#1135);
#342=VERTEX_POINT('',#1139);
#343=VERTEX_POINT('',#1140);
#344=VERTEX_POINT('',#1142);
#345=VERTEX_POINT('',#1144);
#346=VERTEX_POINT('',#1148);
#347=VERTEX_POINT('',#1149);
#348=VERTEX_POINT('',#1154);
#349=VERTEX_POINT('',#1159);
#350=VERTEX_POINT('',#1163);
#351=VERTEX_POINT('',#1165);
#352=VERTEX_POINT('',#1168);
#353=VERTEX_POINT('',#1171);
#354=VERTEX_POINT('',#1173);
#355=VERTEX_POINT('',#1179);
#356=VERTEX_POINT('',#1181);
#357=VERTEX_POINT('',#1193);
#358=VERTEX_POINT('',#1196);
#359=VERTEX_POINT('',#1199);
#360=VERTEX_POINT('',#1200);
#361=VERTEX_POINT('',#1202);
#362=VERTEX_POINT('',#1204);
#363=VERTEX_POINT('',#1208);
#364=VERTEX_POINT('',#1209);
#365=VERTEX_POINT('',#1214);
#366=VERTEX_POINT('',#1216);
#367=VERTEX_POINT('',#1221);
#368=VERTEX_POINT('',#1223);
#369=VERTEX_POINT('',#1237);
#370=VERTEX_POINT('',#1239);
#371=VERTEX_POINT('',#1242);
#372=VERTEX_POINT('',#1245);
#373=VERTEX_POINT('',#1247);
#374=VERTEX_POINT('',#1253);
#375=VERTEX_POINT('',#1255);
#376=EDGE_CURVE('',#313,#314,#163,.T.);
#377=EDGE_CURVE('',#315,#313,#164,.T.);
#378=EDGE_CURVE('',#315,#316,#136,.T.);
#379=EDGE_CURVE('',#316,#314,#165,.T.);
#380=EDGE_CURVE('',#317,#318,#166,.T.);
#381=EDGE_CURVE('',#319,#318,#167,.T.);
#382=EDGE_CURVE('',#319,#320,#168,.T.);
#383=EDGE_CURVE('',#320,#317,#169,.T.);
#384=EDGE_CURVE('',#321,#316,#170,.T.);
#385=EDGE_CURVE('',#322,#321,#171,.T.);
#386=EDGE_CURVE('',#319,#322,#172,.T.);
#387=EDGE_CURVE('',#318,#314,#173,.T.);
#388=EDGE_CURVE('',#323,#320,#174,.T.);
#389=EDGE_CURVE('',#322,#324,#137,.T.);
#390=EDGE_CURVE('',#324,#325,#175,.T.);
#391=EDGE_CURVE('',#326,#325,#176,.T.);
#392=EDGE_CURVE('',#326,#327,#177,.T.);
#393=EDGE_CURVE('',#327,#328,#138,.T.);
#394=EDGE_CURVE('',#328,#329,#178,.T.);
#395=EDGE_CURVE('',#330,#329,#179,.T.);
#396=EDGE_CURVE('',#330,#331,#180,.T.);
#397=EDGE_CURVE('',#331,#323,#139,.T.);
#398=EDGE_CURVE('',#332,#332,#140,.T.);
#399=EDGE_CURVE('',#333,#315,#181,.T.);
#400=EDGE_CURVE('',#321,#333,#141,.T.);
#401=EDGE_CURVE('',#314,#334,#182,.T.);
#402=EDGE_CURVE('',#335,#334,#183,.T.);
#403=EDGE_CURVE('',#313,#335,#184,.T.);
#404=EDGE_CURVE('',#336,#336,#142,.T.);
#405=EDGE_CURVE('',#337,#337,#143,.T.);
#406=EDGE_CURVE('',#337,#338,#185,.T.);
#407=EDGE_CURVE('',#338,#338,#144,.T.);
#408=EDGE_CURVE('',#338,#336,#186,.T.);
#409=EDGE_CURVE('',#317,#339,#187,.T.);
#410=EDGE_CURVE('',#340,#339,#188,.T.);
#411=EDGE_CURVE('',#318,#340,#189,.T.);
#412=EDGE_CURVE('',#334,#340,#190,.T.);
#413=EDGE_CURVE('',#339,#335,#191,.T.);
#414=EDGE_CURVE('',#333,#323,#192,.T.);
#415=EDGE_CURVE('',#341,#321,#145,.T.);
#416=EDGE_CURVE('',#341,#324,#193,.T.);
#417=EDGE_CURVE('',#342,#343,#194,.T.);
#418=EDGE_CURVE('',#344,#342,#195,.T.);
#419=EDGE_CURVE('',#344,#345,#146,.T.);
#420=EDGE_CURVE('',#345,#343,#196,.T.);
#421=EDGE_CURVE('',#346,#347,#197,.T.);
#422=EDGE_CURVE('',#330,#347,#198,.T.);
#423=EDGE_CURVE('',#329,#346,#199,.T.);
#424=EDGE_CURVE('',#348,#345,#200,.T.);
#425=EDGE_CURVE('',#331,#348,#201,.T.);
#426=EDGE_CURVE('',#347,#343,#202,.T.);
#427=EDGE_CURVE('',#349,#344,#203,.T.);
#428=EDGE_CURVE('',#348,#349,#147,.T.);
#429=EDGE_CURVE('',#343,#350,#204,.T.);
#430=EDGE_CURVE('',#351,#350,#205,.T.);
#431=EDGE_CURVE('',#342,#351,#206,.T.);
#432=EDGE_CURVE('',#352,#352,#148,.T.);
#433=EDGE_CURVE('',#353,#353,#149,.T.);
#434=EDGE_CURVE('',#353,#354,#207,.T.);
#435=EDGE_CURVE('',#354,#354,#150,.T.);
#436=EDGE_CURVE('',#354,#352,#208,.T.);
#437=EDGE_CURVE('',#346,#355,#209,.T.);
#438=EDGE_CURVE('',#356,#355,#210,.T.);
#439=EDGE_CURVE('',#347,#356,#211,.T.);
#440=EDGE_CURVE('',#350,#356,#212,.T.);
#441=EDGE_CURVE('',#355,#351,#213,.T.);
#442=EDGE_CURVE('',#349,#328,#214,.T.);
#443=EDGE_CURVE('',#333,#348,#151,.T.);
#444=EDGE_CURVE('',#349,#357,#152,.T.);
#445=EDGE_CURVE('',#357,#341,#153,.T.);
#446=EDGE_CURVE('',#358,#358,#154,.T.);
#447=EDGE_CURVE('',#359,#360,#215,.T.);
#448=EDGE_CURVE('',#361,#359,#216,.T.);
#449=EDGE_CURVE('',#361,#362,#155,.T.);
#450=EDGE_CURVE('',#362,#360,#217,.T.);
#451=EDGE_CURVE('',#363,#364,#218,.T.);
#452=EDGE_CURVE('',#326,#364,#219,.T.);
#453=EDGE_CURVE('',#325,#363,#220,.T.);
#454=EDGE_CURVE('',#365,#365,#156,.T.);
#455=EDGE_CURVE('',#366,#366,#157,.T.);
#456=EDGE_CURVE('',#366,#358,#221,.T.);
#457=EDGE_CURVE('',#367,#367,#158,.T.);
#458=EDGE_CURVE('',#368,#368,#159,.T.);
#459=EDGE_CURVE('',#367,#332,#222,.T.);
#460=EDGE_CURVE('',#365,#368,#223,.T.);
#461=EDGE_CURVE('',#357,#362,#224,.T.);
#462=EDGE_CURVE('',#327,#357,#225,.T.);
#463=EDGE_CURVE('',#364,#360,#226,.T.);
#464=EDGE_CURVE('',#341,#361,#227,.T.);
#465=EDGE_CURVE('',#360,#369,#228,.T.);
#466=EDGE_CURVE('',#370,#369,#229,.T.);
#467=EDGE_CURVE('',#359,#370,#230,.T.);
#468=EDGE_CURVE('',#371,#371,#160,.T.);
#469=EDGE_CURVE('',#372,#372,#161,.T.);
#470=EDGE_CURVE('',#372,#373,#231,.T.);
#471=EDGE_CURVE('',#373,#373,#162,.T.);
#472=EDGE_CURVE('',#373,#371,#232,.T.);
#473=EDGE_CURVE('',#363,#374,#233,.T.);
#474=EDGE_CURVE('',#375,#374,#234,.T.);
#475=EDGE_CURVE('',#364,#375,#235,.T.);
#476=EDGE_CURVE('',#369,#375,#236,.T.);
#477=EDGE_CURVE('',#374,#370,#237,.T.);
#478=ORIENTED_EDGE('',*,*,#376,.F.);
#479=ORIENTED_EDGE('',*,*,#377,.F.);
#480=ORIENTED_EDGE('',*,*,#378,.T.);
#481=ORIENTED_EDGE('',*,*,#379,.T.);
#482=ORIENTED_EDGE('',*,*,#380,.T.);
#483=ORIENTED_EDGE('',*,*,#381,.F.);
#484=ORIENTED_EDGE('',*,*,#382,.T.);
#485=ORIENTED_EDGE('',*,*,#383,.T.);
#486=ORIENTED_EDGE('',*,*,#379,.F.);
#487=ORIENTED_EDGE('',*,*,#384,.F.);
#488=ORIENTED_EDGE('',*,*,#385,.F.);
#489=ORIENTED_EDGE('',*,*,#386,.F.);
#490=ORIENTED_EDGE('',*,*,#381,.T.);
#491=ORIENTED_EDGE('',*,*,#387,.T.);
#492=ORIENTED_EDGE('',*,*,#388,.T.);
#493=ORIENTED_EDGE('',*,*,#382,.F.);
#494=ORIENTED_EDGE('',*,*,#386,.T.);
#495=ORIENTED_EDGE('',*,*,#389,.T.);
#496=ORIENTED_EDGE('',*,*,#390,.T.);
#497=ORIENTED_EDGE('',*,*,#391,.F.);
#498=ORIENTED_EDGE('',*,*,#392,.T.);
#499=ORIENTED_EDGE('',*,*,#393,.T.);
#500=ORIENTED_EDGE('',*,*,#394,.T.);
#501=ORIENTED_EDGE('',*,*,#395,.F.);
#502=ORIENTED_EDGE('',*,*,#396,.T.);
#503=ORIENTED_EDGE('',*,*,#397,.T.);
#504=ORIENTED_EDGE('',*,*,#398,.T.);
#505=ORIENTED_EDGE('',*,*,#378,.F.);
#506=ORIENTED_EDGE('',*,*,#399,.F.);
#507=ORIENTED_EDGE('',*,*,#400,.F.);
#508=ORIENTED_EDGE('',*,*,#384,.T.);
#509=ORIENTED_EDGE('',*,*,#376,.T.);
#510=ORIENTED_EDGE('',*,*,#401,.T.);
#511=ORIENTED_EDGE('',*,*,#402,.F.);
#512=ORIENTED_EDGE('',*,*,#403,.F.);
#513=ORIENTED_EDGE('',*,*,#404,.T.);
#514=ORIENTED_EDGE('',*,*,#405,.F.);
#515=ORIENTED_EDGE('',*,*,#406,.T.);
#516=ORIENTED_EDGE('',*,*,#407,.T.);
#517=ORIENTED_EDGE('',*,*,#406,.F.);
#518=ORIENTED_EDGE('',*,*,#407,.F.);
#519=ORIENTED_EDGE('',*,*,#408,.T.);
#520=ORIENTED_EDGE('',*,*,#404,.F.);
#521=ORIENTED_EDGE('',*,*,#408,.F.);
#522=ORIENTED_EDGE('',*,*,#380,.F.);
#523=ORIENTED_EDGE('',*,*,#409,.T.);
#524=ORIENTED_EDGE('',*,*,#410,.F.);
#525=ORIENTED_EDGE('',*,*,#411,.F.);
#526=ORIENTED_EDGE('',*,*,#405,.T.);
#527=ORIENTED_EDGE('',*,*,#387,.F.);
#528=ORIENTED_EDGE('',*,*,#411,.T.);
#529=ORIENTED_EDGE('',*,*,#412,.F.);
#530=ORIENTED_EDGE('',*,*,#401,.F.);
#531=ORIENTED_EDGE('',*,*,#402,.T.);
#532=ORIENTED_EDGE('',*,*,#412,.T.);
#533=ORIENTED_EDGE('',*,*,#410,.T.);
#534=ORIENTED_EDGE('',*,*,#413,.T.);
#535=ORIENTED_EDGE('',*,*,#403,.T.);
#536=ORIENTED_EDGE('',*,*,#413,.F.);
#537=ORIENTED_EDGE('',*,*,#409,.F.);
#538=ORIENTED_EDGE('',*,*,#383,.F.);
#539=ORIENTED_EDGE('',*,*,#388,.F.);
#540=ORIENTED_EDGE('',*,*,#414,.F.);
#541=ORIENTED_EDGE('',*,*,#399,.T.);
#542=ORIENTED_EDGE('',*,*,#377,.T.);
#543=ORIENTED_EDGE('',*,*,#385,.T.);
#544=ORIENTED_EDGE('',*,*,#415,.F.);
#545=ORIENTED_EDGE('',*,*,#416,.T.);
#546=ORIENTED_EDGE('',*,*,#389,.F.);
#547=ORIENTED_EDGE('',*,*,#417,.F.);
#548=ORIENTED_EDGE('',*,*,#418,.F.);
#549=ORIENTED_EDGE('',*,*,#419,.T.);
#550=ORIENTED_EDGE('',*,*,#420,.T.);
#551=ORIENTED_EDGE('',*,*,#421,.T.);
#552=ORIENTED_EDGE('',*,*,#422,.F.);
#553=ORIENTED_EDGE('',*,*,#395,.T.);
#554=ORIENTED_EDGE('',*,*,#423,.T.);
#555=ORIENTED_EDGE('',*,*,#420,.F.);
#556=ORIENTED_EDGE('',*,*,#424,.F.);
#557=ORIENTED_EDGE('',*,*,#425,.F.);
#558=ORIENTED_EDGE('',*,*,#396,.F.);
#559=ORIENTED_EDGE('',*,*,#422,.T.);
#560=ORIENTED_EDGE('',*,*,#426,.T.);
#561=ORIENTED_EDGE('',*,*,#419,.F.);
#562=ORIENTED_EDGE('',*,*,#427,.F.);
#563=ORIENTED_EDGE('',*,*,#428,.F.);
#564=ORIENTED_EDGE('',*,*,#424,.T.);
#565=ORIENTED_EDGE('',*,*,#417,.T.);
#566=ORIENTED_EDGE('',*,*,#429,.T.);
#567=ORIENTED_EDGE('',*,*,#430,.F.);
#568=ORIENTED_EDGE('',*,*,#431,.F.);
#569=ORIENTED_EDGE('',*,*,#432,.T.);
#570=ORIENTED_EDGE('',*,*,#433,.F.);
#571=ORIENTED_EDGE('',*,*,#434,.T.);
#572=ORIENTED_EDGE('',*,*,#435,.T.);
#573=ORIENTED_EDGE('',*,*,#434,.F.);
#574=ORIENTED_EDGE('',*,*,#435,.F.);
#575=ORIENTED_EDGE('',*,*,#436,.T.);
#576=ORIENTED_EDGE('',*,*,#432,.F.);
#577=ORIENTED_EDGE('',*,*,#436,.F.);
#578=ORIENTED_EDGE('',*,*,#421,.F.);
#579=ORIENTED_EDGE('',*,*,#437,.T.);
#580=ORIENTED_EDGE('',*,*,#438,.F.);
#581=ORIENTED_EDGE('',*,*,#439,.F.);
#582=ORIENTED_EDGE('',*,*,#433,.T.);
#583=ORIENTED_EDGE('',*,*,#426,.F.);
#584=ORIENTED_EDGE('',*,*,#439,.T.);
#585=ORIENTED_EDGE('',*,*,#440,.F.);
#586=ORIENTED_EDGE('',*,*,#429,.F.);
#587=ORIENTED_EDGE('',*,*,#430,.T.);
#588=ORIENTED_EDGE('',*,*,#440,.T.);
#589=ORIENTED_EDGE('',*,*,#438,.T.);
#590=ORIENTED_EDGE('',*,*,#441,.T.);
#591=ORIENTED_EDGE('',*,*,#431,.T.);
#592=ORIENTED_EDGE('',*,*,#441,.F.);
#593=ORIENTED_EDGE('',*,*,#437,.F.);
#594=ORIENTED_EDGE('',*,*,#423,.F.);
#595=ORIENTED_EDGE('',*,*,#394,.F.);
#596=ORIENTED_EDGE('',*,*,#442,.F.);
#597=ORIENTED_EDGE('',*,*,#427,.T.);
#598=ORIENTED_EDGE('',*,*,#418,.T.);
#599=ORIENTED_EDGE('',*,*,#414,.T.);
#600=ORIENTED_EDGE('',*,*,#397,.F.);
#601=ORIENTED_EDGE('',*,*,#425,.T.);
#602=ORIENTED_EDGE('',*,*,#443,.F.);
#603=ORIENTED_EDGE('',*,*,#415,.T.);
#604=ORIENTED_EDGE('',*,*,#400,.T.);
#605=ORIENTED_EDGE('',*,*,#443,.T.);
#606=ORIENTED_EDGE('',*,*,#428,.T.);
#607=ORIENTED_EDGE('',*,*,#444,.T.);
#608=ORIENTED_EDGE('',*,*,#445,.T.);
#609=ORIENTED_EDGE('',*,*,#446,.T.);
#610=ORIENTED_EDGE('',*,*,#447,.F.);
#611=ORIENTED_EDGE('',*,*,#448,.F.);
#612=ORIENTED_EDGE('',*,*,#449,.T.);
#613=ORIENTED_EDGE('',*,*,#450,.T.);
#614=ORIENTED_EDGE('',*,*,#451,.T.);
#615=ORIENTED_EDGE('',*,*,#452,.F.);
#616=ORIENTED_EDGE('',*,*,#391,.T.);
#617=ORIENTED_EDGE('',*,*,#453,.T.);
#618=ORIENTED_EDGE('',*,*,#454,.T.);
#619=ORIENTED_EDGE('',*,*,#455,.T.);
#620=ORIENTED_EDGE('',*,*,#455,.F.);
#621=ORIENTED_EDGE('',*,*,#456,.T.);
#622=ORIENTED_EDGE('',*,*,#446,.F.);
#623=ORIENTED_EDGE('',*,*,#456,.F.);
#624=ORIENTED_EDGE('',*,*,#457,.T.);
#625=ORIENTED_EDGE('',*,*,#458,.T.);
#626=ORIENTED_EDGE('',*,*,#457,.F.);
#627=ORIENTED_EDGE('',*,*,#459,.T.);
#628=ORIENTED_EDGE('',*,*,#398,.F.);
#629=ORIENTED_EDGE('',*,*,#459,.F.);
#630=ORIENTED_EDGE('',*,*,#454,.F.);
#631=ORIENTED_EDGE('',*,*,#460,.T.);
#632=ORIENTED_EDGE('',*,*,#458,.F.);
#633=ORIENTED_EDGE('',*,*,#460,.F.);
#634=ORIENTED_EDGE('',*,*,#450,.F.);
#635=ORIENTED_EDGE('',*,*,#461,.F.);
#636=ORIENTED_EDGE('',*,*,#462,.F.);
#637=ORIENTED_EDGE('',*,*,#392,.F.);
#638=ORIENTED_EDGE('',*,*,#452,.T.);
#639=ORIENTED_EDGE('',*,*,#463,.T.);
#640=ORIENTED_EDGE('',*,*,#442,.T.);
#641=ORIENTED_EDGE('',*,*,#393,.F.);
#642=ORIENTED_EDGE('',*,*,#462,.T.);
#643=ORIENTED_EDGE('',*,*,#444,.F.);
#644=ORIENTED_EDGE('',*,*,#449,.F.);
#645=ORIENTED_EDGE('',*,*,#464,.F.);
#646=ORIENTED_EDGE('',*,*,#445,.F.);
#647=ORIENTED_EDGE('',*,*,#461,.T.);
#648=ORIENTED_EDGE('',*,*,#447,.T.);
#649=ORIENTED_EDGE('',*,*,#465,.T.);
#650=ORIENTED_EDGE('',*,*,#466,.F.);
#651=ORIENTED_EDGE('',*,*,#467,.F.);
#652=ORIENTED_EDGE('',*,*,#468,.T.);
#653=ORIENTED_EDGE('',*,*,#469,.F.);
#654=ORIENTED_EDGE('',*,*,#470,.T.);
#655=ORIENTED_EDGE('',*,*,#471,.T.);
#656=ORIENTED_EDGE('',*,*,#470,.F.);
#657=ORIENTED_EDGE('',*,*,#471,.F.);
#658=ORIENTED_EDGE('',*,*,#472,.T.);
#659=ORIENTED_EDGE('',*,*,#468,.F.);
#660=ORIENTED_EDGE('',*,*,#472,.F.);
#661=ORIENTED_EDGE('',*,*,#451,.F.);
#662=ORIENTED_EDGE('',*,*,#473,.T.);
#663=ORIENTED_EDGE('',*,*,#474,.F.);
#664=ORIENTED_EDGE('',*,*,#475,.F.);
#665=ORIENTED_EDGE('',*,*,#469,.T.);
#666=ORIENTED_EDGE('',*,*,#463,.F.);
#667=ORIENTED_EDGE('',*,*,#475,.T.);
#668=ORIENTED_EDGE('',*,*,#476,.F.);
#669=ORIENTED_EDGE('',*,*,#465,.F.);
#670=ORIENTED_EDGE('',*,*,#466,.T.);
#671=ORIENTED_EDGE('',*,*,#476,.T.);
#672=ORIENTED_EDGE('',*,*,#474,.T.);
#673=ORIENTED_EDGE('',*,*,#477,.T.);
#674=ORIENTED_EDGE('',*,*,#467,.T.);
#675=ORIENTED_EDGE('',*,*,#477,.F.);
#676=ORIENTED_EDGE('',*,*,#473,.F.);
#677=ORIENTED_EDGE('',*,*,#453,.F.);
#678=ORIENTED_EDGE('',*,*,#390,.F.);
#679=ORIENTED_EDGE('',*,*,#416,.F.);
#680=ORIENTED_EDGE('',*,*,#464,.T.);
#681=ORIENTED_EDGE('',*,*,#448,.T.);
#682=PLANE('',#767);
#683=PLANE('',#769);
#684=PLANE('',#770);
#685=PLANE('',#771);
#686=PLANE('',#778);
#687=PLANE('',#784);
#688=PLANE('',#785);
#689=PLANE('',#786);
#690=PLANE('',#787);
#691=PLANE('',#790);
#692=PLANE('',#792);
#693=PLANE('',#793);
#694=PLANE('',#796);
#695=PLANE('',#802);
#696=PLANE('',#803);
#697=PLANE('',#804);
#698=PLANE('',#805);
#699=PLANE('',#808);
#700=PLANE('',#812);
#701=PLANE('',#814);
#702=PLANE('',#815);
#703=PLANE('',#819);
#704=PLANE('',#824);
#705=PLANE('',#827);
#706=PLANE('',#833);
#707=PLANE('',#834);
#708=PLANE('',#835);
#709=PLANE('',#836);
#710=ADVANCED_FACE('',(#40),#682,.F.);
#711=ADVANCED_FACE('',(#41),#683,.T.);
#712=ADVANCED_FACE('',(#42),#684,.T.);
#713=ADVANCED_FACE('',(#43,#30),#685,.T.);
#714=ADVANCED_FACE('',(#44),#18,.F.);
#715=ADVANCED_FACE('',(#45,#31),#686,.F.);
#716=ADVANCED_FACE('',(#46),#15,.F.);
#717=ADVANCED_FACE('',(#47),#19,.F.);
#718=ADVANCED_FACE('',(#48,#32),#687,.T.);
#719=ADVANCED_FACE('',(#49),#688,.T.);
#720=ADVANCED_FACE('',(#50),#689,.T.);
#721=ADVANCED_FACE('',(#51),#690,.T.);
#722=ADVANCED_FACE('',(#52),#20,.T.);
#723=ADVANCED_FACE('',(#53),#691,.F.);
#724=ADVANCED_FACE('',(#54),#692,.T.);
#725=ADVANCED_FACE('',(#55),#693,.T.);
#726=ADVANCED_FACE('',(#56),#21,.F.);
#727=ADVANCED_FACE('',(#57,#33),#694,.F.);
#728=ADVANCED_FACE('',(#58),#16,.F.);
#729=ADVANCED_FACE('',(#59),#22,.F.);
#730=ADVANCED_FACE('',(#60,#34),#695,.T.);
#731=ADVANCED_FACE('',(#61),#696,.T.);
#732=ADVANCED_FACE('',(#62),#697,.T.);
#733=ADVANCED_FACE('',(#63),#698,.T.);
#734=ADVANCED_FACE('',(#64),#23,.T.);
#735=ADVANCED_FACE('',(#65,#35),#699,.T.);
#736=ADVANCED_FACE('',(#66),#700,.F.);
#737=ADVANCED_FACE('',(#67),#701,.T.);
#738=ADVANCED_FACE('',(#68,#36),#702,.T.);
#739=ADVANCED_FACE('',(#69),#24,.F.);
#740=ADVANCED_FACE('',(#70,#37),#703,.T.);
#741=ADVANCED_FACE('',(#71),#25,.T.);
#742=ADVANCED_FACE('',(#72),#26,.F.);
#743=ADVANCED_FACE('',(#73),#704,.T.);
#744=ADVANCED_FACE('',(#74),#27,.T.);
#745=ADVANCED_FACE('',(#75),#28,.F.);
#746=ADVANCED_FACE('',(#76,#38),#705,.F.);
#747=ADVANCED_FACE('',(#77),#17,.F.);
#748=ADVANCED_FACE('',(#78),#29,.F.);
#749=ADVANCED_FACE('',(#79,#39),#706,.T.);
#750=ADVANCED_FACE('',(#80),#707,.T.);
#751=ADVANCED_FACE('',(#81),#708,.T.);
#752=ADVANCED_FACE('',(#82),#709,.T.);
#753=CLOSED_SHELL('',(#710,#711,#712,#713,#714,#715,#716,#717,#718,#719,
#720,#721,#722,#723,#724,#725,#726,#727,#728,#729,#730,#731,#732,#733,#734,
#735,#736,#737,#738,#739,#740,#741,#742,#743,#744,#745,#746,#747,#748,#749,
#750,#751,#752));
#754=DERIVED_UNIT_ELEMENT(#756,1.);
#755=DERIVED_UNIT_ELEMENT(#1268,-3.);
#756=(
MASS_UNIT()
NAMED_UNIT(*)
SI_UNIT(.KILO.,.GRAM.)
);
#757=DERIVED_UNIT((#754,#755));
#758=MEASURE_REPRESENTATION_ITEM('density measure',
POSITIVE_RATIO_MEASURE(7850.),#757);
#759=PROPERTY_DEFINITION_REPRESENTATION(#764,#761);
#760=PROPERTY_DEFINITION_REPRESENTATION(#765,#762);
#761=REPRESENTATION('material name',(#763),#1265);
#762=REPRESENTATION('density',(#758),#1265);
#763=DESCRIPTIVE_REPRESENTATION_ITEM('\X\C7elik','\X\C7elik');
#764=PROPERTY_DEFINITION('material property','material name',#1275);
#765=PROPERTY_DEFINITION('material property','density of part',#1275);
#766=AXIS2_PLACEMENT_3D('',#1054,#837,#838);
#767=AXIS2_PLACEMENT_3D('',#1055,#839,#840);
#768=AXIS2_PLACEMENT_3D('',#1062,#843,#844);
#769=AXIS2_PLACEMENT_3D('',#1064,#846,#847);
#770=AXIS2_PLACEMENT_3D('',#1073,#852,#853);
#771=AXIS2_PLACEMENT_3D('',#1080,#858,#859);
#772=AXIS2_PLACEMENT_3D('',#1084,#861,#862);
#773=AXIS2_PLACEMENT_3D('',#1092,#866,#867);
#774=AXIS2_PLACEMENT_3D('',#1099,#871,#872);
#775=AXIS2_PLACEMENT_3D('',#1101,#873,#874);
#776=AXIS2_PLACEMENT_3D('',#1102,#875,#876);
#777=AXIS2_PLACEMENT_3D('',#1105,#878,#879);
#778=AXIS2_PLACEMENT_3D('',#1106,#880,#881);
#779=AXIS2_PLACEMENT_3D('',#1113,#885,#886);
#780=AXIS2_PLACEMENT_3D('',#1114,#887,#888);
#781=AXIS2_PLACEMENT_3D('',#1116,#889,#890);
#782=AXIS2_PLACEMENT_3D('',#1119,#892,#893);
#783=AXIS2_PLACEMENT_3D('',#1120,#894,#895);
#784=AXIS2_PLACEMENT_3D('',#1122,#897,#898);
#785=AXIS2_PLACEMENT_3D('',#1128,#902,#903);
#786=AXIS2_PLACEMENT_3D('',#1130,#905,#906);
#787=AXIS2_PLACEMENT_3D('',#1132,#908,#909);
#788=AXIS2_PLACEMENT_3D('',#1134,#911,#912);
#789=AXIS2_PLACEMENT_3D('',#1136,#913,#914);
#790=AXIS2_PLACEMENT_3D('',#1138,#916,#917);
#791=AXIS2_PLACEMENT_3D('',#1145,#920,#921);
#792=AXIS2_PLACEMENT_3D('',#1147,#923,#924);
#793=AXIS2_PLACEMENT_3D('',#1153,#928,#929);
#794=AXIS2_PLACEMENT_3D('',#1158,#933,#934);
#795=AXIS2_PLACEMENT_3D('',#1161,#936,#937);
#796=AXIS2_PLACEMENT_3D('',#1162,#938,#939);
#797=AXIS2_PLACEMENT_3D('',#1169,#943,#944);
#798=AXIS2_PLACEMENT_3D('',#1170,#945,#946);
#799=AXIS2_PLACEMENT_3D('',#1172,#947,#948);
#800=AXIS2_PLACEMENT_3D('',#1175,#950,#951);
#801=AXIS2_PLACEMENT_3D('',#1176,#952,#953);
#802=AXIS2_PLACEMENT_3D('',#1178,#955,#956);
#803=AXIS2_PLACEMENT_3D('',#1184,#960,#961);
#804=AXIS2_PLACEMENT_3D('',#1186,#963,#964);
#805=AXIS2_PLACEMENT_3D('',#1188,#966,#967);
#806=AXIS2_PLACEMENT_3D('',#1190,#969,#970);
#807=AXIS2_PLACEMENT_3D('',#1191,#971,#972);
#808=AXIS2_PLACEMENT_3D('',#1192,#973,#974);
#809=AXIS2_PLACEMENT_3D('',#1194,#975,#976);
#810=AXIS2_PLACEMENT_3D('',#1195,#977,#978);
#811=AXIS2_PLACEMENT_3D('',#1197,#979,#980);
#812=AXIS2_PLACEMENT_3D('',#1198,#981,#982);
#813=AXIS2_PLACEMENT_3D('',#1205,#985,#986);
#814=AXIS2_PLACEMENT_3D('',#1207,#988,#989);
#815=AXIS2_PLACEMENT_3D('',#1213,#993,#994);
#816=AXIS2_PLACEMENT_3D('',#1215,#995,#996);
#817=AXIS2_PLACEMENT_3D('',#1217,#997,#998);
#818=AXIS2_PLACEMENT_3D('',#1218,#999,#1000);
#819=AXIS2_PLACEMENT_3D('',#1220,#1002,#1003);
#820=AXIS2_PLACEMENT_3D('',#1222,#1004,#1005);
#821=AXIS2_PLACEMENT_3D('',#1224,#1006,#1007);
#822=AXIS2_PLACEMENT_3D('',#1225,#1008,#1009);
#823=AXIS2_PLACEMENT_3D('',#1227,#1011,#1012);
#824=AXIS2_PLACEMENT_3D('',#1229,#1014,#1015);
#825=AXIS2_PLACEMENT_3D('',#1233,#1019,#1020);
#826=AXIS2_PLACEMENT_3D('',#1234,#1021,#1022);
#827=AXIS2_PLACEMENT_3D('',#1236,#1024,#1025);
#828=AXIS2_PLACEMENT_3D('',#1243,#1029,#1030);
#829=AXIS2_PLACEMENT_3D('',#1244,#1031,#1032);
#830=AXIS2_PLACEMENT_3D('',#1246,#1033,#1034);
#831=AXIS2_PLACEMENT_3D('',#1249,#1036,#1037);
#832=AXIS2_PLACEMENT_3D('',#1250,#1038,#1039);
#833=AXIS2_PLACEMENT_3D('',#1252,#1041,#1042);
#834=AXIS2_PLACEMENT_3D('',#1258,#1046,#1047);
#835=AXIS2_PLACEMENT_3D('',#1260,#1049,#1050);
#836=AXIS2_PLACEMENT_3D('',#1262,#1052,#1053);
#837=DIRECTION('axis',(0.,0.,1.));
#838=DIRECTION('refdir',(1.,0.,0.));
#839=DIRECTION('center_axis',(-2.13491744991807E-32,1.,-1.23259516440783E-32));
#840=DIRECTION('ref_axis',(0.5,0.,-0.866025403784438));
#841=DIRECTION('',(0.5,0.,-0.866025403784438));
#842=DIRECTION('',(0.866025403784438,0.,0.5));
#843=DIRECTION('center_axis',(-2.13491744991807E-32,1.,-1.23259516440783E-32));
#844=DIRECTION('ref_axis',(0.5,0.,-0.866025403784438));
#845=DIRECTION('',(0.86604044510445,1.52497401873762E-15,0.499973946764514));
#846=DIRECTION('center_axis',(0.866025403784438,0.,0.5));
#847=DIRECTION('ref_axis',(0.5,0.,-0.866025403784438));
#848=DIRECTION('',(0.5,-1.95013635592004E-8,-0.866025403784438));
#849=DIRECTION('',(0.,-1.,0.));
#850=DIRECTION('',(-0.5,0.,0.866025403784438));
#851=DIRECTION('',(0.,-1.,0.));
#852=DIRECTION('center_axis',(0.499973946764515,0.,-0.86604044510445));
#853=DIRECTION('ref_axis',(0.86604044510445,1.52497401873762E-15,0.499973946764514));
#854=DIRECTION('',(0.,-1.,0.));
#855=DIRECTION('',(0.,-1.,2.22044604925031E-16));
#856=DIRECTION('',(-0.86604044510445,-1.52497401873762E-15,-0.499973946764514));
#857=DIRECTION('',(0.,-1.,0.));
#858=DIRECTION('center_axis',(-1.92296268638357E-16,1.,1.11022302462515E-16));
#859=DIRECTION('ref_axis',(-0.499999999999999,-4.19082355898663E-31,-0.866025403784439));
#860=DIRECTION('',(0.866025403784438,-1.6930529037425E-31,0.5));
#861=DIRECTION('center_axis',(0.,1.,-2.22044604925031E-16));
#862=DIRECTION('ref_axis',(1.,0.,0.));
#863=DIRECTION('',(0.,-1.6930529037425E-31,-1.));
#864=DIRECTION('',(1.,0.,0.));
#865=DIRECTION('',(3.00834237876412E-5,-1.52497401873762E-15,0.999999999547494));
#866=DIRECTION('center_axis',(0.,1.,-2.22044604925031E-16));
#867=DIRECTION('ref_axis',(1.,0.,0.));
#868=DIRECTION('',(-0.866025403784439,-1.6930529037425E-31,0.5));
#869=DIRECTION('',(-0.5,0.,-0.866025403784439));
#870=DIRECTION('',(0.866010361680663,-1.52497401873762E-15,-0.50002605278298));
#871=DIRECTION('center_axis',(0.,1.,-2.22044604925031E-16));
#872=DIRECTION('ref_axis',(1.,0.,0.));
#873=DIRECTION('center_axis',(0.,-1.,2.22044604925031E-16));
#874=DIRECTION('ref_axis',(-1.,0.,0.));
#875=DIRECTION('center_axis',(0.,-1.,0.));
#876=DIRECTION('ref_axis',(0.5,0.,-0.866025403784438));
#877=DIRECTION('',(0.,-1.,0.));
#878=DIRECTION('center_axis',(0.,-1.,2.22044604925031E-16));
#879=DIRECTION('ref_axis',(1.,0.,0.));
#880=DIRECTION('center_axis',(-2.13491744991807E-32,1.,-1.23259516440783E-32));
#881=DIRECTION('ref_axis',(0.5,0.,-0.866025403784438));
#882=DIRECTION('',(0.866025403784438,0.,0.5));
#883=DIRECTION('',(0.5,0.,-0.866025403784438));
#884=DIRECTION('',(0.866025403784438,0.,0.5));
#885=DIRECTION('center_axis',(-2.13491744991807E-32,1.,-1.23259516440783E-32));
#886=DIRECTION('ref_axis',(-0.866025403784438,0.,-0.5));
#887=DIRECTION('center_axis',(0.,1.,0.));
#888=DIRECTION('ref_axis',(-0.866025403784438,0.,-0.5));
#889=DIRECTION('center_axis',(-9.75068177960021E-9,-1.,1.68886762507037E-8));
#890=DIRECTION('ref_axis',(-0.866025394033756,-5.55111512312578E-16,-0.500000016888676));
#891=DIRECTION('',(-0.612372435695794,-0.707106781186548,-0.353553390593274));
#892=DIRECTION('center_axis',(0.,-1.,0.));
#893=DIRECTION('ref_axis',(-0.866025403784438,0.,-0.5));
#894=DIRECTION('center_axis',(0.,-1.,0.));
#895=DIRECTION('ref_axis',(-0.866025403784438,0.,-0.5));
#896=DIRECTION('',(0.,-1.,0.));
#897=DIRECTION('center_axis',(9.75068177960021E-9,1.,-1.68886762507037E-8));
#898=DIRECTION('ref_axis',(-0.5,1.95013635592004E-8,0.866025403784438));
#899=DIRECTION('',(0.866025403784438,0.,0.5));
#900=DIRECTION('',(-0.5,1.95013635592003E-8,0.866025403784438));
#901=DIRECTION('',(0.866025403784438,0.,0.5));
#902=DIRECTION('center_axis',(0.5,0.,-0.866025403784438));
#903=DIRECTION('ref_axis',(0.,1.,0.));
#904=DIRECTION('',(0.,1.,0.));
#905=DIRECTION('center_axis',(0.866025403784438,0.,0.5));
#906=DIRECTION('ref_axis',(0.5,0.,-0.866025403784438));
#907=DIRECTION('',(0.,-1.,0.));
#908=DIRECTION('center_axis',(-0.5,0.,0.866025403784438));
#909=DIRECTION('ref_axis',(-0.866025403784438,1.6930529037425E-31,-0.5));
#910=DIRECTION('',(0.,1.,-2.22044604925031E-16));
#911=DIRECTION('center_axis',(0.,1.,-2.22044604925031E-16));
#912=DIRECTION('ref_axis',(1.,0.,0.));
#913=DIRECTION('center_axis',(0.,-1.,2.22044604925031E-16));
#914=DIRECTION('ref_axis',(1.,0.,0.));
#915=DIRECTION('',(0.,1.,-2.22044604925031E-16));
#916=DIRECTION('center_axis',(2.13491744991808E-32,1.,-1.23259516440783E-32));
#917=DIRECTION('ref_axis',(0.5,0.,0.866025403784439));
#918=DIRECTION('',(0.5,0.,0.866025403784439));
#919=DIRECTION('',(-0.866025403784439,0.,0.5));
#920=DIRECTION('center_axis',(2.13491744991808E-32,1.,-1.23259516440783E-32));
#921=DIRECTION('ref_axis',(0.5,0.,0.866025403784439));
#922=DIRECTION('',(-0.866010361680663,1.52497401873762E-15,0.50002605278298));
#923=DIRECTION('center_axis',(-0.866025403784439,0.,0.5));
#924=DIRECTION('ref_axis',(0.5,0.,0.866025403784439));
#925=DIRECTION('',(0.5,-1.95013635592004E-8,0.866025403784439));
#926=DIRECTION('',(0.,-1.,0.));
#927=DIRECTION('',(0.,-1.,0.));
#928=DIRECTION('center_axis',(0.50002605278298,0.,0.866010361680663));
#929=DIRECTION('ref_axis',(-0.866010361680663,1.52497401873762E-15,0.50002605278298));
#930=DIRECTION('',(0.,-1.,0.));
#931=DIRECTION('',(0.,-1.,2.22044604925031E-16));
#932=DIRECTION('',(0.,-1.,0.));
#933=DIRECTION('center_axis',(0.,-1.,0.));
#934=DIRECTION('ref_axis',(0.5,0.,0.866025403784439));
#935=DIRECTION('',(0.,-1.,0.));
#936=DIRECTION('center_axis',(0.,-1.,2.22044604925031E-16));
#937=DIRECTION('ref_axis',(1.,0.,0.));
#938=DIRECTION('center_axis',(2.13491744991808E-32,1.,-1.23259516440783E-32));
#939=DIRECTION('ref_axis',(0.5,0.,0.866025403784439));
#940=DIRECTION('',(-0.866025403784439,0.,0.5));
#941=DIRECTION('',(0.5,0.,0.866025403784439));
#942=DIRECTION('',(-0.866025403784439,0.,0.5));
#943=DIRECTION('center_axis',(2.13491744991808E-32,1.,-1.23259516440783E-32));
#944=DIRECTION('ref_axis',(0.866025403784439,0.,-0.5));
#945=DIRECTION('center_axis',(0.,1.,0.));
#946=DIRECTION('ref_axis',(0.866025403784439,0.,-0.5));
#947=DIRECTION('center_axis',(-9.7506817796002E-9,-1.,-1.68886762507037E-8));
#948=DIRECTION('ref_axis',(0.86602541353512,-5.55111512312578E-16,-0.499999983111324));
#949=DIRECTION('',(0.612372435695795,-0.707106781186548,-0.353553390593274));
#950=DIRECTION('center_axis',(0.,-1.,0.));
#951=DIRECTION('ref_axis',(0.866025403784439,0.,-0.5));
#952=DIRECTION('center_axis',(0.,-1.,0.));
#953=DIRECTION('ref_axis',(0.866025403784439,0.,-0.5));
#954=DIRECTION('',(0.,-1.,0.));
#955=DIRECTION('center_axis',(9.7506817796002E-9,1.,1.68886762507037E-8));
#956=DIRECTION('ref_axis',(-0.5,1.95013635592004E-8,-0.866025403784439));
#957=DIRECTION('',(-0.866025403784439,0.,0.5));
#958=DIRECTION('',(-0.5,1.95013635592003E-8,-0.866025403784439));
#959=DIRECTION('',(-0.866025403784439,0.,0.5));
#960=DIRECTION('center_axis',(0.5,0.,0.866025403784439));
#961=DIRECTION('ref_axis',(0.,1.,0.));
#962=DIRECTION('',(0.,1.,0.));
#963=DIRECTION('center_axis',(-0.866025403784439,0.,0.5));
#964=DIRECTION('ref_axis',(0.5,0.,0.866025403784439));
#965=DIRECTION('',(0.,-1.,0.));
#966=DIRECTION('center_axis',(-0.5,0.,-0.866025403784439));
#967=DIRECTION('ref_axis',(0.866025403784439,1.6930529037425E-31,-0.5));
#968=DIRECTION('',(0.,1.,-2.22044604925031E-16));
#969=DIRECTION('center_axis',(0.,1.,-2.22044604925031E-16));
#970=DIRECTION('ref_axis',(1.,0.,0.));
#971=DIRECTION('center_axis',(0.,-1.,2.22044604925031E-16));
#972=DIRECTION('ref_axis',(1.,0.,0.));
#973=DIRECTION('center_axis',(0.,-1.,2.22044604925031E-16));
#974=DIRECTION('ref_axis',(-1.,0.,0.));
#975=DIRECTION('center_axis',(0.,-1.,2.22044604925031E-16));
#976=DIRECTION('ref_axis',(1.,0.,0.));
#977=DIRECTION('center_axis',(0.,-1.,2.22044604925031E-16));
#978=DIRECTION('ref_axis',(1.,0.,0.));
#979=DIRECTION('center_axis',(0.,1.,-2.22044604925031E-16));
#980=DIRECTION('ref_axis',(0.,2.22044604925031E-16,1.));
#981=DIRECTION('center_axis',(0.,1.,2.46519032881566E-32));
#982=DIRECTION('ref_axis',(-1.,0.,0.));
#983=DIRECTION('',(-1.,0.,0.));
#984=DIRECTION('',(0.,0.,-1.));
#985=DIRECTION('center_axis',(0.,1.,2.46519032881566E-32));
#986=DIRECTION('ref_axis',(-1.,0.,0.));
#987=DIRECTION('',(-3.00834237876412E-5,1.52497401873762E-15,-0.999999999547494));
#988=DIRECTION('center_axis',(0.,0.,-1.));
#989=DIRECTION('ref_axis',(-1.,0.,0.));
#990=DIRECTION('',(-1.,-1.95013635592004E-8,0.));
#991=DIRECTION('',(0.,-1.,0.));
#992=DIRECTION('',(0.,-1.,0.));
#993=DIRECTION('center_axis',(0.,1.,-2.22044604925031E-16));
#994=DIRECTION('ref_axis',(1.,0.,0.));
#995=DIRECTION('center_axis',(0.,1.,-2.22044604925031E-16));
#996=DIRECTION('ref_axis',(-1.,0.,0.));
#997=DIRECTION('center_axis',(0.,-1.,2.22044604925031E-16));
#998=DIRECTION('ref_axis',(0.,2.22044604925031E-16,1.));
#999=DIRECTION('center_axis',(0.,-1.,2.22044604925031E-16));
#1000=DIRECTION('ref_axis',(0.,2.22044604925031E-16,1.));
#1001=DIRECTION('',(0.,-1.,2.22044604925031E-16));
#1002=DIRECTION('center_axis',(0.,1.,0.));
#1003=DIRECTION('ref_axis',(-1.,0.,0.));
#1004=DIRECTION('center_axis',(0.,1.,0.));
#1005=DIRECTION('ref_axis',(-1.,0.,0.));
#1006=DIRECTION('center_axis',(0.,-1.,0.));
#1007=DIRECTION('ref_axis',(-1.,0.,0.));
#1008=DIRECTION('center_axis',(0.,1.,0.));
#1009=DIRECTION('ref_axis',(-1.,0.,0.));
#1010=DIRECTION('',(0.,-1.,0.));
#1011=DIRECTION('center_axis',(0.,1.,0.));
#1012=DIRECTION('ref_axis',(-1.,0.,0.));
#1013=DIRECTION('',(0.,1.,0.));
#1014=DIRECTION('center_axis',(-0.999999999547494,0.,3.00834237876412E-5));
#1015=DIRECTION('ref_axis',(-3.00834237876412E-5,1.52497401873762E-15,-0.999999999547494));
#1016=DIRECTION('',(0.,-1.,0.));
#1017=DIRECTION('',(0.,-1.,2.22044604925031E-16));
#1018=DIRECTION('',(0.,-1.,0.));
#1019=DIRECTION('center_axis',(0.,1.,-2.22044604925031E-16));
#1020=DIRECTION('ref_axis',(-0.866024309548346,-1.11022723296487E-16,-0.500001895267719));
#1021=DIRECTION('center_axis',(0.,-1.,0.));
#1022=DIRECTION('ref_axis',(-1.,0.,0.));
#1023=DIRECTION('',(0.,-1.,0.));
#1024=DIRECTION('center_axis',(0.,1.,2.46519032881566E-32));
#1025=DIRECTION('ref_axis',(-1.,0.,0.));
#1026=DIRECTION('',(0.,0.,-1.));
#1027=DIRECTION('',(-1.,0.,0.));
#1028=DIRECTION('',(0.,0.,-1.));
#1029=DIRECTION('center_axis',(0.,1.,2.46519032881566E-32));
#1030=DIRECTION('ref_axis',(0.,0.,1.));
#1031=DIRECTION('center_axis',(0.,1.,0.));
#1032=DIRECTION('ref_axis',(0.,0.,1.));
#1033=DIRECTION('center_axis',(1.95013635592004E-8,-1.,0.));
#1034=DIRECTION('ref_axis',(-1.95013634407548E-8,-5.55111512312578E-16,
1.));
#1035=DIRECTION('',(-8.65956056235493E-17,-0.707106781186548,0.707106781186547));
#1036=DIRECTION('center_axis',(0.,-1.,0.));
#1037=DIRECTION('ref_axis',(0.,0.,1.));
#1038=DIRECTION('center_axis',(0.,-1.,0.));
#1039=DIRECTION('ref_axis',(0.,0.,1.));
#1040=DIRECTION('',(0.,-1.,0.));
#1041=DIRECTION('center_axis',(-1.95013635592004E-8,1.,0.));
#1042=DIRECTION('ref_axis',(1.,1.95013635592004E-8,0.));
#1043=DIRECTION('',(0.,0.,-1.));
#1044=DIRECTION('',(1.,1.95013635592003E-8,0.));
#1045=DIRECTION('',(0.,0.,-1.));
#1046=DIRECTION('center_axis',(-1.,0.,0.));
#1047=DIRECTION('ref_axis',(0.,1.,0.));
#1048=DIRECTION('',(0.,1.,0.));
#1049=DIRECTION('center_axis',(0.,0.,-1.));
#1050=DIRECTION('ref_axis',(-1.,0.,0.));
#1051=DIRECTION('',(0.,-1.,0.));
#1052=DIRECTION('center_axis',(1.,0.,0.));
#1053=DIRECTION('ref_axis',(0.,1.6930529037425E-31,1.));
#1054=CARTESIAN_POINT('',(0.,0.,0.));
#1055=CARTESIAN_POINT('Origin',(16.094271405855,-5.5,9.29203192858131));
#1056=CARTESIAN_POINT('',(15.9447924696374,-5.5,12.0732594111789));
#1057=CARTESIAN_POINT('',(18.4281456498833,-5.5,7.77196552985533));
#1058=CARTESIAN_POINT('',(17.1864690597604,-5.5,9.92261247051713));
#1059=CARTESIAN_POINT('',(13.7603971910789,-5.5,10.8120982766413));
#1060=CARTESIAN_POINT('',(15.9447924403854,-5.5,12.073259461845));
#1061=CARTESIAN_POINT('',(16.2437218518055,-5.50000000000001,6.51087554797174));
#1062=CARTESIAN_POINT('Origin',(0.,-5.5,0.));
#1063=CARTESIAN_POINT('',(18.4281456206313,-5.5,7.77196558052136));
#1064=CARTESIAN_POINT('Origin',(17.1864690305083,4.24999999999999,9.92261252118316));
#1065=CARTESIAN_POINT('',(15.9447924696374,-3.5,12.0732594111789));
#1066=CARTESIAN_POINT('',(18.4281456498833,-3.50000009685755,7.77196552985533));
#1067=CARTESIAN_POINT('',(18.4281456084429,-3.50000009685755,7.77196560163221));
#1068=CARTESIAN_POINT('',(18.4281456206313,2.,7.77196558052136));
#1069=CARTESIAN_POINT('',(18.4281456206313,2.,7.77196558052136));
#1070=CARTESIAN_POINT('',(15.9447924403854,2.,12.073259461845));
#1071=CARTESIAN_POINT('',(18.4281456206313,2.,7.77196558052136));
#1072=CARTESIAN_POINT('',(15.9447924403854,3.125,12.073259461845));
#1073=CARTESIAN_POINT('Origin',(16.2437218518055,2.,6.51087554797174));
#1074=CARTESIAN_POINT('',(16.2437218518055,-3.86612004073615E-15,6.51087554797174));
#1075=CARTESIAN_POINT('',(16.2437218518055,2.,6.51087554797174));
#1076=CARTESIAN_POINT('',(16.2437218518055,2.,6.51087554797174));
#1077=CARTESIAN_POINT('',(16.2437218518055,1.,6.51087554797177));
#1078=CARTESIAN_POINT('',(18.4281456206313,2.,7.77196558052136));
#1079=CARTESIAN_POINT('',(18.4281456498833,5.,7.77196552985533));
#1080=CARTESIAN_POINT('Origin',(-3.84592537276713E-16,2.,2.22044604925031E-16));
#1081=CARTESIAN_POINT('',(13.7603971910789,2.,10.8120982766413));
#1082=CARTESIAN_POINT('',(13.7603971910789,2.,10.8120982766413));
#1083=CARTESIAN_POINT('',(2.48335318024586,2.,-17.322902671959));
#1084=CARTESIAN_POINT('Origin',(0.,2.,-4.44089209850063E-16));
#1085=CARTESIAN_POINT('',(2.48335318024586,2.,-19.8452250423663));
#1086=CARTESIAN_POINT('',(2.48335318024586,2.,-17.322902671959));
#1087=CARTESIAN_POINT('',(-2.48335318024587,2.,-19.8452250423663));
#1088=CARTESIAN_POINT('',(-2.48335318024587,2.,-19.8452250423663));
#1089=CARTESIAN_POINT('',(-2.48327730048028,2.,-17.3229135496578));
#1090=CARTESIAN_POINT('',(-2.48335318024587,2.,-19.8452250423663));
#1091=CARTESIAN_POINT('',(-16.2437503713248,2.,6.51080439531771));
#1092=CARTESIAN_POINT('Origin',(0.,2.,-4.44089209850063E-16));
#1093=CARTESIAN_POINT('',(-18.4281456206313,2.,7.77196558052136));
#1094=CARTESIAN_POINT('',(-16.2437503713248,2.,6.51080439531771));
#1095=CARTESIAN_POINT('',(-15.9447924403854,2.,12.0732594618449));
#1096=CARTESIAN_POINT('',(-15.9447924403854,2.,12.0732594618449));
#1097=CARTESIAN_POINT('',(-13.7604445513252,2.,10.8120380016861));
#1098=CARTESIAN_POINT('',(-15.9447924403854,2.,12.0732594618449));
#1099=CARTESIAN_POINT('Origin',(0.,2.,-4.44089209850063E-16));
#1100=CARTESIAN_POINT('',(4.575,2.,-5.60275910609914E-16));
#1101=CARTESIAN_POINT('Origin',(-6.82180070690891E-16,2.,0.));
#1102=CARTESIAN_POINT('Origin',(0.,2.,0.));
#1103=CARTESIAN_POINT('',(13.7603971910789,-3.88578058618805E-15,10.8120982766413));
#1104=CARTESIAN_POINT('',(13.7603971910789,2.,10.8120982766413));
#1105=CARTESIAN_POINT('Origin',(0.,0.,0.));
#1106=CARTESIAN_POINT('Origin',(16.0942714351071,-5.5,9.29203187791528));
#1107=CARTESIAN_POINT('',(22.7296938304806,-5.5,10.2554655298553));
#1108=CARTESIAN_POINT('',(18.4281456498833,-5.5,7.77196552985533));
#1109=CARTESIAN_POINT('',(20.2463406502347,-5.5,14.5567594111789));
#1110=CARTESIAN_POINT('',(20.2463406502347,-5.5,14.5567594111789));
#1111=CARTESIAN_POINT('',(15.9447924696374,-5.5,12.0732594111789));
#1112=CARTESIAN_POINT('',(20.7228837961141,-5.5,11.9643624705171));
#1113=CARTESIAN_POINT('Origin',(19.337243150059,-5.5,11.1643624705171));
#1114=CARTESIAN_POINT('Origin',(19.337243150059,-3.70000004842878,11.1643624705171));
#1115=CARTESIAN_POINT('',(21.0692939914053,-3.50000000942605,12.1643624900185));
#1116=CARTESIAN_POINT('Origin',(19.3372431305577,-3.50000004842878,11.1643625042945));
#1117=CARTESIAN_POINT('',(20.7228837961141,-3.90000004842878,11.9643624705171));
#1118=CARTESIAN_POINT('',(20.896088876871,-3.70000004842878,12.0643624705171));
#1119=CARTESIAN_POINT('Origin',(19.337243150059,-3.90000004842878,11.1643624705171));
#1120=CARTESIAN_POINT('Origin',(19.337243150059,-96.6700000484288,11.1643624705171));
#1121=CARTESIAN_POINT('',(20.7228837961141,-96.6700000484288,11.9643624705171));
#1122=CARTESIAN_POINT('Origin',(18.4281456498833,-3.50000009685755,7.77196552985533));
#1123=CARTESIAN_POINT('',(20.2463406502347,-3.5,14.5567594111789));
#1124=CARTESIAN_POINT('',(15.9447924696374,-3.5,12.0732594111789));
#1125=CARTESIAN_POINT('',(22.7296938304806,-3.50000009685755,10.2554655298553));
#1126=CARTESIAN_POINT('',(20.2463406502347,-3.5,14.5567594111789));
#1127=CARTESIAN_POINT('',(18.4281456498833,-3.50000009685755,7.77196552985533));
#1128=CARTESIAN_POINT('Origin',(18.4281456498833,-5.5,7.77196552985533));
#1129=CARTESIAN_POINT('',(22.7296938304806,-5.5,10.2554655298553));
#1130=CARTESIAN_POINT('Origin',(21.4880172403577,-4.5,12.4061124705171));
#1131=CARTESIAN_POINT('',(20.2463406502347,-5.5,14.5567594111789));
#1132=CARTESIAN_POINT('Origin',(15.9447924696374,5.,12.0732594111789));
#1133=CARTESIAN_POINT('',(13.7603972275942,1.,10.8120982301687));
#1134=CARTESIAN_POINT('Origin',(0.,1.,-2.22044604925031E-16));
#1135=CARTESIAN_POINT('',(2.48335318024586,-3.88578058618805E-15,-17.322902671959));
#1136=CARTESIAN_POINT('Origin',(0.,0.,0.));
#1137=CARTESIAN_POINT('',(2.48335318024586,0.999999999999996,-17.322902671959));
#1138=CARTESIAN_POINT('Origin',(-16.094271405855,-5.5,9.2920319285813));
#1139=CARTESIAN_POINT('',(-18.4281455913792,-5.5,7.77196563118738));
#1140=CARTESIAN_POINT('',(-15.9447924111334,-5.5,12.073259512511));
#1141=CARTESIAN_POINT('',(-17.1864690012563,-5.5,9.92261257184918));
#1142=CARTESIAN_POINT('',(-16.2437503713248,-5.5,6.51080439531771));
#1143=CARTESIAN_POINT('',(-18.4281456206313,-5.5,7.77196558052136));
#1144=CARTESIAN_POINT('',(-13.7604445513252,-5.50000000000001,10.8120380016861));
#1145=CARTESIAN_POINT('Origin',(0.,-5.5,0.));
#1146=CARTESIAN_POINT('',(-15.9447924403854,-5.5,12.0732594618449));
#1147=CARTESIAN_POINT('Origin',(-17.1864690305083,4.24999999999999,9.92261252118315));
#1148=CARTESIAN_POINT('',(-18.4281455913792,-3.5,7.77196563118738));
#1149=CARTESIAN_POINT('',(-15.9447924111334,-3.50000009685755,12.073259512511));
#1150=CARTESIAN_POINT('',(-15.9447924525738,-3.50000009685755,12.0732594407341));
#1151=CARTESIAN_POINT('',(-15.9447924403854,2.,12.0732594618449));
#1152=CARTESIAN_POINT('',(-18.4281456206313,3.125,7.77196558052136));
#1153=CARTESIAN_POINT('Origin',(-13.7604445513252,2.,10.8120380016861));
#1154=CARTESIAN_POINT('',(-13.7604445513252,-3.86612004073615E-15,10.8120380016861));
#1155=CARTESIAN_POINT('',(-13.7604445513252,2.,10.8120380016861));
#1156=CARTESIAN_POINT('',(-13.7604445513252,1.,10.8120380016861));
#1157=CARTESIAN_POINT('',(-15.9447924111334,5.,12.073259512511));
#1158=CARTESIAN_POINT('Origin',(0.,2.,0.));
#1159=CARTESIAN_POINT('',(-16.2437503713248,-3.88578058618805E-15,6.51080439531771));
#1160=CARTESIAN_POINT('',(-16.2437503713248,2.,6.51080439531771));
#1161=CARTESIAN_POINT('Origin',(0.,0.,0.));
#1162=CARTESIAN_POINT('Origin',(-16.094271376603,-5.5,9.29203197924733));
#1163=CARTESIAN_POINT('',(-20.2463405917307,-5.5,14.556759512511));
#1164=CARTESIAN_POINT('',(-15.9447924111334,-5.5,12.073259512511));
#1165=CARTESIAN_POINT('',(-22.7296937719765,-5.5,10.2554656311874));
#1166=CARTESIAN_POINT('',(-22.7296937719765,-5.5,10.2554656311874));
#1167=CARTESIAN_POINT('',(-18.4281455913792,-5.5,7.77196563118738));
#1168=CARTESIAN_POINT('',(-20.72288373761,-5.5,11.9643625718492));
#1169=CARTESIAN_POINT('Origin',(-19.3372430915549,-5.5,11.1643625718492));
#1170=CARTESIAN_POINT('Origin',(-19.3372430915549,-3.70000004842878,11.1643625718492));
#1171=CARTESIAN_POINT('',(-21.0692939329012,-3.50000000942605,12.1643625913505));
#1172=CARTESIAN_POINT('Origin',(-19.3372431110563,-3.50000004842878,11.1643625380718));
#1173=CARTESIAN_POINT('',(-20.72288373761,-3.90000004842878,11.9643625718492));
#1174=CARTESIAN_POINT('',(-20.8960888183669,-3.70000004842878,12.0643625718492));
#1175=CARTESIAN_POINT('Origin',(-19.3372430915549,-3.90000004842878,11.1643625718492));
#1176=CARTESIAN_POINT('Origin',(-19.3372430915549,-96.6700000484288,11.1643625718492));
#1177=CARTESIAN_POINT('',(-20.72288373761,-96.6700000484288,11.9643625718492));
#1178=CARTESIAN_POINT('Origin',(-15.9447924111334,-3.50000009685755,12.073259512511));
#1179=CARTESIAN_POINT('',(-22.7296937719765,-3.5,10.2554656311874));
#1180=CARTESIAN_POINT('',(-18.4281455913792,-3.5,7.77196563118738));
#1181=CARTESIAN_POINT('',(-20.2463405917307,-3.50000009685755,14.556759512511));
#1182=CARTESIAN_POINT('',(-22.7296937719765,-3.5,10.2554656311874));
#1183=CARTESIAN_POINT('',(-15.9447924111334,-3.50000009685755,12.073259512511));
#1184=CARTESIAN_POINT('Origin',(-15.9447924111334,-5.5,12.073259512511));
#1185=CARTESIAN_POINT('',(-20.2463405917307,-5.5,14.556759512511));
#1186=CARTESIAN_POINT('Origin',(-21.4880171818536,-4.5,12.4061125718492));
#1187=CARTESIAN_POINT('',(-22.7296937719765,-5.5,10.2554656311874));
#1188=CARTESIAN_POINT('Origin',(-18.4281455913792,5.,7.77196563118738));
#1189=CARTESIAN_POINT('',(-16.243750349336,1.,6.51080445017719));
#1190=CARTESIAN_POINT('Origin',(0.,1.,-2.22044604925031E-16));
#1191=CARTESIAN_POINT('Origin',(0.,0.,0.));
#1192=CARTESIAN_POINT('Origin',(0.,0.,0.));
#1193=CARTESIAN_POINT('',(-2.48327730048028,-3.86612004073615E-15,-17.3229135496578));
#1194=CARTESIAN_POINT('Origin',(0.,0.,0.));
#1195=CARTESIAN_POINT('Origin',(0.,0.,0.));
#1196=CARTESIAN_POINT('',(-5.59715390776155E-16,-2.77555756156289E-16,-1.));
#1197=CARTESIAN_POINT('Origin',(-6.82180070690891E-16,0.,0.));
#1198=CARTESIAN_POINT('Origin',(-3.33066907387547E-15,-5.5,-18.5840638571626));
#1199=CARTESIAN_POINT('',(2.48335312174177,-5.5,-19.8452250423663));
#1200=CARTESIAN_POINT('',(-2.48335323874996,-5.5,-19.8452250423663));
#1201=CARTESIAN_POINT('',(-5.85040924039326E-8,-5.5,-19.8452250423663));
#1202=CARTESIAN_POINT('',(2.48335318024586,-5.5,-17.322902671959));
#1203=CARTESIAN_POINT('',(2.48335318024586,-5.5,-19.8452250423663));
#1204=CARTESIAN_POINT('',(-2.48327730048028,-5.50000000000001,-17.3229135496578));
#1205=CARTESIAN_POINT('Origin',(0.,-5.5,0.));
#1206=CARTESIAN_POINT('',(-2.48335318024587,-5.5,-19.8452250423663));
#1207=CARTESIAN_POINT('Origin',(0.,4.24999999999999,-19.8452250423663));
#1208=CARTESIAN_POINT('',(2.48335312174177,-3.5,-19.8452250423663));
#1209=CARTESIAN_POINT('',(-2.48335323874996,-3.50000009685755,-19.8452250423663));
#1210=CARTESIAN_POINT('',(-2.48335315586916,-3.50000009685755,-19.8452250423663));
#1211=CARTESIAN_POINT('',(-2.48335318024587,2.,-19.8452250423663));
#1212=CARTESIAN_POINT('',(2.48335318024586,3.125,-19.8452250423663));
#1213=CARTESIAN_POINT('Origin',(0.,2.,-4.44089209850063E-16));
#1214=CARTESIAN_POINT('',(3.575,2.,-4.37811230695179E-16));
#1215=CARTESIAN_POINT('Origin',(-6.82180070690891E-16,2.,0.));
#1216=CARTESIAN_POINT('',(-5.59715390776155E-16,2.,-1.));
#1217=CARTESIAN_POINT('Origin',(-6.82180070690891E-16,2.,-4.44089209850063E-16));
#1218=CARTESIAN_POINT('Origin',(-6.82180070690891E-16,1.,-2.22044604925031E-16));
#1219=CARTESIAN_POINT('',(-5.59715390776156E-16,1.,-1.));
#1220=CARTESIAN_POINT('Origin',(-5.55111512312578E-16,17.,0.));
#1221=CARTESIAN_POINT('',(4.575,17.,-5.60275910609914E-16));
#1222=CARTESIAN_POINT('Origin',(-6.82180070690891E-16,17.,0.));
#1223=CARTESIAN_POINT('',(3.575,17.,-4.37811230695179E-16));
#1224=CARTESIAN_POINT('Origin',(-6.82180070690891E-16,17.,0.));
#1225=CARTESIAN_POINT('Origin',(-6.82180070690891E-16,2.,0.));
#1226=CARTESIAN_POINT('',(4.575,2.,-5.60275910609914E-16));
#1227=CARTESIAN_POINT('Origin',(-6.82180070690891E-16,2.,0.));
#1228=CARTESIAN_POINT('',(3.575,2.,-4.37811230695179E-16));
#1229=CARTESIAN_POINT('Origin',(-2.48327730048028,2.,-17.3229135496578));
#1230=CARTESIAN_POINT('',(-2.48327730048028,2.,-17.3229135496578));
#1231=CARTESIAN_POINT('',(-2.48327730048028,0.999999999999996,-17.3229135496578));
#1232=CARTESIAN_POINT('',(-2.48335323874996,5.,-19.8452250423663));
#1233=CARTESIAN_POINT('Origin',(0.,1.,-2.22044604925031E-16));
#1234=CARTESIAN_POINT('Origin',(0.,2.,0.));
#1235=CARTESIAN_POINT('',(2.48335318024586,2.,-17.322902671959));
#1236=CARTESIAN_POINT('Origin',(-5.85040940692672E-8,-5.5,-18.5840638571626));
#1237=CARTESIAN_POINT('',(-2.48335323874996,-5.5,-24.8122250423663));
#1238=CARTESIAN_POINT('',(-2.48335323874996,-5.5,-19.8452250423663));
#1239=CARTESIAN_POINT('',(2.48335312174177,-5.5,-24.8122250423663));
#1240=CARTESIAN_POINT('',(2.48335312174177,-5.5,-24.8122250423663));
#1241=CARTESIAN_POINT('',(2.48335312174177,-5.5,-19.8452250423663));
#1242=CARTESIAN_POINT('',(-5.85040956529894E-8,-5.5,-23.9287250423663));
#1243=CARTESIAN_POINT('Origin',(-5.85040954570459E-8,-5.5,-22.3287250423663));
#1244=CARTESIAN_POINT('Origin',(-5.85040954570459E-8,-3.70000004842878,
-22.3287250423663));
#1245=CARTESIAN_POINT('',(-5.85040952121166E-8,-3.50000000942605,-24.328725081369));
#1246=CARTESIAN_POINT('Origin',(-1.95013685755363E-8,-3.50000004842878,
-22.3287250423663));
#1247=CARTESIAN_POINT('',(-5.85040952611025E-8,-3.90000004842878,-23.9287250423663));
#1248=CARTESIAN_POINT('',(-5.85040952366095E-8,-3.70000004842878,-24.1287250423663));
#1249=CARTESIAN_POINT('Origin',(-5.85040954570459E-8,-3.90000004842878,
-22.3287250423663));
#1250=CARTESIAN_POINT('Origin',(-5.85040954570459E-8,-96.6700000484288,
-22.3287250423663));
#1251=CARTESIAN_POINT('',(-5.85040952611025E-8,-96.6700000484288,-23.9287250423663));
#1252=CARTESIAN_POINT('Origin',(-2.48335323874996,-3.50000009685755,-19.8452250423663));
#1253=CARTESIAN_POINT('',(2.48335312174177,-3.5,-24.8122250423663));
#1254=CARTESIAN_POINT('',(2.48335312174177,-3.5,-19.8452250423663));
#1255=CARTESIAN_POINT('',(-2.48335323874996,-3.50000009685755,-24.8122250423663));
#1256=CARTESIAN_POINT('',(2.48335312174177,-3.5,-24.8122250423663));
#1257=CARTESIAN_POINT('',(-2.48335323874996,-3.50000009685755,-19.8452250423663));
#1258=CARTESIAN_POINT('Origin',(-2.48335323874996,-5.5,-19.8452250423663));
#1259=CARTESIAN_POINT('',(-2.48335323874996,-5.5,-24.8122250423663));
#1260=CARTESIAN_POINT('Origin',(-5.85040943468229E-8,-4.5,-24.8122250423663));
#1261=CARTESIAN_POINT('',(2.48335312174177,-5.5,-24.8122250423663));
#1262=CARTESIAN_POINT('Origin',(2.48335312174177,5.,-19.8452250423663));
#1263=UNCERTAINTY_MEASURE_WITH_UNIT(LENGTH_MEASURE(0.01),#1267,
'DISTANCE_ACCURACY_VALUE',
'Maximum model space distance between geometric entities at asserted c
onnectivities');
#1264=UNCERTAINTY_MEASURE_WITH_UNIT(LENGTH_MEASURE(0.01),#1267,
'DISTANCE_ACCURACY_VALUE',
'Maximum model space distance between geometric entities at asserted c
onnectivities');
#1265=(
GEOMETRIC_REPRESENTATION_CONTEXT(3)
GLOBAL_UNCERTAINTY_ASSIGNED_CONTEXT((#1263))
GLOBAL_UNIT_ASSIGNED_CONTEXT((#1267,#1269,#1270))
REPRESENTATION_CONTEXT('','3D')
);
#1266=(
GEOMETRIC_REPRESENTATION_CONTEXT(3)
GLOBAL_UNCERTAINTY_ASSIGNED_CONTEXT((#1264))
GLOBAL_UNIT_ASSIGNED_CONTEXT((#1267,#1269,#1270))
REPRESENTATION_CONTEXT('','3D')
);
#1267=(
LENGTH_UNIT()
NAMED_UNIT(*)
SI_UNIT(.MILLI.,.METRE.)
);
#1268=(
LENGTH_UNIT()
NAMED_UNIT(*)
SI_UNIT($,.METRE.)
);
#1269=(
NAMED_UNIT(*)
PLANE_ANGLE_UNIT()
SI_UNIT($,.RADIAN.)
);
#1270=(
NAMED_UNIT(*)
SI_UNIT($,.STERADIAN.)
SOLID_ANGLE_UNIT()
);
#1271=SHAPE_DEFINITION_REPRESENTATION(#1272,#1273);
#1272=PRODUCT_DEFINITION_SHAPE('',$,#1275);
#1273=SHAPE_REPRESENTATION('',(#766),#1265);
#1274=PRODUCT_DEFINITION_CONTEXT('part definition',#1279,'design');
#1275=PRODUCT_DEFINITION('2026-09-05-18-12-27-884','impeller_bracket',#1276,
#1274);
#1276=PRODUCT_DEFINITION_FORMATION('',$,#1281);
#1277=PRODUCT_RELATED_PRODUCT_CATEGORY('impeller_bracket',
'impeller_bracket',(#1281));
#1278=APPLICATION_PROTOCOL_DEFINITION('international standard',
'automotive_design',2009,#1279);
#1279=APPLICATION_CONTEXT(
'Core Data for Automotive Mechanical Design Process');
#1280=PRODUCT_CONTEXT('part definition',#1279,'mechanical');
#1281=PRODUCT('2026-09-05-18-12-27-884','impeller_bracket',$,(#1280));
#1282=PRESENTATION_STYLE_ASSIGNMENT((#1284));
#1283=PRESENTATION_STYLE_ASSIGNMENT((#1285));
#1284=SURFACE_STYLE_USAGE(.BOTH.,#1286);
#1285=SURFACE_STYLE_USAGE(.BOTH.,#1287);
#1286=SURFACE_SIDE_STYLE('',(#1288));
#1287=SURFACE_SIDE_STYLE('',(#1289));
#1288=SURFACE_STYLE_FILL_AREA(#1290);
#1289=SURFACE_STYLE_FILL_AREA(#1291);
#1290=FILL_AREA_STYLE('\X\C7elik - Saten',(#1292));
#1291=FILL_AREA_STYLE('Opaque(160,160,160)',(#1293));
#1292=FILL_AREA_STYLE_COLOUR('\X\C7elik - Saten',#1294);
#1293=FILL_AREA_STYLE_COLOUR('Opaque(160,160,160)',#1295);
#1294=COLOUR_RGB('\X\C7elik - Saten',0.627450980392157,0.627450980392157,
0.627450980392157);
#1295=COLOUR_RGB('Opaque(160,160,160)',0.627450980392157,0.627450980392157,
0.627450980392157);
ENDSEC;
END-ISO-10303-21;
