ISO-10303-21;
HEADER;
/* Generated by software containing ST-Developer
 * from STEP Tools, Inc. (www.steptools.com) 
 */

FILE_DESCRIPTION(
/* description */ (''),
/* implementation_level */ '2;1');

FILE_NAME(
/* name */ 'impeller blade.step',
/* time_stamp */ '2026-09-05T18:25:35+03:00',
/* author */ (''),
/* organization */ (''),
/* preprocessor_version */ 'ST-DEVELOPER v20.2',
/* originating_system */ 'Autodesk Translation Framework v15.15.0.0',
/* authorisation */ '');

FILE_SCHEMA (('AUTOMOTIVE_DESIGN { 1 0 10303 214 3 1 1 }'));
ENDSEC;

DATA;
#10=MECHANICAL_DESIGN_GEOMETRIC_PRESENTATION_REPRESENTATION('',(#13),#1430);
#11=SHAPE_REPRESENTATION_RELATIONSHIP('SRR','None',#1437,#12);
#12=ADVANCED_BREP_SHAPE_REPRESENTATION('',(#14),#1429);
#13=STYLED_ITEM('',(#1446),#14);
#14=MANIFOLD_SOLID_BREP('G\X\F6vde1',#774);
#15=FACE_BOUND('',#74,.T.);
#16=FACE_BOUND('',#108,.T.);
#17=FACE_BOUND('',#116,.T.);
#18=PLANE('',#791);
#19=PLANE('',#802);
#20=PLANE('',#813);
#21=PLANE('',#824);
#22=PLANE('',#835);
#23=PLANE('',#846);
#24=PLANE('',#857);
#25=PLANE('',#868);
#26=PLANE('',#879);
#27=PLANE('',#881);
#28=PLANE('',#900);
#29=PLANE('',#907);
#30=FACE_OUTER_BOUND('',#72,.T.);
#31=FACE_OUTER_BOUND('',#73,.T.);
#32=FACE_OUTER_BOUND('',#75,.T.);
#33=FACE_OUTER_BOUND('',#76,.T.);
#34=FACE_OUTER_BOUND('',#77,.T.);
#35=FACE_OUTER_BOUND('',#78,.T.);
#36=FACE_OUTER_BOUND('',#79,.T.);
#37=FACE_OUTER_BOUND('',#80,.T.);
#38=FACE_OUTER_BOUND('',#81,.T.);
#39=FACE_OUTER_BOUND('',#82,.T.);
#40=FACE_OUTER_BOUND('',#83,.T.);
#41=FACE_OUTER_BOUND('',#84,.T.);
#42=FACE_OUTER_BOUND('',#85,.T.);
#43=FACE_OUTER_BOUND('',#86,.T.);
#44=FACE_OUTER_BOUND('',#87,.T.);
#45=FACE_OUTER_BOUND('',#88,.T.);
#46=FACE_OUTER_BOUND('',#89,.T.);
#47=FACE_OUTER_BOUND('',#90,.T.);
#48=FACE_OUTER_BOUND('',#91,.T.);
#49=FACE_OUTER_BOUND('',#92,.T.);
#50=FACE_OUTER_BOUND('',#93,.T.);
#51=FACE_OUTER_BOUND('',#94,.T.);
#52=FACE_OUTER_BOUND('',#95,.T.);
#53=FACE_OUTER_BOUND('',#96,.T.);
#54=FACE_OUTER_BOUND('',#97,.T.);
#55=FACE_OUTER_BOUND('',#98,.T.);
#56=FACE_OUTER_BOUND('',#99,.T.);
#57=FACE_OUTER_BOUND('',#100,.T.);
#58=FACE_OUTER_BOUND('',#101,.T.);
#59=FACE_OUTER_BOUND('',#102,.T.);
#60=FACE_OUTER_BOUND('',#103,.T.);
#61=FACE_OUTER_BOUND('',#104,.T.);
#62=FACE_OUTER_BOUND('',#105,.T.);
#63=FACE_OUTER_BOUND('',#106,.T.);
#64=FACE_OUTER_BOUND('',#107,.T.);
#65=FACE_OUTER_BOUND('',#109,.T.);
#66=FACE_OUTER_BOUND('',#110,.T.);
#67=FACE_OUTER_BOUND('',#111,.T.);
#68=FACE_OUTER_BOUND('',#112,.T.);
#69=FACE_OUTER_BOUND('',#113,.T.);
#70=FACE_OUTER_BOUND('',#114,.T.);
#71=FACE_OUTER_BOUND('',#115,.T.);
#72=EDGE_LOOP('',(#468,#469,#470,#471));
#73=EDGE_LOOP('',(#472));
#74=EDGE_LOOP('',(#473));
#75=EDGE_LOOP('',(#474,#475,#476,#477));
#76=EDGE_LOOP('',(#478,#479,#480,#481));
#77=EDGE_LOOP('',(#482,#483,#484,#485));
#78=EDGE_LOOP('',(#486,#487,#488,#489));
#79=EDGE_LOOP('',(#490,#491,#492,#493));
#80=EDGE_LOOP('',(#494,#495,#496,#497));
#81=EDGE_LOOP('',(#498,#499,#500,#501));
#82=EDGE_LOOP('',(#502,#503,#504,#505));
#83=EDGE_LOOP('',(#506,#507,#508,#509));
#84=EDGE_LOOP('',(#510,#511,#512,#513));
#85=EDGE_LOOP('',(#514,#515,#516,#517));
#86=EDGE_LOOP('',(#518,#519,#520,#521));
#87=EDGE_LOOP('',(#522,#523,#524,#525));
#88=EDGE_LOOP('',(#526,#527,#528,#529));
#89=EDGE_LOOP('',(#530,#531,#532,#533));
#90=EDGE_LOOP('',(#534,#535,#536,#537));
#91=EDGE_LOOP('',(#538,#539,#540,#541));
#92=EDGE_LOOP('',(#542,#543,#544,#545));
#93=EDGE_LOOP('',(#546,#547,#548,#549));
#94=EDGE_LOOP('',(#550,#551,#552,#553));
#95=EDGE_LOOP('',(#554,#555,#556,#557));
#96=EDGE_LOOP('',(#558,#559,#560,#561));
#97=EDGE_LOOP('',(#562,#563,#564,#565));
#98=EDGE_LOOP('',(#566,#567,#568,#569));
#99=EDGE_LOOP('',(#570,#571,#572,#573));
#100=EDGE_LOOP('',(#574,#575,#576,#577));
#101=EDGE_LOOP('',(#578,#579,#580,#581));
#102=EDGE_LOOP('',(#582,#583,#584,#585));
#103=EDGE_LOOP('',(#586,#587,#588,#589));
#104=EDGE_LOOP('',(#590,#591,#592,#593));
#105=EDGE_LOOP('',(#594,#595,#596,#597));
#106=EDGE_LOOP('',(#598,#599,#600,#601));
#107=EDGE_LOOP('',(#602,#603,#604,#605,#606,#607,#608,#609,#610,#611,#612,
#613,#614,#615,#616,#617,#618,#619,#620,#621,#622,#623,#624,#625,#626,#627,
#628,#629,#630,#631,#632,#633,#634,#635,#636,#637));
#108=EDGE_LOOP('',(#638));
#109=EDGE_LOOP('',(#639,#640,#641,#642));
#110=EDGE_LOOP('',(#643,#644,#645,#646));
#111=EDGE_LOOP('',(#647,#648,#649,#650));
#112=EDGE_LOOP('',(#651,#652,#653,#654,#655));
#113=EDGE_LOOP('',(#656,#657,#658,#659));
#114=EDGE_LOOP('',(#660,#661,#662,#663,#664,#665,#666,#667,#668,#669,#670,
#671,#672,#673,#674,#675,#676,#677,#678,#679,#680,#681,#682,#683,#684,#685,
#686,#687,#688,#689,#690,#691,#692,#693,#694,#695,#696,#697,#698,#699));
#115=EDGE_LOOP('',(#700));
#116=EDGE_LOOP('',(#701));
#117=LINE('',#1194,#156);
#118=LINE('',#1204,#157);
#119=LINE('',#1207,#158);
#120=LINE('',#1213,#159);
#121=LINE('',#1218,#160);
#122=LINE('',#1227,#161);
#123=LINE('',#1230,#162);
#124=LINE('',#1236,#163);
#125=LINE('',#1241,#164);
#126=LINE('',#1250,#165);
#127=LINE('',#1253,#166);
#128=LINE('',#1259,#167);
#129=LINE('',#1264,#168);
#130=LINE('',#1273,#169);
#131=LINE('',#1276,#170);
#132=LINE('',#1282,#171);
#133=LINE('',#1287,#172);
#134=LINE('',#1296,#173);
#135=LINE('',#1299,#174);
#136=LINE('',#1305,#175);
#137=LINE('',#1310,#176);
#138=LINE('',#1319,#177);
#139=LINE('',#1322,#178);
#140=LINE('',#1328,#179);
#141=LINE('',#1333,#180);
#142=LINE('',#1342,#181);
#143=LINE('',#1345,#182);
#144=LINE('',#1351,#183);
#145=LINE('',#1356,#184);
#146=LINE('',#1365,#185);
#147=LINE('',#1368,#186);
#148=LINE('',#1374,#187);
#149=LINE('',#1379,#188);
#150=LINE('',#1402,#189);
#151=LINE('',#1405,#190);
#152=LINE('',#1409,#191);
#153=LINE('',#1412,#192);
#154=LINE('',#1421,#193);
#155=LINE('',#1424,#194);
#156=VECTOR('',#914,1.475);
#157=VECTOR('',#925,10.);
#158=VECTOR('',#928,10.);
#159=VECTOR('',#935,10.);
#160=VECTOR('',#940,10.);
#161=VECTOR('',#951,10.);
#162=VECTOR('',#954,10.);
#163=VECTOR('',#961,10.);
#164=VECTOR('',#966,10.);
#165=VECTOR('',#977,10.);
#166=VECTOR('',#980,10.);
#167=VECTOR('',#987,10.);
#168=VECTOR('',#992,10.);
#169=VECTOR('',#1003,10.);
#170=VECTOR('',#1006,10.);
#171=VECTOR('',#1013,10.);
#172=VECTOR('',#1018,10.);
#173=VECTOR('',#1029,10.);
#174=VECTOR('',#1032,10.);
#175=VECTOR('',#1039,10.);
#176=VECTOR('',#1044,10.);
#177=VECTOR('',#1055,10.);
#178=VECTOR('',#1058,10.);
#179=VECTOR('',#1065,10.);
#180=VECTOR('',#1070,10.);
#181=VECTOR('',#1081,10.);
#182=VECTOR('',#1084,10.);
#183=VECTOR('',#1091,10.);
#184=VECTOR('',#1096,10.);
#185=VECTOR('',#1107,10.);
#186=VECTOR('',#1110,10.);
#187=VECTOR('',#1117,10.);
#188=VECTOR('',#1122,10.);
#189=VECTOR('',#1157,10.);
#190=VECTOR('',#1160,10.);
#191=VECTOR('',#1165,10.);
#192=VECTOR('',#1168,10.);
#193=VECTOR('',#1181,0.475);
#194=VECTOR('',#1184,15.);
#195=CIRCLE('',#789,1.475);
#196=CIRCLE('',#790,1.475);
#197=CIRCLE('',#792,0.475);
#198=CIRCLE('',#794,3.);
#199=CIRCLE('',#795,3.);
#200=CIRCLE('',#797,10.5408002706486);
#201=CIRCLE('',#798,10.5408002706486);
#202=CIRCLE('',#800,11.3408002706486);
#203=CIRCLE('',#801,11.3408002706486);
#204=CIRCLE('',#803,15.);
#205=CIRCLE('',#805,3.);
#206=CIRCLE('',#806,3.);
#207=CIRCLE('',#808,10.5408002706486);
#208=CIRCLE('',#809,10.5408002706486);
#209=CIRCLE('',#811,11.3408002706486);
#210=CIRCLE('',#812,11.3408002706486);
#211=CIRCLE('',#814,15.);
#212=CIRCLE('',#816,3.);
#213=CIRCLE('',#817,3.);
#214=CIRCLE('',#819,10.5408002706486);
#215=CIRCLE('',#820,10.5408002706486);
#216=CIRCLE('',#822,11.3408002706486);
#217=CIRCLE('',#823,11.3408002706486);
#218=CIRCLE('',#825,15.);
#219=CIRCLE('',#827,3.);
#220=CIRCLE('',#828,3.);
#221=CIRCLE('',#830,10.5408002706486);
#222=CIRCLE('',#831,10.5408002706486);
#223=CIRCLE('',#833,11.3408002706486);
#224=CIRCLE('',#834,11.3408002706486);
#225=CIRCLE('',#836,15.);
#226=CIRCLE('',#838,3.);
#227=CIRCLE('',#839,3.);
#228=CIRCLE('',#841,10.5408002706486);
#229=CIRCLE('',#842,10.5408002706486);
#230=CIRCLE('',#844,11.3408002706486);
#231=CIRCLE('',#845,11.3408002706486);
#232=CIRCLE('',#847,15.);
#233=CIRCLE('',#849,3.);
#234=CIRCLE('',#850,3.);
#235=CIRCLE('',#852,10.5408002706486);
#236=CIRCLE('',#853,10.5408002706486);
#237=CIRCLE('',#855,11.3408002706486);
#238=CIRCLE('',#856,11.3408002706486);
#239=CIRCLE('',#858,15.);
#240=CIRCLE('',#860,3.);
#241=CIRCLE('',#861,3.);
#242=CIRCLE('',#863,10.5408002706486);
#243=CIRCLE('',#864,10.5408002706486);
#244=CIRCLE('',#866,11.3408002706486);
#245=CIRCLE('',#867,11.3408002706486);
#246=CIRCLE('',#869,15.);
#247=CIRCLE('',#871,3.);
#248=CIRCLE('',#872,3.);
#249=CIRCLE('',#874,10.5408002706486);
#250=CIRCLE('',#875,10.5408002706486);
#251=CIRCLE('',#877,11.3408002706486);
#252=CIRCLE('',#878,11.3408002706486);
#253=CIRCLE('',#880,15.);
#254=CIRCLE('',#882,15.);
#255=CIRCLE('',#883,11.3408002706486);
#256=CIRCLE('',#884,3.);
#257=CIRCLE('',#885,10.5408002706486);
#258=CIRCLE('',#886,15.);
#259=CIRCLE('',#887,15.);
#260=CIRCLE('',#888,15.);
#261=CIRCLE('',#889,15.);
#262=CIRCLE('',#890,15.);
#263=CIRCLE('',#891,15.);
#264=CIRCLE('',#892,15.);
#265=CIRCLE('',#893,15.);
#266=CIRCLE('',#895,3.);
#267=CIRCLE('',#897,10.5408002706486);
#268=CIRCLE('',#899,11.3408002706486);
#269=CIRCLE('',#901,15.);
#270=CIRCLE('',#902,15.);
#271=CIRCLE('',#904,0.475);
#272=CIRCLE('',#906,15.);
#273=VERTEX_POINT('',#1191);
#274=VERTEX_POINT('',#1193);
#275=VERTEX_POINT('',#1197);
#276=VERTEX_POINT('',#1200);
#277=VERTEX_POINT('',#1201);
#278=VERTEX_POINT('',#1203);
#279=VERTEX_POINT('',#1205);
#280=VERTEX_POINT('',#1209);
#281=VERTEX_POINT('',#1211);
#282=VERTEX_POINT('',#1215);
#283=VERTEX_POINT('',#1217);
#284=VERTEX_POINT('',#1223);
#285=VERTEX_POINT('',#1224);
#286=VERTEX_POINT('',#1226);
#287=VERTEX_POINT('',#1228);
#288=VERTEX_POINT('',#1232);
#289=VERTEX_POINT('',#1234);
#290=VERTEX_POINT('',#1238);
#291=VERTEX_POINT('',#1240);
#292=VERTEX_POINT('',#1246);
#293=VERTEX_POINT('',#1247);
#294=VERTEX_POINT('',#1249);
#295=VERTEX_POINT('',#1251);
#296=VERTEX_POINT('',#1255);
#297=VERTEX_POINT('',#1257);
#298=VERTEX_POINT('',#1261);
#299=VERTEX_POINT('',#1263);
#300=VERTEX_POINT('',#1269);
#301=VERTEX_POINT('',#1270);
#302=VERTEX_POINT('',#1272);
#303=VERTEX_POINT('',#1274);
#304=VERTEX_POINT('',#1278);
#305=VERTEX_POINT('',#1280);
#306=VERTEX_POINT('',#1284);
#307=VERTEX_POINT('',#1286);
#308=VERTEX_POINT('',#1292);
#309=VERTEX_POINT('',#1293);
#310=VERTEX_POINT('',#1295);
#311=VERTEX_POINT('',#1297);
#312=VERTEX_POINT('',#1301);
#313=VERTEX_POINT('',#1303);
#314=VERTEX_POINT('',#1307);
#315=VERTEX_POINT('',#1309);
#316=VERTEX_POINT('',#1315);
#317=VERTEX_POINT('',#1316);
#318=VERTEX_POINT('',#1318);
#319=VERTEX_POINT('',#1320);
#320=VERTEX_POINT('',#1324);
#321=VERTEX_POINT('',#1326);
#322=VERTEX_POINT('',#1330);
#323=VERTEX_POINT('',#1332);
#324=VERTEX_POINT('',#1338);
#325=VERTEX_POINT('',#1339);
#326=VERTEX_POINT('',#1341);
#327=VERTEX_POINT('',#1343);
#328=VERTEX_POINT('',#1347);
#329=VERTEX_POINT('',#1349);
#330=VERTEX_POINT('',#1353);
#331=VERTEX_POINT('',#1355);
#332=VERTEX_POINT('',#1361);
#333=VERTEX_POINT('',#1362);
#334=VERTEX_POINT('',#1364);
#335=VERTEX_POINT('',#1366);
#336=VERTEX_POINT('',#1370);
#337=VERTEX_POINT('',#1372);
#338=VERTEX_POINT('',#1376);
#339=VERTEX_POINT('',#1378);
#340=VERTEX_POINT('',#1384);
#341=VERTEX_POINT('',#1386);
#342=VERTEX_POINT('',#1388);
#343=VERTEX_POINT('',#1390);
#344=VERTEX_POINT('',#1401);
#345=VERTEX_POINT('',#1403);
#346=VERTEX_POINT('',#1407);
#347=VERTEX_POINT('',#1411);
#348=VERTEX_POINT('',#1415);
#349=VERTEX_POINT('',#1419);
#350=VERTEX_POINT('',#1423);
#351=EDGE_CURVE('',#273,#273,#195,.T.);
#352=EDGE_CURVE('',#273,#274,#117,.T.);
#353=EDGE_CURVE('',#274,#274,#196,.T.);
#354=EDGE_CURVE('',#275,#275,#197,.T.);
#355=EDGE_CURVE('',#276,#277,#198,.T.);
#356=EDGE_CURVE('',#276,#278,#118,.T.);
#357=EDGE_CURVE('',#279,#278,#199,.T.);
#358=EDGE_CURVE('',#277,#279,#119,.T.);
#359=EDGE_CURVE('',#277,#280,#200,.T.);
#360=EDGE_CURVE('',#281,#279,#201,.T.);
#361=EDGE_CURVE('',#280,#281,#120,.T.);
#362=EDGE_CURVE('',#282,#276,#202,.T.);
#363=EDGE_CURVE('',#282,#283,#121,.T.);
#364=EDGE_CURVE('',#278,#283,#203,.T.);
#365=EDGE_CURVE('',#283,#281,#204,.T.);
#366=EDGE_CURVE('',#284,#285,#205,.T.);
#367=EDGE_CURVE('',#284,#286,#122,.T.);
#368=EDGE_CURVE('',#287,#286,#206,.T.);
#369=EDGE_CURVE('',#285,#287,#123,.T.);
#370=EDGE_CURVE('',#285,#288,#207,.T.);
#371=EDGE_CURVE('',#289,#287,#208,.T.);
#372=EDGE_CURVE('',#288,#289,#124,.T.);
#373=EDGE_CURVE('',#290,#284,#209,.T.);
#374=EDGE_CURVE('',#290,#291,#125,.T.);
#375=EDGE_CURVE('',#286,#291,#210,.T.);
#376=EDGE_CURVE('',#291,#289,#211,.T.);
#377=EDGE_CURVE('',#292,#293,#212,.T.);
#378=EDGE_CURVE('',#292,#294,#126,.T.);
#379=EDGE_CURVE('',#295,#294,#213,.T.);
#380=EDGE_CURVE('',#293,#295,#127,.T.);
#381=EDGE_CURVE('',#293,#296,#214,.T.);
#382=EDGE_CURVE('',#297,#295,#215,.T.);
#383=EDGE_CURVE('',#296,#297,#128,.T.);
#384=EDGE_CURVE('',#298,#292,#216,.T.);
#385=EDGE_CURVE('',#298,#299,#129,.T.);
#386=EDGE_CURVE('',#294,#299,#217,.T.);
#387=EDGE_CURVE('',#299,#297,#218,.T.);
#388=EDGE_CURVE('',#300,#301,#219,.T.);
#389=EDGE_CURVE('',#300,#302,#130,.T.);
#390=EDGE_CURVE('',#303,#302,#220,.T.);
#391=EDGE_CURVE('',#301,#303,#131,.T.);
#392=EDGE_CURVE('',#301,#304,#221,.T.);
#393=EDGE_CURVE('',#305,#303,#222,.T.);
#394=EDGE_CURVE('',#304,#305,#132,.T.);
#395=EDGE_CURVE('',#306,#300,#223,.T.);
#396=EDGE_CURVE('',#306,#307,#133,.T.);
#397=EDGE_CURVE('',#302,#307,#224,.T.);
#398=EDGE_CURVE('',#307,#305,#225,.T.);
#399=EDGE_CURVE('',#308,#309,#226,.T.);
#400=EDGE_CURVE('',#308,#310,#134,.T.);
#401=EDGE_CURVE('',#311,#310,#227,.T.);
#402=EDGE_CURVE('',#309,#311,#135,.T.);
#403=EDGE_CURVE('',#309,#312,#228,.T.);
#404=EDGE_CURVE('',#313,#311,#229,.T.);
#405=EDGE_CURVE('',#312,#313,#136,.T.);
#406=EDGE_CURVE('',#314,#308,#230,.T.);
#407=EDGE_CURVE('',#314,#315,#137,.T.);
#408=EDGE_CURVE('',#310,#315,#231,.T.);
#409=EDGE_CURVE('',#315,#313,#232,.T.);
#410=EDGE_CURVE('',#316,#317,#233,.T.);
#411=EDGE_CURVE('',#316,#318,#138,.T.);
#412=EDGE_CURVE('',#319,#318,#234,.T.);
#413=EDGE_CURVE('',#317,#319,#139,.T.);
#414=EDGE_CURVE('',#317,#320,#235,.T.);
#415=EDGE_CURVE('',#321,#319,#236,.T.);
#416=EDGE_CURVE('',#320,#321,#140,.T.);
#417=EDGE_CURVE('',#322,#316,#237,.T.);
#418=EDGE_CURVE('',#322,#323,#141,.T.);
#419=EDGE_CURVE('',#318,#323,#238,.T.);
#420=EDGE_CURVE('',#323,#321,#239,.T.);
#421=EDGE_CURVE('',#324,#325,#240,.T.);
#422=EDGE_CURVE('',#324,#326,#142,.T.);
#423=EDGE_CURVE('',#327,#326,#241,.T.);
#424=EDGE_CURVE('',#325,#327,#143,.T.);
#425=EDGE_CURVE('',#325,#328,#242,.T.);
#426=EDGE_CURVE('',#329,#327,#243,.T.);
#427=EDGE_CURVE('',#328,#329,#144,.T.);
#428=EDGE_CURVE('',#330,#324,#244,.T.);
#429=EDGE_CURVE('',#330,#331,#145,.T.);
#430=EDGE_CURVE('',#326,#331,#245,.T.);
#431=EDGE_CURVE('',#331,#329,#246,.T.);
#432=EDGE_CURVE('',#332,#333,#247,.T.);
#433=EDGE_CURVE('',#332,#334,#146,.T.);
#434=EDGE_CURVE('',#335,#334,#248,.T.);
#435=EDGE_CURVE('',#333,#335,#147,.T.);
#436=EDGE_CURVE('',#333,#336,#249,.T.);
#437=EDGE_CURVE('',#337,#335,#250,.T.);
#438=EDGE_CURVE('',#336,#337,#148,.T.);
#439=EDGE_CURVE('',#338,#332,#251,.T.);
#440=EDGE_CURVE('',#338,#339,#149,.T.);
#441=EDGE_CURVE('',#334,#339,#252,.T.);
#442=EDGE_CURVE('',#339,#337,#253,.T.);
#443=EDGE_CURVE('',#280,#340,#254,.T.);
#444=EDGE_CURVE('',#340,#341,#255,.T.);
#445=EDGE_CURVE('',#341,#342,#256,.T.);
#446=EDGE_CURVE('',#342,#343,#257,.T.);
#447=EDGE_CURVE('',#343,#338,#258,.T.);
#448=EDGE_CURVE('',#336,#330,#259,.T.);
#449=EDGE_CURVE('',#328,#322,#260,.T.);
#450=EDGE_CURVE('',#320,#314,#261,.T.);
#451=EDGE_CURVE('',#312,#306,#262,.T.);
#452=EDGE_CURVE('',#304,#298,#263,.T.);
#453=EDGE_CURVE('',#296,#290,#264,.T.);
#454=EDGE_CURVE('',#288,#282,#265,.T.);
#455=EDGE_CURVE('',#341,#344,#150,.T.);
#456=EDGE_CURVE('',#345,#344,#266,.T.);
#457=EDGE_CURVE('',#342,#345,#151,.T.);
#458=EDGE_CURVE('',#346,#345,#267,.T.);
#459=EDGE_CURVE('',#343,#346,#152,.T.);
#460=EDGE_CURVE('',#340,#347,#153,.T.);
#461=EDGE_CURVE('',#344,#347,#268,.T.);
#462=EDGE_CURVE('',#347,#348,#269,.T.);
#463=EDGE_CURVE('',#348,#346,#270,.T.);
#464=EDGE_CURVE('',#349,#349,#271,.T.);
#465=EDGE_CURVE('',#349,#275,#154,.T.);
#466=EDGE_CURVE('',#348,#350,#155,.T.);
#467=EDGE_CURVE('',#350,#350,#272,.T.);
#468=ORIENTED_EDGE('',*,*,#351,.F.);
#469=ORIENTED_EDGE('',*,*,#352,.T.);
#470=ORIENTED_EDGE('',*,*,#353,.F.);
#471=ORIENTED_EDGE('',*,*,#352,.F.);
#472=ORIENTED_EDGE('',*,*,#351,.T.);
#473=ORIENTED_EDGE('',*,*,#354,.T.);
#474=ORIENTED_EDGE('',*,*,#355,.F.);
#475=ORIENTED_EDGE('',*,*,#356,.T.);
#476=ORIENTED_EDGE('',*,*,#357,.F.);
#477=ORIENTED_EDGE('',*,*,#358,.F.);
#478=ORIENTED_EDGE('',*,*,#359,.F.);
#479=ORIENTED_EDGE('',*,*,#358,.T.);
#480=ORIENTED_EDGE('',*,*,#360,.F.);
#481=ORIENTED_EDGE('',*,*,#361,.F.);
#482=ORIENTED_EDGE('',*,*,#362,.F.);
#483=ORIENTED_EDGE('',*,*,#363,.T.);
#484=ORIENTED_EDGE('',*,*,#364,.F.);
#485=ORIENTED_EDGE('',*,*,#356,.F.);
#486=ORIENTED_EDGE('',*,*,#364,.T.);
#487=ORIENTED_EDGE('',*,*,#365,.T.);
#488=ORIENTED_EDGE('',*,*,#360,.T.);
#489=ORIENTED_EDGE('',*,*,#357,.T.);
#490=ORIENTED_EDGE('',*,*,#366,.F.);
#491=ORIENTED_EDGE('',*,*,#367,.T.);
#492=ORIENTED_EDGE('',*,*,#368,.F.);
#493=ORIENTED_EDGE('',*,*,#369,.F.);
#494=ORIENTED_EDGE('',*,*,#370,.F.);
#495=ORIENTED_EDGE('',*,*,#369,.T.);
#496=ORIENTED_EDGE('',*,*,#371,.F.);
#497=ORIENTED_EDGE('',*,*,#372,.F.);
#498=ORIENTED_EDGE('',*,*,#373,.F.);
#499=ORIENTED_EDGE('',*,*,#374,.T.);
#500=ORIENTED_EDGE('',*,*,#375,.F.);
#501=ORIENTED_EDGE('',*,*,#367,.F.);
#502=ORIENTED_EDGE('',*,*,#375,.T.);
#503=ORIENTED_EDGE('',*,*,#376,.T.);
#504=ORIENTED_EDGE('',*,*,#371,.T.);
#505=ORIENTED_EDGE('',*,*,#368,.T.);
#506=ORIENTED_EDGE('',*,*,#377,.F.);
#507=ORIENTED_EDGE('',*,*,#378,.T.);
#508=ORIENTED_EDGE('',*,*,#379,.F.);
#509=ORIENTED_EDGE('',*,*,#380,.F.);
#510=ORIENTED_EDGE('',*,*,#381,.F.);
#511=ORIENTED_EDGE('',*,*,#380,.T.);
#512=ORIENTED_EDGE('',*,*,#382,.F.);
#513=ORIENTED_EDGE('',*,*,#383,.F.);
#514=ORIENTED_EDGE('',*,*,#384,.F.);
#515=ORIENTED_EDGE('',*,*,#385,.T.);
#516=ORIENTED_EDGE('',*,*,#386,.F.);
#517=ORIENTED_EDGE('',*,*,#378,.F.);
#518=ORIENTED_EDGE('',*,*,#386,.T.);
#519=ORIENTED_EDGE('',*,*,#387,.T.);
#520=ORIENTED_EDGE('',*,*,#382,.T.);
#521=ORIENTED_EDGE('',*,*,#379,.T.);
#522=ORIENTED_EDGE('',*,*,#388,.F.);
#523=ORIENTED_EDGE('',*,*,#389,.T.);
#524=ORIENTED_EDGE('',*,*,#390,.F.);
#525=ORIENTED_EDGE('',*,*,#391,.F.);
#526=ORIENTED_EDGE('',*,*,#392,.F.);
#527=ORIENTED_EDGE('',*,*,#391,.T.);
#528=ORIENTED_EDGE('',*,*,#393,.F.);
#529=ORIENTED_EDGE('',*,*,#394,.F.);
#530=ORIENTED_EDGE('',*,*,#395,.F.);
#531=ORIENTED_EDGE('',*,*,#396,.T.);
#532=ORIENTED_EDGE('',*,*,#397,.F.);
#533=ORIENTED_EDGE('',*,*,#389,.F.);
#534=ORIENTED_EDGE('',*,*,#397,.T.);
#535=ORIENTED_EDGE('',*,*,#398,.T.);
#536=ORIENTED_EDGE('',*,*,#393,.T.);
#537=ORIENTED_EDGE('',*,*,#390,.T.);
#538=ORIENTED_EDGE('',*,*,#399,.F.);
#539=ORIENTED_EDGE('',*,*,#400,.T.);
#540=ORIENTED_EDGE('',*,*,#401,.F.);
#541=ORIENTED_EDGE('',*,*,#402,.F.);
#542=ORIENTED_EDGE('',*,*,#403,.F.);
#543=ORIENTED_EDGE('',*,*,#402,.T.);
#544=ORIENTED_EDGE('',*,*,#404,.F.);
#545=ORIENTED_EDGE('',*,*,#405,.F.);
#546=ORIENTED_EDGE('',*,*,#406,.F.);
#547=ORIENTED_EDGE('',*,*,#407,.T.);
#548=ORIENTED_EDGE('',*,*,#408,.F.);
#549=ORIENTED_EDGE('',*,*,#400,.F.);
#550=ORIENTED_EDGE('',*,*,#408,.T.);
#551=ORIENTED_EDGE('',*,*,#409,.T.);
#552=ORIENTED_EDGE('',*,*,#404,.T.);
#553=ORIENTED_EDGE('',*,*,#401,.T.);
#554=ORIENTED_EDGE('',*,*,#410,.F.);
#555=ORIENTED_EDGE('',*,*,#411,.T.);
#556=ORIENTED_EDGE('',*,*,#412,.F.);
#557=ORIENTED_EDGE('',*,*,#413,.F.);
#558=ORIENTED_EDGE('',*,*,#414,.F.);
#559=ORIENTED_EDGE('',*,*,#413,.T.);
#560=ORIENTED_EDGE('',*,*,#415,.F.);
#561=ORIENTED_EDGE('',*,*,#416,.F.);
#562=ORIENTED_EDGE('',*,*,#417,.F.);
#563=ORIENTED_EDGE('',*,*,#418,.T.);
#564=ORIENTED_EDGE('',*,*,#419,.F.);
#565=ORIENTED_EDGE('',*,*,#411,.F.);
#566=ORIENTED_EDGE('',*,*,#419,.T.);
#567=ORIENTED_EDGE('',*,*,#420,.T.);
#568=ORIENTED_EDGE('',*,*,#415,.T.);
#569=ORIENTED_EDGE('',*,*,#412,.T.);
#570=ORIENTED_EDGE('',*,*,#421,.F.);
#571=ORIENTED_EDGE('',*,*,#422,.T.);
#572=ORIENTED_EDGE('',*,*,#423,.F.);
#573=ORIENTED_EDGE('',*,*,#424,.F.);
#574=ORIENTED_EDGE('',*,*,#425,.F.);
#575=ORIENTED_EDGE('',*,*,#424,.T.);
#576=ORIENTED_EDGE('',*,*,#426,.F.);
#577=ORIENTED_EDGE('',*,*,#427,.F.);
#578=ORIENTED_EDGE('',*,*,#428,.F.);
#579=ORIENTED_EDGE('',*,*,#429,.T.);
#580=ORIENTED_EDGE('',*,*,#430,.F.);
#581=ORIENTED_EDGE('',*,*,#422,.F.);
#582=ORIENTED_EDGE('',*,*,#430,.T.);
#583=ORIENTED_EDGE('',*,*,#431,.T.);
#584=ORIENTED_EDGE('',*,*,#426,.T.);
#585=ORIENTED_EDGE('',*,*,#423,.T.);
#586=ORIENTED_EDGE('',*,*,#432,.F.);
#587=ORIENTED_EDGE('',*,*,#433,.T.);
#588=ORIENTED_EDGE('',*,*,#434,.F.);
#589=ORIENTED_EDGE('',*,*,#435,.F.);
#590=ORIENTED_EDGE('',*,*,#436,.F.);
#591=ORIENTED_EDGE('',*,*,#435,.T.);
#592=ORIENTED_EDGE('',*,*,#437,.F.);
#593=ORIENTED_EDGE('',*,*,#438,.F.);
#594=ORIENTED_EDGE('',*,*,#439,.F.);
#595=ORIENTED_EDGE('',*,*,#440,.T.);
#596=ORIENTED_EDGE('',*,*,#441,.F.);
#597=ORIENTED_EDGE('',*,*,#433,.F.);
#598=ORIENTED_EDGE('',*,*,#441,.T.);
#599=ORIENTED_EDGE('',*,*,#442,.T.);
#600=ORIENTED_EDGE('',*,*,#437,.T.);
#601=ORIENTED_EDGE('',*,*,#434,.T.);
#602=ORIENTED_EDGE('',*,*,#359,.T.);
#603=ORIENTED_EDGE('',*,*,#443,.T.);
#604=ORIENTED_EDGE('',*,*,#444,.T.);
#605=ORIENTED_EDGE('',*,*,#445,.T.);
#606=ORIENTED_EDGE('',*,*,#446,.T.);
#607=ORIENTED_EDGE('',*,*,#447,.T.);
#608=ORIENTED_EDGE('',*,*,#439,.T.);
#609=ORIENTED_EDGE('',*,*,#432,.T.);
#610=ORIENTED_EDGE('',*,*,#436,.T.);
#611=ORIENTED_EDGE('',*,*,#448,.T.);
#612=ORIENTED_EDGE('',*,*,#428,.T.);
#613=ORIENTED_EDGE('',*,*,#421,.T.);
#614=ORIENTED_EDGE('',*,*,#425,.T.);
#615=ORIENTED_EDGE('',*,*,#449,.T.);
#616=ORIENTED_EDGE('',*,*,#417,.T.);
#617=ORIENTED_EDGE('',*,*,#410,.T.);
#618=ORIENTED_EDGE('',*,*,#414,.T.);
#619=ORIENTED_EDGE('',*,*,#450,.T.);
#620=ORIENTED_EDGE('',*,*,#406,.T.);
#621=ORIENTED_EDGE('',*,*,#399,.T.);
#622=ORIENTED_EDGE('',*,*,#403,.T.);
#623=ORIENTED_EDGE('',*,*,#451,.T.);
#624=ORIENTED_EDGE('',*,*,#395,.T.);
#625=ORIENTED_EDGE('',*,*,#388,.T.);
#626=ORIENTED_EDGE('',*,*,#392,.T.);
#627=ORIENTED_EDGE('',*,*,#452,.T.);
#628=ORIENTED_EDGE('',*,*,#384,.T.);
#629=ORIENTED_EDGE('',*,*,#377,.T.);
#630=ORIENTED_EDGE('',*,*,#381,.T.);
#631=ORIENTED_EDGE('',*,*,#453,.T.);
#632=ORIENTED_EDGE('',*,*,#373,.T.);
#633=ORIENTED_EDGE('',*,*,#366,.T.);
#634=ORIENTED_EDGE('',*,*,#370,.T.);
#635=ORIENTED_EDGE('',*,*,#454,.T.);
#636=ORIENTED_EDGE('',*,*,#362,.T.);
#637=ORIENTED_EDGE('',*,*,#355,.T.);
#638=ORIENTED_EDGE('',*,*,#353,.T.);
#639=ORIENTED_EDGE('',*,*,#445,.F.);
#640=ORIENTED_EDGE('',*,*,#455,.T.);
#641=ORIENTED_EDGE('',*,*,#456,.F.);
#642=ORIENTED_EDGE('',*,*,#457,.F.);
#643=ORIENTED_EDGE('',*,*,#446,.F.);
#644=ORIENTED_EDGE('',*,*,#457,.T.);
#645=ORIENTED_EDGE('',*,*,#458,.F.);
#646=ORIENTED_EDGE('',*,*,#459,.F.);
#647=ORIENTED_EDGE('',*,*,#444,.F.);
#648=ORIENTED_EDGE('',*,*,#460,.T.);
#649=ORIENTED_EDGE('',*,*,#461,.F.);
#650=ORIENTED_EDGE('',*,*,#455,.F.);
#651=ORIENTED_EDGE('',*,*,#461,.T.);
#652=ORIENTED_EDGE('',*,*,#462,.T.);
#653=ORIENTED_EDGE('',*,*,#463,.T.);
#654=ORIENTED_EDGE('',*,*,#458,.T.);
#655=ORIENTED_EDGE('',*,*,#456,.T.);
#656=ORIENTED_EDGE('',*,*,#464,.F.);
#657=ORIENTED_EDGE('',*,*,#465,.T.);
#658=ORIENTED_EDGE('',*,*,#354,.F.);
#659=ORIENTED_EDGE('',*,*,#465,.F.);
#660=ORIENTED_EDGE('',*,*,#447,.F.);
#661=ORIENTED_EDGE('',*,*,#459,.T.);
#662=ORIENTED_EDGE('',*,*,#463,.F.);
#663=ORIENTED_EDGE('',*,*,#466,.T.);
#664=ORIENTED_EDGE('',*,*,#467,.F.);
#665=ORIENTED_EDGE('',*,*,#466,.F.);
#666=ORIENTED_EDGE('',*,*,#462,.F.);
#667=ORIENTED_EDGE('',*,*,#460,.F.);
#668=ORIENTED_EDGE('',*,*,#443,.F.);
#669=ORIENTED_EDGE('',*,*,#361,.T.);
#670=ORIENTED_EDGE('',*,*,#365,.F.);
#671=ORIENTED_EDGE('',*,*,#363,.F.);
#672=ORIENTED_EDGE('',*,*,#454,.F.);
#673=ORIENTED_EDGE('',*,*,#372,.T.);
#674=ORIENTED_EDGE('',*,*,#376,.F.);
#675=ORIENTED_EDGE('',*,*,#374,.F.);
#676=ORIENTED_EDGE('',*,*,#453,.F.);
#677=ORIENTED_EDGE('',*,*,#383,.T.);
#678=ORIENTED_EDGE('',*,*,#387,.F.);
#679=ORIENTED_EDGE('',*,*,#385,.F.);
#680=ORIENTED_EDGE('',*,*,#452,.F.);
#681=ORIENTED_EDGE('',*,*,#394,.T.);
#682=ORIENTED_EDGE('',*,*,#398,.F.);
#683=ORIENTED_EDGE('',*,*,#396,.F.);
#684=ORIENTED_EDGE('',*,*,#451,.F.);
#685=ORIENTED_EDGE('',*,*,#405,.T.);
#686=ORIENTED_EDGE('',*,*,#409,.F.);
#687=ORIENTED_EDGE('',*,*,#407,.F.);
#688=ORIENTED_EDGE('',*,*,#450,.F.);
#689=ORIENTED_EDGE('',*,*,#416,.T.);
#690=ORIENTED_EDGE('',*,*,#420,.F.);
#691=ORIENTED_EDGE('',*,*,#418,.F.);
#692=ORIENTED_EDGE('',*,*,#449,.F.);
#693=ORIENTED_EDGE('',*,*,#427,.T.);
#694=ORIENTED_EDGE('',*,*,#431,.F.);
#695=ORIENTED_EDGE('',*,*,#429,.F.);
#696=ORIENTED_EDGE('',*,*,#448,.F.);
#697=ORIENTED_EDGE('',*,*,#438,.T.);
#698=ORIENTED_EDGE('',*,*,#442,.F.);
#699=ORIENTED_EDGE('',*,*,#440,.F.);
#700=ORIENTED_EDGE('',*,*,#467,.T.);
#701=ORIENTED_EDGE('',*,*,#464,.T.);
#702=CYLINDRICAL_SURFACE('',#788,1.475);
#703=CYLINDRICAL_SURFACE('',#793,3.);
#704=CYLINDRICAL_SURFACE('',#796,10.5408002706486);
#705=CYLINDRICAL_SURFACE('',#799,11.3408002706486);
#706=CYLINDRICAL_SURFACE('',#804,3.);
#707=CYLINDRICAL_SURFACE('',#807,10.5408002706486);
#708=CYLINDRICAL_SURFACE('',#810,11.3408002706486);
#709=CYLINDRICAL_SURFACE('',#815,3.);
#710=CYLINDRICAL_SURFACE('',#818,10.5408002706486);
#711=CYLINDRICAL_SURFACE('',#821,11.3408002706486);
#712=CYLINDRICAL_SURFACE('',#826,3.);
#713=CYLINDRICAL_SURFACE('',#829,10.5408002706486);
#714=CYLINDRICAL_SURFACE('',#832,11.3408002706486);
#715=CYLINDRICAL_SURFACE('',#837,3.);
#716=CYLINDRICAL_SURFACE('',#840,10.5408002706486);
#717=CYLINDRICAL_SURFACE('',#843,11.3408002706486);
#718=CYLINDRICAL_SURFACE('',#848,3.);
#719=CYLINDRICAL_SURFACE('',#851,10.5408002706486);
#720=CYLINDRICAL_SURFACE('',#854,11.3408002706486);
#721=CYLINDRICAL_SURFACE('',#859,3.);
#722=CYLINDRICAL_SURFACE('',#862,10.5408002706486);
#723=CYLINDRICAL_SURFACE('',#865,11.3408002706486);
#724=CYLINDRICAL_SURFACE('',#870,3.);
#725=CYLINDRICAL_SURFACE('',#873,10.5408002706486);
#726=CYLINDRICAL_SURFACE('',#876,11.3408002706486);
#727=CYLINDRICAL_SURFACE('',#894,3.);
#728=CYLINDRICAL_SURFACE('',#896,10.5408002706486);
#729=CYLINDRICAL_SURFACE('',#898,11.3408002706486);
#730=CYLINDRICAL_SURFACE('',#903,0.475);
#731=CYLINDRICAL_SURFACE('',#905,15.);
#732=ADVANCED_FACE('',(#30),#702,.T.);
#733=ADVANCED_FACE('',(#31,#15),#18,.T.);
#734=ADVANCED_FACE('',(#32),#703,.F.);
#735=ADVANCED_FACE('',(#33),#704,.F.);
#736=ADVANCED_FACE('',(#34),#705,.T.);
#737=ADVANCED_FACE('',(#35),#19,.T.);
#738=ADVANCED_FACE('',(#36),#706,.F.);
#739=ADVANCED_FACE('',(#37),#707,.F.);
#740=ADVANCED_FACE('',(#38),#708,.T.);
#741=ADVANCED_FACE('',(#39),#20,.T.);
#742=ADVANCED_FACE('',(#40),#709,.F.);
#743=ADVANCED_FACE('',(#41),#710,.F.);
#744=ADVANCED_FACE('',(#42),#711,.T.);
#745=ADVANCED_FACE('',(#43),#21,.T.);
#746=ADVANCED_FACE('',(#44),#712,.F.);
#747=ADVANCED_FACE('',(#45),#713,.F.);
#748=ADVANCED_FACE('',(#46),#714,.T.);
#749=ADVANCED_FACE('',(#47),#22,.T.);
#750=ADVANCED_FACE('',(#48),#715,.F.);
#751=ADVANCED_FACE('',(#49),#716,.F.);
#752=ADVANCED_FACE('',(#50),#717,.T.);
#753=ADVANCED_FACE('',(#51),#23,.T.);
#754=ADVANCED_FACE('',(#52),#718,.F.);
#755=ADVANCED_FACE('',(#53),#719,.F.);
#756=ADVANCED_FACE('',(#54),#720,.T.);
#757=ADVANCED_FACE('',(#55),#24,.T.);
#758=ADVANCED_FACE('',(#56),#721,.F.);
#759=ADVANCED_FACE('',(#57),#722,.F.);
#760=ADVANCED_FACE('',(#58),#723,.T.);
#761=ADVANCED_FACE('',(#59),#25,.T.);
#762=ADVANCED_FACE('',(#60),#724,.F.);
#763=ADVANCED_FACE('',(#61),#725,.F.);
#764=ADVANCED_FACE('',(#62),#726,.T.);
#765=ADVANCED_FACE('',(#63),#26,.T.);
#766=ADVANCED_FACE('',(#64,#16),#27,.T.);
#767=ADVANCED_FACE('',(#65),#727,.F.);
#768=ADVANCED_FACE('',(#66),#728,.F.);
#769=ADVANCED_FACE('',(#67),#729,.T.);
#770=ADVANCED_FACE('',(#68),#28,.T.);
#771=ADVANCED_FACE('',(#69),#730,.F.);
#772=ADVANCED_FACE('',(#70),#731,.T.);
#773=ADVANCED_FACE('',(#71,#17),#29,.T.);
#774=CLOSED_SHELL('',(#732,#733,#734,#735,#736,#737,#738,#739,#740,#741,
#742,#743,#744,#745,#746,#747,#748,#749,#750,#751,#752,#753,#754,#755,#756,
#757,#758,#759,#760,#761,#762,#763,#764,#765,#766,#767,#768,#769,#770,#771,
#772,#773));
#775=DERIVED_UNIT_ELEMENT(#777,1.);
#776=DERIVED_UNIT_ELEMENT(#1432,-3.);
#777=(
MASS_UNIT()
NAMED_UNIT(*)
SI_UNIT(.KILO.,.GRAM.)
);
#778=DERIVED_UNIT((#775,#776));
#779=MEASURE_REPRESENTATION_ITEM('density measure',
POSITIVE_RATIO_MEASURE(7850.),#778);
#780=PROPERTY_DEFINITION_REPRESENTATION(#785,#782);
#781=PROPERTY_DEFINITION_REPRESENTATION(#786,#783);
#782=REPRESENTATION('material name',(#784),#1429);
#783=REPRESENTATION('density',(#779),#1429);
#784=DESCRIPTIVE_REPRESENTATION_ITEM('\X\C7elik','\X\C7elik');
#785=PROPERTY_DEFINITION('material property','material name',#1439);
#786=PROPERTY_DEFINITION('material property','density of part',#1439);
#787=AXIS2_PLACEMENT_3D('',#1189,#908,#909);
#788=AXIS2_PLACEMENT_3D('',#1190,#910,#911);
#789=AXIS2_PLACEMENT_3D('',#1192,#912,#913);
#790=AXIS2_PLACEMENT_3D('',#1195,#915,#916);
#791=AXIS2_PLACEMENT_3D('',#1196,#917,#918);
#792=AXIS2_PLACEMENT_3D('',#1198,#919,#920);
#793=AXIS2_PLACEMENT_3D('',#1199,#921,#922);
#794=AXIS2_PLACEMENT_3D('',#1202,#923,#924);
#795=AXIS2_PLACEMENT_3D('',#1206,#926,#927);
#796=AXIS2_PLACEMENT_3D('',#1208,#929,#930);
#797=AXIS2_PLACEMENT_3D('',#1210,#931,#932);
#798=AXIS2_PLACEMENT_3D('',#1212,#933,#934);
#799=AXIS2_PLACEMENT_3D('',#1214,#936,#937);
#800=AXIS2_PLACEMENT_3D('',#1216,#938,#939);
#801=AXIS2_PLACEMENT_3D('',#1219,#941,#942);
#802=AXIS2_PLACEMENT_3D('',#1220,#943,#944);
#803=AXIS2_PLACEMENT_3D('',#1221,#945,#946);
#804=AXIS2_PLACEMENT_3D('',#1222,#947,#948);
#805=AXIS2_PLACEMENT_3D('',#1225,#949,#950);
#806=AXIS2_PLACEMENT_3D('',#1229,#952,#953);
#807=AXIS2_PLACEMENT_3D('',#1231,#955,#956);
#808=AXIS2_PLACEMENT_3D('',#1233,#957,#958);
#809=AXIS2_PLACEMENT_3D('',#1235,#959,#960);
#810=AXIS2_PLACEMENT_3D('',#1237,#962,#963);
#811=AXIS2_PLACEMENT_3D('',#1239,#964,#965);
#812=AXIS2_PLACEMENT_3D('',#1242,#967,#968);
#813=AXIS2_PLACEMENT_3D('',#1243,#969,#970);
#814=AXIS2_PLACEMENT_3D('',#1244,#971,#972);
#815=AXIS2_PLACEMENT_3D('',#1245,#973,#974);
#816=AXIS2_PLACEMENT_3D('',#1248,#975,#976);
#817=AXIS2_PLACEMENT_3D('',#1252,#978,#979);
#818=AXIS2_PLACEMENT_3D('',#1254,#981,#982);
#819=AXIS2_PLACEMENT_3D('',#1256,#983,#984);
#820=AXIS2_PLACEMENT_3D('',#1258,#985,#986);
#821=AXIS2_PLACEMENT_3D('',#1260,#988,#989);
#822=AXIS2_PLACEMENT_3D('',#1262,#990,#991);
#823=AXIS2_PLACEMENT_3D('',#1265,#993,#994);
#824=AXIS2_PLACEMENT_3D('',#1266,#995,#996);
#825=AXIS2_PLACEMENT_3D('',#1267,#997,#998);
#826=AXIS2_PLACEMENT_3D('',#1268,#999,#1000);
#827=AXIS2_PLACEMENT_3D('',#1271,#1001,#1002);
#828=AXIS2_PLACEMENT_3D('',#1275,#1004,#1005);
#829=AXIS2_PLACEMENT_3D('',#1277,#1007,#1008);
#830=AXIS2_PLACEMENT_3D('',#1279,#1009,#1010);
#831=AXIS2_PLACEMENT_3D('',#1281,#1011,#1012);
#832=AXIS2_PLACEMENT_3D('',#1283,#1014,#1015);
#833=AXIS2_PLACEMENT_3D('',#1285,#1016,#1017);
#834=AXIS2_PLACEMENT_3D('',#1288,#1019,#1020);
#835=AXIS2_PLACEMENT_3D('',#1289,#1021,#1022);
#836=AXIS2_PLACEMENT_3D('',#1290,#1023,#1024);
#837=AXIS2_PLACEMENT_3D('',#1291,#1025,#1026);
#838=AXIS2_PLACEMENT_3D('',#1294,#1027,#1028);
#839=AXIS2_PLACEMENT_3D('',#1298,#1030,#1031);
#840=AXIS2_PLACEMENT_3D('',#1300,#1033,#1034);
#841=AXIS2_PLACEMENT_3D('',#1302,#1035,#1036);
#842=AXIS2_PLACEMENT_3D('',#1304,#1037,#1038);
#843=AXIS2_PLACEMENT_3D('',#1306,#1040,#1041);
#844=AXIS2_PLACEMENT_3D('',#1308,#1042,#1043);
#845=AXIS2_PLACEMENT_3D('',#1311,#1045,#1046);
#846=AXIS2_PLACEMENT_3D('',#1312,#1047,#1048);
#847=AXIS2_PLACEMENT_3D('',#1313,#1049,#1050);
#848=AXIS2_PLACEMENT_3D('',#1314,#1051,#1052);
#849=AXIS2_PLACEMENT_3D('',#1317,#1053,#1054);
#850=AXIS2_PLACEMENT_3D('',#1321,#1056,#1057);
#851=AXIS2_PLACEMENT_3D('',#1323,#1059,#1060);
#852=AXIS2_PLACEMENT_3D('',#1325,#1061,#1062);
#853=AXIS2_PLACEMENT_3D('',#1327,#1063,#1064);
#854=AXIS2_PLACEMENT_3D('',#1329,#1066,#1067);
#855=AXIS2_PLACEMENT_3D('',#1331,#1068,#1069);
#856=AXIS2_PLACEMENT_3D('',#1334,#1071,#1072);
#857=AXIS2_PLACEMENT_3D('',#1335,#1073,#1074);
#858=AXIS2_PLACEMENT_3D('',#1336,#1075,#1076);
#859=AXIS2_PLACEMENT_3D('',#1337,#1077,#1078);
#860=AXIS2_PLACEMENT_3D('',#1340,#1079,#1080);
#861=AXIS2_PLACEMENT_3D('',#1344,#1082,#1083);
#862=AXIS2_PLACEMENT_3D('',#1346,#1085,#1086);
#863=AXIS2_PLACEMENT_3D('',#1348,#1087,#1088);
#864=AXIS2_PLACEMENT_3D('',#1350,#1089,#1090);
#865=AXIS2_PLACEMENT_3D('',#1352,#1092,#1093);
#866=AXIS2_PLACEMENT_3D('',#1354,#1094,#1095);
#867=AXIS2_PLACEMENT_3D('',#1357,#1097,#1098);
#868=AXIS2_PLACEMENT_3D('',#1358,#1099,#1100);
#869=AXIS2_PLACEMENT_3D('',#1359,#1101,#1102);
#870=AXIS2_PLACEMENT_3D('',#1360,#1103,#1104);
#871=AXIS2_PLACEMENT_3D('',#1363,#1105,#1106);
#872=AXIS2_PLACEMENT_3D('',#1367,#1108,#1109);
#873=AXIS2_PLACEMENT_3D('',#1369,#1111,#1112);
#874=AXIS2_PLACEMENT_3D('',#1371,#1113,#1114);
#875=AXIS2_PLACEMENT_3D('',#1373,#1115,#1116);
#876=AXIS2_PLACEMENT_3D('',#1375,#1118,#1119);
#877=AXIS2_PLACEMENT_3D('',#1377,#1120,#1121);
#878=AXIS2_PLACEMENT_3D('',#1380,#1123,#1124);
#879=AXIS2_PLACEMENT_3D('',#1381,#1125,#1126);
#880=AXIS2_PLACEMENT_3D('',#1382,#1127,#1128);
#881=AXIS2_PLACEMENT_3D('',#1383,#1129,#1130);
#882=AXIS2_PLACEMENT_3D('',#1385,#1131,#1132);
#883=AXIS2_PLACEMENT_3D('',#1387,#1133,#1134);
#884=AXIS2_PLACEMENT_3D('',#1389,#1135,#1136);
#885=AXIS2_PLACEMENT_3D('',#1391,#1137,#1138);
#886=AXIS2_PLACEMENT_3D('',#1392,#1139,#1140);
#887=AXIS2_PLACEMENT_3D('',#1393,#1141,#1142);
#888=AXIS2_PLACEMENT_3D('',#1394,#1143,#1144);
#889=AXIS2_PLACEMENT_3D('',#1395,#1145,#1146);
#890=AXIS2_PLACEMENT_3D('',#1396,#1147,#1148);
#891=AXIS2_PLACEMENT_3D('',#1397,#1149,#1150);
#892=AXIS2_PLACEMENT_3D('',#1398,#1151,#1152);
#893=AXIS2_PLACEMENT_3D('',#1399,#1153,#1154);
#894=AXIS2_PLACEMENT_3D('',#1400,#1155,#1156);
#895=AXIS2_PLACEMENT_3D('',#1404,#1158,#1159);
#896=AXIS2_PLACEMENT_3D('',#1406,#1161,#1162);
#897=AXIS2_PLACEMENT_3D('',#1408,#1163,#1164);
#898=AXIS2_PLACEMENT_3D('',#1410,#1166,#1167);
#899=AXIS2_PLACEMENT_3D('',#1413,#1169,#1170);
#900=AXIS2_PLACEMENT_3D('',#1414,#1171,#1172);
#901=AXIS2_PLACEMENT_3D('',#1416,#1173,#1174);
#902=AXIS2_PLACEMENT_3D('',#1417,#1175,#1176);
#903=AXIS2_PLACEMENT_3D('',#1418,#1177,#1178);
#904=AXIS2_PLACEMENT_3D('',#1420,#1179,#1180);
#905=AXIS2_PLACEMENT_3D('',#1422,#1182,#1183);
#906=AXIS2_PLACEMENT_3D('',#1425,#1185,#1186);
#907=AXIS2_PLACEMENT_3D('',#1426,#1187,#1188);
#908=DIRECTION('axis',(0.,0.,1.));
#909=DIRECTION('refdir',(1.,0.,0.));
#910=DIRECTION('center_axis',(0.,1.,-2.22044604925031E-16));
#911=DIRECTION('ref_axis',(1.,0.,0.));
#912=DIRECTION('center_axis',(0.,1.,-2.22044604925031E-16));
#913=DIRECTION('ref_axis',(1.,0.,0.));
#914=DIRECTION('',(0.,-1.,2.22044604925031E-16));
#915=DIRECTION('center_axis',(0.,-1.,2.22044604925031E-16));
#916=DIRECTION('ref_axis',(1.,0.,0.));
#917=DIRECTION('center_axis',(0.,1.,-2.22044604925031E-16));
#918=DIRECTION('ref_axis',(1.,0.,0.));
#919=DIRECTION('center_axis',(0.,-1.,2.22044604925031E-16));
#920=DIRECTION('ref_axis',(0.,0.,-1.));
#921=DIRECTION('center_axis',(0.,1.,0.));
#922=DIRECTION('ref_axis',(-0.766044443118978,0.,-0.642787609686539));
#923=DIRECTION('center_axis',(0.,1.,-2.22044604925031E-16));
#924=DIRECTION('ref_axis',(-0.766044443118978,0.,-0.642787609686539));
#925=DIRECTION('',(0.,1.,0.));
#926=DIRECTION('center_axis',(-1.58459379888179E-32,-1.,1.88844535261988E-32));
#927=DIRECTION('ref_axis',(-0.766044443118978,0.,-0.642787609686539));
#928=DIRECTION('',(0.,1.,0.));
#929=DIRECTION('center_axis',(0.,1.,0.));
#930=DIRECTION('ref_axis',(0.926664752640259,0.,-0.375888861519157));
#931=DIRECTION('center_axis',(0.,1.,-2.22044604925031E-16));
#932=DIRECTION('ref_axis',(0.926664752640259,0.,-0.375888861519157));
#933=DIRECTION('center_axis',(4.59250309082723E-33,-1.,-3.27600999058652E-33));
#934=DIRECTION('ref_axis',(0.926664752640259,5.48712640634799E-33,-0.375888861519157));
#935=DIRECTION('',(0.,1.,0.));
#936=DIRECTION('center_axis',(0.,1.,0.));
#937=DIRECTION('ref_axis',(0.926664752640259,0.,-0.375888861519157));
#938=DIRECTION('center_axis',(0.,-1.,2.22044604925031E-16));
#939=DIRECTION('ref_axis',(0.926664752640259,0.,-0.375888861519157));
#940=DIRECTION('',(0.,1.,0.));
#941=DIRECTION('center_axis',(-5.08472663404429E-33,1.,2.06254969789385E-33));
#942=DIRECTION('ref_axis',(0.926664752640259,5.48712640634799E-33,-0.375888861519157));
#943=DIRECTION('center_axis',(-4.59250309082723E-33,1.,3.27600999058652E-33));
#944=DIRECTION('ref_axis',(-0.766044443118978,-1.4122828415766E-33,-0.64278760968654));
#945=DIRECTION('center_axis',(0.,1.,0.));
#946=DIRECTION('ref_axis',(-0.766044443118978,0.,-0.64278760968654));
#947=DIRECTION('center_axis',(0.,1.,0.));
#948=DIRECTION('ref_axis',(-0.17364817766693,0.,-0.984807753012208));
#949=DIRECTION('center_axis',(0.,1.,-2.22044604925031E-16));
#950=DIRECTION('ref_axis',(-0.17364817766693,0.,-0.984807753012208));
#951=DIRECTION('',(0.,1.,0.));
#952=DIRECTION('center_axis',(-2.42773854846838E-32,-1.,4.2807580820098E-33));
#953=DIRECTION('ref_axis',(-0.17364817766693,0.,-0.984807753012208));
#954=DIRECTION('',(0.,1.,0.));
#955=DIRECTION('center_axis',(0.,1.,0.));
#956=DIRECTION('ref_axis',(0.951483087197986,0.,0.307701047733331));
#957=DIRECTION('center_axis',(0.,1.,-2.22044604925031E-16));
#958=DIRECTION('ref_axis',(0.951483087197986,0.,0.307701047733331));
#959=DIRECTION('center_axis',(5.62384010389326E-33,-1.,4.42434835339825E-34));
#960=DIRECTION('ref_axis',(0.951483087197986,5.48712640634799E-33,0.307701047733331));
#961=DIRECTION('',(0.,1.,0.));
#962=DIRECTION('center_axis',(0.,1.,0.));
#963=DIRECTION('ref_axis',(0.951483087197986,0.,0.307701047733331));
#964=DIRECTION('center_axis',(0.,-1.,2.22044604925031E-16));
#965=DIRECTION('ref_axis',(0.951483087197986,0.,0.307701047733331));
#966=DIRECTION('',(0.,1.,0.));
#967=DIRECTION('center_axis',(-5.22090797295758E-33,1.,-1.6883945442785E-33));
#968=DIRECTION('ref_axis',(0.951483087197986,5.48712640634799E-33,0.307701047733331));
#969=DIRECTION('center_axis',(-5.62384010389326E-33,1.,-4.42434835339825E-34));
#970=DIRECTION('ref_axis',(-0.17364817766693,-1.4122828415766E-33,-0.984807753012208));
#971=DIRECTION('center_axis',(0.,1.,0.));
#972=DIRECTION('ref_axis',(-0.17364817766693,0.,-0.984807753012208));
#973=DIRECTION('center_axis',(0.,1.,0.));
#974=DIRECTION('ref_axis',(0.5,0.,-0.866025403784438));
#975=DIRECTION('center_axis',(0.,1.,-2.22044604925031E-16));
#976=DIRECTION('ref_axis',(0.5,0.,-0.866025403784438));
#977=DIRECTION('',(0.,1.,0.));
#978=DIRECTION('center_axis',(-2.13491744991808E-32,-1.,-1.23259516440783E-32));
#979=DIRECTION('ref_axis',(0.5,0.,-0.866025403784438));
#980=DIRECTION('',(0.,1.,0.));
#981=DIRECTION('center_axis',(0.,1.,0.));
#982=DIRECTION('ref_axis',(0.531091910699156,0.,0.847314217035168));
#983=DIRECTION('center_axis',(0.,1.,-2.22044604925031E-16));
#984=DIRECTION('ref_axis',(0.531091910699156,0.,0.847314217035168));
#985=DIRECTION('center_axis',(4.02371983032694E-33,-1.,3.95385948469518E-33));
#986=DIRECTION('ref_axis',(0.531091910699156,5.48712640634799E-33,0.847314217035168));
#987=DIRECTION('',(0.,1.,0.));
#988=DIRECTION('center_axis',(0.,1.,0.));
#989=DIRECTION('ref_axis',(0.531091910699156,0.,0.847314217035168));
#990=DIRECTION('center_axis',(0.,-1.,2.22044604925031E-16));
#991=DIRECTION('ref_axis',(0.531091910699156,0.,0.847314217035168));
#992=DIRECTION('',(0.,1.,0.));
#993=DIRECTION('center_axis',(-2.91416844739515E-33,1.,-4.64932021476774E-33));
#994=DIRECTION('ref_axis',(0.531091910699156,5.48712640634799E-33,0.847314217035168));
#995=DIRECTION('center_axis',(-4.02371983032694E-33,1.,-3.95385948469518E-33));
#996=DIRECTION('ref_axis',(0.5,-1.4122828415766E-33,-0.866025403784438));
#997=DIRECTION('center_axis',(0.,1.,0.));
#998=DIRECTION('ref_axis',(0.5,0.,-0.866025403784438));
#999=DIRECTION('center_axis',(0.,1.,0.));
#1000=DIRECTION('ref_axis',(0.939692620785908,0.,-0.342020143325669));
#1001=DIRECTION('center_axis',(0.,1.,-2.22044604925031E-16));
#1002=DIRECTION('ref_axis',(0.939692620785908,0.,-0.342020143325669));
#1003=DIRECTION('',(0.,1.,0.));
#1004=DIRECTION('center_axis',(-8.43144749586585E-33,-1.,-2.31652116082087E-32));
#1005=DIRECTION('ref_axis',(0.939692620785908,0.,-0.342020143325669));
#1006=DIRECTION('',(0.,1.,0.));
#1007=DIRECTION('center_axis',(0.,1.,0.));
#1008=DIRECTION('ref_axis',(-0.137803073244928,0.,0.990459647337666));
#1009=DIRECTION('center_axis',(0.,1.,-2.22044604925031E-16));
#1010=DIRECTION('ref_axis',(-0.137803073244928,0.,0.990459647337666));
#1011=DIRECTION('center_axis',(5.40856329485927E-34,-1.,5.61522933890819E-33));
#1012=DIRECTION('ref_axis',(-0.137803073244928,5.48712640634799E-33,0.990459647337666));
#1013=DIRECTION('',(0.,1.,0.));
#1014=DIRECTION('center_axis',(0.,1.,0.));
#1015=DIRECTION('ref_axis',(-0.137803073244928,0.,0.990459647337666));
#1016=DIRECTION('center_axis',(0.,-1.,2.22044604925031E-16));
#1017=DIRECTION('ref_axis',(-0.137803073244928,0.,0.990459647337666));
#1018=DIRECTION('',(0.,1.,0.));
#1019=DIRECTION('center_axis',(7.56142882078152E-34,1.,-5.43477728532862E-33));
#1020=DIRECTION('ref_axis',(-0.137803073244928,5.48712640634799E-33,0.990459647337666));
#1021=DIRECTION('center_axis',(-5.40856329485927E-34,1.,-5.61522933890819E-33));
#1022=DIRECTION('ref_axis',(0.939692620785909,-1.4122828415766E-33,-0.342020143325669));
#1023=DIRECTION('center_axis',(0.,1.,0.));
#1024=DIRECTION('ref_axis',(0.939692620785908,0.,-0.342020143325669));
#1025=DIRECTION('center_axis',(0.,1.,0.));
#1026=DIRECTION('ref_axis',(0.939692620785908,0.,0.342020143325669));
#1027=DIRECTION('center_axis',(0.,1.,-2.22044604925031E-16));
#1028=DIRECTION('ref_axis',(0.939692620785908,0.,0.342020143325669));
#1029=DIRECTION('',(0.,1.,0.));
#1030=DIRECTION('center_axis',(8.43144749586586E-33,-1.,-2.31652116082086E-32));
#1031=DIRECTION('ref_axis',(0.939692620785908,0.,0.342020143325669));
#1032=DIRECTION('',(0.,1.,0.));
#1033=DIRECTION('center_axis',(0.,1.,0.));
#1034=DIRECTION('ref_axis',(-0.742218467707146,0.,0.670158000918035));
#1035=DIRECTION('center_axis',(0.,1.,-2.22044604925031E-16));
#1036=DIRECTION('ref_axis',(-0.742218467707146,0.,0.670158000918035));
#1037=DIRECTION('center_axis',(-3.1950798588701E-33,-1.,4.64917097912337E-33));
#1038=DIRECTION('ref_axis',(-0.742218467707146,5.48712640634799E-33,0.670158000918035));
#1039=DIRECTION('',(0.,1.,0.));
#1040=DIRECTION('center_axis',(0.,1.,0.));
#1041=DIRECTION('ref_axis',(-0.742218467707146,0.,0.670158000918035));
#1042=DIRECTION('center_axis',(0.,-1.,2.22044604925031E-16));
#1043=DIRECTION('ref_axis',(-0.742218467707146,0.,0.670158000918035));
#1044=DIRECTION('',(0.,1.,0.));
#1045=DIRECTION('center_axis',(4.07264655343502E-33,1.,-3.67724166326273E-33));
#1046=DIRECTION('ref_axis',(-0.742218467707146,5.48712640634799E-33,0.670158000918035));
#1047=DIRECTION('center_axis',(3.1950798588701E-33,1.,-4.64917097912337E-33));
#1048=DIRECTION('ref_axis',(0.939692620785908,-1.4122828415766E-33,0.342020143325669));
#1049=DIRECTION('center_axis',(0.,1.,0.));
#1050=DIRECTION('ref_axis',(0.939692620785908,0.,0.342020143325669));
#1051=DIRECTION('center_axis',(0.,1.,0.));
#1052=DIRECTION('ref_axis',(0.5,0.,0.866025403784439));
#1053=DIRECTION('center_axis',(0.,1.,-2.22044604925031E-16));
#1054=DIRECTION('ref_axis',(0.5,0.,0.866025403784439));
#1055=DIRECTION('',(0.,1.,0.));
#1056=DIRECTION('center_axis',(2.13491744991808E-32,-1.,-1.23259516440783E-32));
#1057=DIRECTION('ref_axis',(0.5,0.,0.866025403784439));
#1058=DIRECTION('',(0.,1.,0.));
#1059=DIRECTION('center_axis',(0.,1.,0.));
#1060=DIRECTION('ref_axis',(-0.999341592289755,0.,0.0362819778923015));
#1061=DIRECTION('center_axis',(0.,1.,-2.22044604925031E-16));
#1062=DIRECTION('ref_axis',(-0.999341592289755,0.,0.0362819778923015));
#1063=DIRECTION('center_axis',(-5.43600267190355E-33,-1.,1.50771384842676E-33));
#1064=DIRECTION('ref_axis',(-0.999341592289755,5.48712640634799E-33,0.0362819778923015));
#1065=DIRECTION('',(0.,1.,0.));
#1066=DIRECTION('center_axis',(0.,1.,0.));
#1067=DIRECTION('ref_axis',(-0.999341592289755,0.,0.0362819778923015));
#1068=DIRECTION('center_axis',(0.,-1.,2.22044604925031E-16));
#1069=DIRECTION('ref_axis',(-0.999341592289755,0.,0.0362819778923015));
#1070=DIRECTION('',(0.,1.,0.));
#1071=DIRECTION('center_axis',(5.48351364001496E-33,1.,-1.99083798967382E-34));
#1072=DIRECTION('ref_axis',(-0.999341592289755,5.48712640634799E-33,0.0362819778923015));
#1073=DIRECTION('center_axis',(5.43600267190355E-33,1.,-1.50771384842676E-33));
#1074=DIRECTION('ref_axis',(0.5,-1.4122828415766E-33,0.866025403784439));
#1075=DIRECTION('center_axis',(0.,1.,0.));
#1076=DIRECTION('ref_axis',(0.5,0.,0.866025403784439));
#1077=DIRECTION('center_axis',(0.,1.,0.));
#1078=DIRECTION('ref_axis',(-0.17364817766693,0.,0.984807753012208));
#1079=DIRECTION('center_axis',(0.,1.,-2.22044604925031E-16));
#1080=DIRECTION('ref_axis',(-0.17364817766693,0.,0.984807753012208));
#1081=DIRECTION('',(0.,1.,0.));
#1082=DIRECTION('center_axis',(2.42773854846838E-32,-1.,4.2807580820098E-33));
#1083=DIRECTION('ref_axis',(-0.17364817766693,0.,0.984807753012208));
#1084=DIRECTION('',(0.,1.,0.));
#1085=DIRECTION('center_axis',(0.,1.,0.));
#1086=DIRECTION('ref_axis',(-0.78886167939533,0.,-0.614570785818508));
#1087=DIRECTION('center_axis',(0.,1.,-2.22044604925031E-16));
#1088=DIRECTION('ref_axis',(-0.78886167939533,0.,-0.614570785818508));
#1089=DIRECTION('center_axis',(-5.13335942031316E-33,-1.,-2.33921934832168E-33));
#1090=DIRECTION('ref_axis',(-0.78886167939533,5.48712640634799E-33,-0.614570785818508));
#1091=DIRECTION('',(0.,1.,0.));
#1092=DIRECTION('center_axis',(0.,1.,0.));
#1093=DIRECTION('ref_axis',(-0.78886167939533,0.,-0.614570785818508));
#1094=DIRECTION('center_axis',(0.,-1.,2.22044604925031E-16));
#1095=DIRECTION('ref_axis',(-0.78886167939533,0.,-0.614570785818508));
#1096=DIRECTION('',(0.,1.,0.));
#1097=DIRECTION('center_axis',(4.32858375196614E-33,1.,3.37222758743477E-33));
#1098=DIRECTION('ref_axis',(-0.78886167939533,5.48712640634799E-33,-0.614570785818508));
#1099=DIRECTION('center_axis',(5.13335942031316E-33,1.,2.33921934832168E-33));
#1100=DIRECTION('ref_axis',(-0.17364817766693,-1.4122828415766E-33,0.984807753012208));
#1101=DIRECTION('center_axis',(0.,1.,0.));
#1102=DIRECTION('ref_axis',(-0.17364817766693,0.,0.984807753012208));
#1103=DIRECTION('center_axis',(0.,1.,0.));
#1104=DIRECTION('ref_axis',(-0.766044443118978,0.,0.642787609686539));
#1105=DIRECTION('center_axis',(0.,1.,-2.22044604925031E-16));
#1106=DIRECTION('ref_axis',(-0.766044443118978,0.,0.642787609686539));
#1107=DIRECTION('',(0.,1.,0.));
#1108=DIRECTION('center_axis',(1.58459379888179E-32,-1.,1.88844535261988E-32));
#1109=DIRECTION('ref_axis',(-0.766044443118978,0.,0.642787609686539));
#1110=DIRECTION('',(0.,1.,0.));
#1111=DIRECTION('center_axis',(0.,1.,0.));
#1112=DIRECTION('ref_axis',(-0.209264619490841,0.,-0.977859048651366));
#1113=DIRECTION('center_axis',(0.,1.,-2.22044604925031E-16));
#1114=DIRECTION('ref_axis',(-0.209264619490841,0.,-0.977859048651366));
#1115=DIRECTION('center_axis',(-2.42876024502316E-33,-1.,-5.09160581446319E-33));
#1116=DIRECTION('ref_axis',(-0.209264619490841,5.48712640634799E-33,-0.977859048651366));
#1117=DIRECTION('',(0.,1.,0.));
#1118=DIRECTION('center_axis',(0.,1.,0.));
#1119=DIRECTION('ref_axis',(-0.209264619490841,0.,-0.977859048651366));
#1120=DIRECTION('center_axis',(0.,-1.,2.22044604925031E-16));
#1121=DIRECTION('ref_axis',(-0.209264619490841,0.,-0.977859048651366));
#1122=DIRECTION('',(0.,1.,0.));
#1123=DIRECTION('center_axis',(1.14826141952256E-33,1.,5.36563620754123E-33));
#1124=DIRECTION('ref_axis',(-0.209264619490841,5.48712640634799E-33,-0.977859048651366));
#1125=DIRECTION('center_axis',(2.42876024502316E-33,1.,5.09160581446319E-33));
#1126=DIRECTION('ref_axis',(-0.766044443118978,-1.4122828415766E-33,0.642787609686539));
#1127=DIRECTION('center_axis',(0.,1.,0.));
#1128=DIRECTION('ref_axis',(-0.766044443118978,0.,0.642787609686539));
#1129=DIRECTION('center_axis',(0.,1.,-2.22044604925031E-16));
#1130=DIRECTION('ref_axis',(1.,0.,0.));
#1131=DIRECTION('center_axis',(0.,1.,-2.22044604925031E-16));
#1132=DIRECTION('ref_axis',(1.,0.,0.));
#1133=DIRECTION('center_axis',(0.,-1.,2.22044604925031E-16));
#1134=DIRECTION('ref_axis',(0.468249681590599,0.,-0.88359619492747));
#1135=DIRECTION('center_axis',(0.,1.,-2.22044604925031E-16));
#1136=DIRECTION('ref_axis',(-1.,0.,0.));
#1137=DIRECTION('center_axis',(0.,1.,-2.22044604925031E-16));
#1138=DIRECTION('ref_axis',(0.468249681590599,0.,-0.88359619492747));
#1139=DIRECTION('center_axis',(0.,1.,-2.22044604925031E-16));
#1140=DIRECTION('ref_axis',(1.,0.,0.));
#1141=DIRECTION('center_axis',(0.,1.,-2.22044604925031E-16));
#1142=DIRECTION('ref_axis',(1.,0.,0.));
#1143=DIRECTION('center_axis',(0.,1.,-2.22044604925031E-16));
#1144=DIRECTION('ref_axis',(1.,0.,0.));
#1145=DIRECTION('center_axis',(0.,1.,-2.22044604925031E-16));
#1146=DIRECTION('ref_axis',(1.,0.,0.));
#1147=DIRECTION('center_axis',(0.,1.,-2.22044604925031E-16));
#1148=DIRECTION('ref_axis',(1.,0.,0.));
#1149=DIRECTION('center_axis',(0.,1.,-2.22044604925031E-16));
#1150=DIRECTION('ref_axis',(1.,0.,0.));
#1151=DIRECTION('center_axis',(0.,1.,-2.22044604925031E-16));
#1152=DIRECTION('ref_axis',(1.,0.,0.));
#1153=DIRECTION('center_axis',(0.,1.,-2.22044604925031E-16));
#1154=DIRECTION('ref_axis',(1.,0.,0.));
#1155=DIRECTION('center_axis',(0.,1.,0.));
#1156=DIRECTION('ref_axis',(-1.,0.,0.));
#1157=DIRECTION('',(0.,1.,0.));
#1158=DIRECTION('center_axis',(0.,-1.,2.46519032881566E-32));
#1159=DIRECTION('ref_axis',(-1.,0.,0.));
#1160=DIRECTION('',(0.,1.,0.));
#1161=DIRECTION('center_axis',(0.,1.,0.));
#1162=DIRECTION('ref_axis',(0.468249681590599,0.,-0.88359619492747));
#1163=DIRECTION('center_axis',(1.4122828415766E-33,-1.,-5.46157333312194E-33));
#1164=DIRECTION('ref_axis',(0.468249681590599,5.48712640634799E-33,-0.88359619492747));
#1165=DIRECTION('',(0.,1.,0.));
#1166=DIRECTION('center_axis',(0.,1.,0.));
#1167=DIRECTION('ref_axis',(0.468249681590599,0.,-0.88359619492747));
#1168=DIRECTION('',(0.,1.,0.));
#1169=DIRECTION('center_axis',(-2.56934519261981E-33,1.,4.84840401373512E-33));
#1170=DIRECTION('ref_axis',(0.468249681590599,5.48712640634799E-33,-0.88359619492747));
#1171=DIRECTION('center_axis',(-1.4122828415766E-33,1.,5.46157333312194E-33));
#1172=DIRECTION('ref_axis',(-1.,-1.4122828415766E-33,0.));
#1173=DIRECTION('center_axis',(0.,1.,0.));
#1174=DIRECTION('ref_axis',(-1.,0.,0.));
#1175=DIRECTION('center_axis',(0.,1.,0.));
#1176=DIRECTION('ref_axis',(-1.,0.,0.));
#1177=DIRECTION('center_axis',(0.,1.,-2.22044604925031E-16));
#1178=DIRECTION('ref_axis',(0.,-2.22044604925031E-16,-1.));
#1179=DIRECTION('center_axis',(0.,1.,-2.22044604925031E-16));
#1180=DIRECTION('ref_axis',(0.,-2.22044604925031E-16,-1.));
#1181=DIRECTION('',(0.,1.,-2.22044604925031E-16));
#1182=DIRECTION('center_axis',(0.,1.,-2.22044604925031E-16));
#1183=DIRECTION('ref_axis',(1.,0.,0.));
#1184=DIRECTION('',(0.,-1.,2.22044604925031E-16));
#1185=DIRECTION('center_axis',(0.,-1.,2.22044604925031E-16));
#1186=DIRECTION('ref_axis',(1.,0.,0.));
#1187=DIRECTION('center_axis',(0.,-1.,2.22044604925031E-16));
#1188=DIRECTION('ref_axis',(-1.,0.,0.));
#1189=CARTESIAN_POINT('',(0.,0.,0.));
#1190=CARTESIAN_POINT('Origin',(-5.55111512312578E-16,3.25,-4.9960036108132E-16));
#1191=CARTESIAN_POINT('',(-1.475,5.5,-8.18565319288406E-16));
#1192=CARTESIAN_POINT('Origin',(-5.55111512312578E-16,5.5,-9.99200722162641E-16));
#1193=CARTESIAN_POINT('',(-1.475,1.,1.80635402874235E-16));
#1194=CARTESIAN_POINT('',(-1.475,3.25,-3.18964958207086E-16));
#1195=CARTESIAN_POINT('Origin',(-5.55111512312578E-16,1.,0.));
#1196=CARTESIAN_POINT('Origin',(-5.55111512312578E-16,5.5,-9.99200722162641E-16));
#1197=CARTESIAN_POINT('',(-5.81707229594993E-17,5.5,0.475));
#1198=CARTESIAN_POINT('Origin',(0.,5.5,0.));
#1199=CARTESIAN_POINT('Origin',(1.58459379888179E-32,1.,-1.88844535261988E-32));
#1200=CARTESIAN_POINT('',(-1.2820416454779,1.,-2.71226274893498));
#1201=CARTESIAN_POINT('',(-1.96392043069364,1.,-2.26782198196951));
#1202=CARTESIAN_POINT('Origin',(1.58459379888179E-32,1.,-1.88844535261988E-32));
#1203=CARTESIAN_POINT('',(-1.2820416454779,5.5,-2.71226274893498));
#1204=CARTESIAN_POINT('',(-1.2820416454779,1.,-2.71226274893498));
#1205=CARTESIAN_POINT('',(-1.96392043069364,5.5,-2.26782198196951));
#1206=CARTESIAN_POINT('Origin',(1.58459379888179E-32,5.5,-1.88844535261988E-32));
#1207=CARTESIAN_POINT('',(-1.96392043069364,1.,-2.26782198196951));
#1208=CARTESIAN_POINT('Origin',(-11.7317085061246,1.,1.69434743126542));
#1209=CARTESIAN_POINT('',(-12.1188298836091,1.,-8.83934173183411));
#1210=CARTESIAN_POINT('Origin',(-11.7317085061246,1.,1.69434743126542));
#1211=CARTESIAN_POINT('',(-12.1188298836091,5.5,-8.83934173183411));
#1212=CARTESIAN_POINT('Origin',(-11.7317085061246,5.5,1.69434743126542));
#1213=CARTESIAN_POINT('',(-12.1188298836091,1.,-8.83934173183411));
#1214=CARTESIAN_POINT('Origin',(-11.7317085061246,1.,1.69434743126542));
#1215=CARTESIAN_POINT('',(-11.4889543452051,1.,-9.64385441894434));
#1216=CARTESIAN_POINT('Origin',(-11.7317085061246,1.,1.69434743126542));
#1217=CARTESIAN_POINT('',(-11.4889543452051,5.5,-9.64385441894434));
#1218=CARTESIAN_POINT('',(-11.4889543452051,1.,-9.64385441894434));
#1219=CARTESIAN_POINT('Origin',(-11.7317085061246,5.5,1.69434743126542));
#1220=CARTESIAN_POINT('Origin',(-6.31252370039569,5.5,-6.26502614606476));
#1221=CARTESIAN_POINT('Origin',(-4.47925930593659E-16,5.5,-3.75854483155879E-16));
#1222=CARTESIAN_POINT('Origin',(2.42773854846838E-32,1.,-4.2807580820098E-33));
#1223=CARTESIAN_POINT('',(0.761308010864299,1.,-2.90179429191558));
#1224=CARTESIAN_POINT('',(-0.0467224616759163,1.,-2.99963614653093));
#1225=CARTESIAN_POINT('Origin',(2.42773854846838E-32,1.,-4.2807580820098E-33));
#1226=CARTESIAN_POINT('',(0.761308010864299,5.5,-2.90179429191558));
#1227=CARTESIAN_POINT('',(0.761308010864299,1.,-2.90179429191558));
#1228=CARTESIAN_POINT('',(-0.0467224616759163,5.5,-2.99963614653093));
#1229=CARTESIAN_POINT('Origin',(2.42773854846838E-32,5.5,-4.2807580820098E-33));
#1230=CARTESIAN_POINT('',(-0.0467224616759163,1.,-2.99963614653093));
#1231=CARTESIAN_POINT('Origin',(-10.07611564473,1.,-6.24305143375729));
#1232=CARTESIAN_POINT('',(-3.60174294643481,1.,-14.5611623075841));
#1233=CARTESIAN_POINT('Origin',(-10.07611564473,1.,-6.24305143375729));
#1234=CARTESIAN_POINT('',(-3.60174294643481,5.5,-14.5611623075841));
#1235=CARTESIAN_POINT('Origin',(-10.07611564473,5.5,-6.24305143375729));
#1236=CARTESIAN_POINT('',(-3.60174294643481,1.,-14.5611623075841));
#1237=CARTESIAN_POINT('Origin',(-10.07611564473,1.,-6.24305143375729));
#1238=CARTESIAN_POINT('',(-2.60209950327382,1.,-14.7725785892329));
#1239=CARTESIAN_POINT('Origin',(-10.07611564473,1.,-6.24305143375729));
#1240=CARTESIAN_POINT('',(-2.60209950327382,5.5,-14.7725785892329));
#1241=CARTESIAN_POINT('',(-2.60209950327382,1.,-14.7725785892329));
#1242=CARTESIAN_POINT('Origin',(-10.07611564473,5.5,-6.24305143375729));
#1243=CARTESIAN_POINT('Origin',(-0.808592521692328,5.5,-8.85690048565499));
#1244=CARTESIAN_POINT('Origin',(-1.01536565242432E-16,5.5,-5.75842476485833E-16));
#1245=CARTESIAN_POINT('Origin',(2.13491744991808E-32,1.,1.23259516440783E-32));
#1246=CARTESIAN_POINT('',(2.44843318792702,1.,-1.73354403585762));
#1247=CARTESIAN_POINT('',(1.89233746642229,1.,-2.32788722088818));
#1248=CARTESIAN_POINT('Origin',(2.13491744991808E-32,1.,1.23259516440783E-32));
#1249=CARTESIAN_POINT('',(2.44843318792702,5.5,-1.73354403585762));
#1250=CARTESIAN_POINT('',(2.44843318792702,1.,-1.73354403585762));
#1251=CARTESIAN_POINT('',(1.89233746642229,5.5,-2.32788722088818));
#1252=CARTESIAN_POINT('Origin',(2.13491744991808E-32,5.5,1.23259516440783E-32));
#1253=CARTESIAN_POINT('',(1.89233746642229,1.,-2.32788722088818));
#1254=CARTESIAN_POINT('Origin',(-3.70579628961467,1.,-11.2592571491369));
#1255=CARTESIAN_POINT('',(6.60063954429034,1.,-13.4696532103225));
#1256=CARTESIAN_POINT('Origin',(-3.70579628961467,1.,-11.2592571491369));
#1257=CARTESIAN_POINT('',(6.60063954429034,5.5,-13.4696532103225));
#1258=CARTESIAN_POINT('Origin',(-3.70579628961467,5.5,-11.2592571491369));
#1259=CARTESIAN_POINT('',(6.60063954429034,1.,-13.4696532103225));
#1260=CARTESIAN_POINT('Origin',(-3.70579628961467,1.,-11.2592571491369));
#1261=CARTESIAN_POINT('',(7.502306615354,1.,-12.9890490586962));
#1262=CARTESIAN_POINT('Origin',(-3.70579628961467,1.,-11.2592571491369));
#1263=CARTESIAN_POINT('',(7.502306615354,5.5,-12.9890490586962));
#1264=CARTESIAN_POINT('',(7.502306615354,1.,-12.9890490586962));
#1265=CARTESIAN_POINT('Origin',(-3.70579628961467,5.5,-11.2592571491369));
#1266=CARTESIAN_POINT('Origin',(5.07368808441575,5.5,-7.30453265452281));
#1267=CARTESIAN_POINT('Origin',(2.92362887438953E-16,5.5,-5.06387375291808E-16));
#1268=CARTESIAN_POINT('Origin',(8.43144749586585E-33,1.,2.31652116082087E-32));
#1269=CARTESIAN_POINT('',(2.98990926505486,1.,0.245850740774023));
#1270=CARTESIAN_POINT('',(2.94595166299319,1.,-0.566893993007208));
#1271=CARTESIAN_POINT('Origin',(8.43144749586585E-33,1.,2.31652116082087E-32));
#1272=CARTESIAN_POINT('',(2.98990926505486,5.5,0.245850740774023));
#1273=CARTESIAN_POINT('',(2.98990926505486,1.,0.245850740774023));
#1274=CARTESIAN_POINT('',(2.94595166299319,5.5,-0.566893993007208));
#1275=CARTESIAN_POINT('Origin',(8.43144749586585E-33,5.5,2.31652116082087E-32));
#1276=CARTESIAN_POINT('',(2.94595166299319,1.,-0.566893993007208));
#1277=CARTESIAN_POINT('Origin',(4.39850633474954,1.,-11.0071313117306));
#1278=CARTESIAN_POINT('',(13.7145094343048,1.,-6.07554367743041));
#1279=CARTESIAN_POINT('Origin',(4.39850633474954,1.,-11.0071313117306));
#1280=CARTESIAN_POINT('',(13.7145094343048,5.5,-6.07554367743041));
#1281=CARTESIAN_POINT('Origin',(4.39850633474954,5.5,-11.0071313117306));
#1282=CARTESIAN_POINT('',(13.7145094343048,1.,-6.07554367743041));
#1283=CARTESIAN_POINT('Origin',(4.39850633474954,1.,-11.0071313117306));
#1284=CARTESIAN_POINT('',(14.0963000898072,1.,-5.12779911639508));
#1285=CARTESIAN_POINT('Origin',(4.39850633474954,1.,-11.0071313117306));
#1286=CARTESIAN_POINT('',(14.0963000898072,5.5,-5.12779911639508));
#1287=CARTESIAN_POINT('',(14.0963000898072,1.,-5.12779911639508));
#1288=CARTESIAN_POINT('Origin',(4.39850633474954,5.5,-11.0071313117306));
#1289=CARTESIAN_POINT('Origin',(8.58193364806364,5.5,-2.33429281350164));
#1290=CARTESIAN_POINT('Origin',(5.49462495836091E-16,5.5,-1.99987993329954E-16));
#1291=CARTESIAN_POINT('Origin',(-8.43144749586586E-33,1.,2.31652116082087E-32));
#1292=CARTESIAN_POINT('',(2.13237356792342,1.,2.11020922347087));
#1293=CARTESIAN_POINT('',(2.62112233584381,1.,1.45935523452678));
#1294=CARTESIAN_POINT('Origin',(-8.43144749586586E-33,1.,2.31652116082087E-32));
#1295=CARTESIAN_POINT('',(2.13237356792342,5.5,2.11020922347087));
#1296=CARTESIAN_POINT('',(2.13237356792342,1.,2.11020922347087));
#1297=CARTESIAN_POINT('',(2.62112233584381,5.5,1.45935523452678));
#1298=CARTESIAN_POINT('Origin',(-8.43144749586586E-33,5.5,2.31652116082087E-32));
#1299=CARTESIAN_POINT('',(2.62112233584381,1.,1.45935523452678));
#1300=CARTESIAN_POINT('Origin',(10.4446989611317,1.,-5.60464640292738));
#1301=CARTESIAN_POINT('',(14.4112079402137,1.,4.16138026427808));
#1302=CARTESIAN_POINT('Origin',(10.4446989611317,1.,-5.60464640292738));
#1303=CARTESIAN_POINT('',(14.4112079402137,5.5,4.16138026427808));
#1304=CARTESIAN_POINT('Origin',(10.4446989611317,5.5,-5.60464640292738));
#1305=CARTESIAN_POINT('',(14.4112079402137,1.,4.16138026427808));
#1306=CARTESIAN_POINT('Origin',(10.4446989611317,1.,-5.60464640292738));
#1307=CARTESIAN_POINT('',(14.0944780893147,1.,5.13280502160645));
#1308=CARTESIAN_POINT('Origin',(10.4446989611317,1.,-5.60464640292738));
#1309=CARTESIAN_POINT('',(14.0944780893147,5.5,5.13280502160645));
#1310=CARTESIAN_POINT('',(14.0944780893147,1.,5.13280502160645));
#1311=CARTESIAN_POINT('Origin',(10.4446989611317,5.5,-5.60464640292738));
#1312=CARTESIAN_POINT('Origin',(8.07459708021412,5.5,3.72818857773182));
#1313=CARTESIAN_POINT('Origin',(5.49462495836091E-16,5.5,1.99987993329954E-16));
#1314=CARTESIAN_POINT('Origin',(-2.13491744991808E-32,1.,1.23259516440783E-32));
#1315=CARTESIAN_POINT('',(0.277076579668195,1.,2.98717735814253));
#1316=CARTESIAN_POINT('',(1.06984073722318,1.,2.80275592889887));
#1317=CARTESIAN_POINT('Origin',(-2.13491744991808E-32,1.,1.23259516440783E-32));
#1318=CARTESIAN_POINT('',(0.277076579668195,5.5,2.98717735814253));
#1319=CARTESIAN_POINT('',(0.277076579668195,1.,2.98717735814253));
#1320=CARTESIAN_POINT('',(1.06984073722318,5.5,2.80275592889887));
#1321=CARTESIAN_POINT('Origin',(-2.13491744991808E-32,5.5,1.23259516440783E-32));
#1322=CARTESIAN_POINT('',(1.06984073722318,1.,2.80275592889887));
#1323=CARTESIAN_POINT('Origin',(11.6037008637014,1.,2.42031484651203));
#1324=CARTESIAN_POINT('',(8.36474208816072,1.,12.4511481317408));
#1325=CARTESIAN_POINT('Origin',(11.6037008637014,1.,2.42031484651203));
#1326=CARTESIAN_POINT('',(8.36474208816072,5.5,12.4511481317408));
#1327=CARTESIAN_POINT('Origin',(11.6037008637014,5.5,2.42031484651203));
#1328=CARTESIAN_POINT('',(8.36474208816072,1.,12.4511481317408));
#1329=CARTESIAN_POINT('Origin',(11.6037008637014,1.,2.42031484651203));
#1330=CARTESIAN_POINT('',(7.49769314815623,1.,12.9917126452247));
#1331=CARTESIAN_POINT('Origin',(11.6037008637014,1.,2.42031484651203));
#1332=CARTESIAN_POINT('',(7.49769314815623,5.5,12.9917126452247));
#1333=CARTESIAN_POINT('',(7.49769314815623,1.,12.9917126452247));
#1334=CARTESIAN_POINT('Origin',(11.6037008637014,5.5,2.42031484651203));
#1335=CARTESIAN_POINT('Origin',(3.78906679938186,5.5,8.04620909924385));
#1336=CARTESIAN_POINT('Origin',(2.92362887438953E-16,5.5,5.06387375291808E-16));
#1337=CARTESIAN_POINT('Origin',(-2.42773854846838E-32,1.,-4.28075808200981E-33));
#1338=CARTESIAN_POINT('',(-1.70786761957695,1.,2.46641200816096));
#1339=CARTESIAN_POINT('',(-0.982031232299554,1.,2.83471597497672));
#1340=CARTESIAN_POINT('Origin',(-2.42773854846838E-32,1.,-4.28075808200981E-33));
#1341=CARTESIAN_POINT('',(-1.70786761957695,5.5,2.46641200816096));
#1342=CARTESIAN_POINT('',(-1.70786761957695,1.,2.46641200816096));
#1343=CARTESIAN_POINT('',(-0.982031232299554,5.5,2.83471597497672));
#1344=CARTESIAN_POINT('Origin',(-2.42773854846838E-32,5.5,-4.28075808200981E-33));
#1345=CARTESIAN_POINT('',(-0.982031232299554,1.,2.83471597497672));
#1346=CARTESIAN_POINT('Origin',(7.33320217137507,1.,9.31278388046518));
#1347=CARTESIAN_POINT('',(-1.59567955069574,1.,14.9148854092645));
#1348=CARTESIAN_POINT('Origin',(7.33320217137507,1.,9.31278388046518));
#1349=CARTESIAN_POINT('',(-1.59567955069574,5.5,14.9148854092645));
#1350=CARTESIAN_POINT('Origin',(7.33320217137507,5.5,9.31278388046518));
#1351=CARTESIAN_POINT('',(-1.59567955069574,1.,14.9148854092645));
#1352=CARTESIAN_POINT('Origin',(7.33320217137507,1.,9.31278388046518));
#1353=CARTESIAN_POINT('',(-2.60734574460205,1.,14.7716535353394));
#1354=CARTESIAN_POINT('Origin',(7.33320217137507,1.,9.31278388046518));
#1355=CARTESIAN_POINT('',(-2.60734574460205,5.5,14.7716535353394));
#1356=CARTESIAN_POINT('',(-2.60734574460205,1.,14.7716535353394));
#1357=CARTESIAN_POINT('Origin',(7.33320217137507,5.5,9.31278388046518));
#1358=CARTESIAN_POINT('Origin',(-2.26940994766795,5.5,8.5993189595664));
#1359=CARTESIAN_POINT('Origin',(-1.01536565242432E-16,5.5,5.75842476485833E-16));
#1360=CARTESIAN_POINT('Origin',(-1.58459379888179E-32,1.,-1.88844535261988E-32));
#1361=CARTESIAN_POINT('',(-2.89368157878772,1.,0.791585068444709));
#1362=CARTESIAN_POINT('',(-2.57439987416789,1.,1.54028091200416));
#1363=CARTESIAN_POINT('Origin',(-1.58459379888179E-32,1.,-1.88844535261988E-32));
#1364=CARTESIAN_POINT('',(-2.89368157878772,5.5,0.791585068444709));
#1365=CARTESIAN_POINT('',(-2.89368157878772,1.,0.791585068444709));
#1366=CARTESIAN_POINT('',(-2.57439987416789,5.5,1.54028091200416));
#1367=CARTESIAN_POINT('Origin',(-1.58459379888179E-32,5.5,-1.88844535261988E-32));
#1368=CARTESIAN_POINT('',(-2.57439987416789,1.,1.54028091200416));
#1369=CARTESIAN_POINT('Origin',(-0.368583316401657,1.,11.8476978366847));
#1370=CARTESIAN_POINT('',(-10.8094649937788,1.,10.399782043306));
#1371=CARTESIAN_POINT('Origin',(-0.368583316401657,1.,11.8476978366847));
#1372=CARTESIAN_POINT('',(-10.8094649937788,5.5,10.399782043306));
#1373=CARTESIAN_POINT('Origin',(-0.368583316401657,5.5,11.8476978366847));
#1374=CARTESIAN_POINT('',(-10.8094649937788,1.,10.399782043306));
#1375=CARTESIAN_POINT('Origin',(-0.368583316401657,1.,11.8476978366847));
#1376=CARTESIAN_POINT('',(-11.4923785860409,1.,9.63977356762645));
#1377=CARTESIAN_POINT('Origin',(-0.368583316401657,1.,11.8476978366847));
#1378=CARTESIAN_POINT('',(-11.4923785860409,5.5,9.63977356762645));
#1379=CARTESIAN_POINT('',(-11.4923785860409,1.,9.63977356762645));
#1380=CARTESIAN_POINT('Origin',(-0.368583316401657,5.5,11.8476978366847));
#1381=CARTESIAN_POINT('Origin',(-7.26600455852179,5.5,5.12871190792317));
#1382=CARTESIAN_POINT('Origin',(-4.47925930593659E-16,5.5,3.75854483155879E-16));
#1383=CARTESIAN_POINT('Origin',(0.,1.,-2.22044604925031E-16));
#1384=CARTESIAN_POINT('',(-14.9999997635102,1.,-0.00266358652852794));
#1385=CARTESIAN_POINT('Origin',(0.,1.,-2.22044604925031E-16));
#1386=CARTESIAN_POINT('',(-2.72550976759521,1.,-1.2536333222849));
#1387=CARTESIAN_POINT('Origin',(-7.89790457408677,1.,8.83894230262487));
#1388=CARTESIAN_POINT('',(-2.96217820364546,1.,-0.474868708010691));
#1389=CARTESIAN_POINT('Origin',(0.,1.,-2.46519032881566E-32));
#1390=CARTESIAN_POINT('',(-14.9653816324511,1.,1.01850507858167));
#1391=CARTESIAN_POINT('Origin',(-7.89790457408677,1.,8.83894230262487));
#1392=CARTESIAN_POINT('Origin',(0.,1.,-2.22044604925031E-16));
#1393=CARTESIAN_POINT('Origin',(0.,1.,-2.22044604925031E-16));
#1394=CARTESIAN_POINT('Origin',(0.,1.,-2.22044604925031E-16));
#1395=CARTESIAN_POINT('Origin',(0.,1.,-2.22044604925031E-16));
#1396=CARTESIAN_POINT('Origin',(0.,1.,-2.22044604925031E-16));
#1397=CARTESIAN_POINT('Origin',(0.,1.,-2.22044604925031E-16));
#1398=CARTESIAN_POINT('Origin',(0.,1.,-2.22044604925031E-16));
#1399=CARTESIAN_POINT('Origin',(0.,1.,-2.22044604925031E-16));
#1400=CARTESIAN_POINT('Origin',(0.,1.,-2.46519032881566E-32));
#1401=CARTESIAN_POINT('',(-2.72550976759521,5.5,-1.2536333222849));
#1402=CARTESIAN_POINT('',(-2.72550976759521,1.,-1.2536333222849));
#1403=CARTESIAN_POINT('',(-2.96217820364546,5.5,-0.474868708010691));
#1404=CARTESIAN_POINT('Origin',(0.,5.5,-2.46519032881566E-32));
#1405=CARTESIAN_POINT('',(-2.96217820364546,1.,-0.474868708010691));
#1406=CARTESIAN_POINT('Origin',(-7.89790457408677,1.,8.83894230262487));
#1407=CARTESIAN_POINT('',(-14.9653816324511,5.5,1.01850507858167));
#1408=CARTESIAN_POINT('Origin',(-7.89790457408677,5.5,8.83894230262487));
#1409=CARTESIAN_POINT('',(-14.9653816324511,1.,1.01850507858167));
#1410=CARTESIAN_POINT('Origin',(-7.89790457408677,1.,8.83894230262487));
#1411=CARTESIAN_POINT('',(-14.9999997635102,5.5,-0.00266358652852794));
#1412=CARTESIAN_POINT('',(-14.9999997635102,1.,-0.00266358652852794));
#1413=CARTESIAN_POINT('Origin',(-7.89790457408677,5.5,8.83894230262487));
#1414=CARTESIAN_POINT('Origin',(-8.86275488379761,5.5,-0.74167644472104));
#1415=CARTESIAN_POINT('',(-15.,5.5,6.15724871633357E-16));
#1416=CARTESIAN_POINT('Origin',(-5.84725774877906E-16,5.5,-2.46519032881566E-32));
#1417=CARTESIAN_POINT('Origin',(-5.84725774877906E-16,5.5,-2.46519032881566E-32));
#1418=CARTESIAN_POINT('Origin',(-5.84725774877906E-16,0.5,-1.11022302462516E-16));
#1419=CARTESIAN_POINT('',(-5.26555051918407E-16,2.08166817117217E-16,0.475));
#1420=CARTESIAN_POINT('Origin',(-5.84725774877906E-16,0.,0.));
#1421=CARTESIAN_POINT('',(-5.26555051918407E-16,0.5,0.475));
#1422=CARTESIAN_POINT('Origin',(0.,0.5,-1.11022302462516E-16));
#1423=CARTESIAN_POINT('',(-15.,0.,1.83697019872103E-15));
#1424=CARTESIAN_POINT('',(-15.,0.5,1.72594789625851E-15));
#1425=CARTESIAN_POINT('Origin',(0.,0.,0.));
#1426=CARTESIAN_POINT('Origin',(0.,0.,0.));
#1427=UNCERTAINTY_MEASURE_WITH_UNIT(LENGTH_MEASURE(0.01),#1431,
'DISTANCE_ACCURACY_VALUE',
'Maximum model space distance between geometric entities at asserted c
onnectivities');
#1428=UNCERTAINTY_MEASURE_WITH_UNIT(LENGTH_MEASURE(0.01),#1431,
'DISTANCE_ACCURACY_VALUE',
'Maximum model space distance between geometric entities at asserted c
onnectivities');
#1429=(
GEOMETRIC_REPRESENTATION_CONTEXT(3)
GLOBAL_UNCERTAINTY_ASSIGNED_CONTEXT((#1427))
GLOBAL_UNIT_ASSIGNED_CONTEXT((#1431,#1433,#1434))
REPRESENTATION_CONTEXT('','3D')
);
#1430=(
GEOMETRIC_REPRESENTATION_CONTEXT(3)
GLOBAL_UNCERTAINTY_ASSIGNED_CONTEXT((#1428))
GLOBAL_UNIT_ASSIGNED_CONTEXT((#1431,#1433,#1434))
REPRESENTATION_CONTEXT('','3D')
);
#1431=(
LENGTH_UNIT()
NAMED_UNIT(*)
SI_UNIT(.MILLI.,.METRE.)
);
#1432=(
LENGTH_UNIT()
NAMED_UNIT(*)
SI_UNIT($,.METRE.)
);
#1433=(
NAMED_UNIT(*)
PLANE_ANGLE_UNIT()
SI_UNIT($,.RADIAN.)
);
#1434=(
NAMED_UNIT(*)
SI_UNIT($,.STERADIAN.)
SOLID_ANGLE_UNIT()
);
#1435=SHAPE_DEFINITION_REPRESENTATION(#1436,#1437);
#1436=PRODUCT_DEFINITION_SHAPE('',$,#1439);
#1437=SHAPE_REPRESENTATION('',(#787),#1429);
#1438=PRODUCT_DEFINITION_CONTEXT('part definition',#1443,'design');
#1439=PRODUCT_DEFINITION('2026-09-05-17-18-54-618','main pervame',#1440,
#1438);
#1440=PRODUCT_DEFINITION_FORMATION('',$,#1445);
#1441=PRODUCT_RELATED_PRODUCT_CATEGORY('main pervame','main pervame',(#1445));
#1442=APPLICATION_PROTOCOL_DEFINITION('international standard',
'automotive_design',2009,#1443);
#1443=APPLICATION_CONTEXT(
'Core Data for Automotive Mechanical Design Process');
#1444=PRODUCT_CONTEXT('part definition',#1443,'mechanical');
#1445=PRODUCT('2026-09-05-17-18-54-618','main pervame',$,(#1444));
#1446=PRESENTATION_STYLE_ASSIGNMENT((#1447));
#1447=SURFACE_STYLE_USAGE(.BOTH.,#1448);
#1448=SURFACE_SIDE_STYLE('',(#1449));
#1449=SURFACE_STYLE_FILL_AREA(#1450);
#1450=FILL_AREA_STYLE('\X\C7elik - Saten',(#1451));
#1451=FILL_AREA_STYLE_COLOUR('\X\C7elik - Saten',#1452);
#1452=COLOUR_RGB('\X\C7elik - Saten',0.627450980392157,0.627450980392157,
0.627450980392157);
ENDSEC;
END-ISO-10303-21;
